{"glyphs":{"0":{"ha":812,"x_min":65,"x_max":747,"o":"m 747 422 q 659 95 747 199 q 407 -9 570 -9 q 154 95 243 -9 q 65 422 65 199 l 65 610 q 154 937 65 833 q 407 1042 243 1042 q 659 938 570 1042 q 747 610 747 833 l 747 422 m 621 422 l 621 610 q 565 858 621 781 q 407 935 509 935 q 317 917 356 935 q 251 860 279 899 q 208 758 223 821 q 193 610 193 694 l 193 422 q 219 236 193 309 q 292 130 244 163 q 407 97 340 97 q 565 175 509 97 q 621 422 621 252 z "},"1":{"ha":812,"x_min":160,"x_max":496,"o":"m 496 28 q 489 8 496 16 q 471 0 482 0 l 395 0 q 376 8 383 0 q 370 28 370 16 l 370 901 l 191 823 q 172 819 180 819 q 160 835 160 819 l 160 905 q 174 924 160 916 l 383 1023 q 412 1032 400 1032 l 469 1032 q 488 1025 480 1032 q 496 1006 496 1018 l 496 28 z "},"2":{"ha":812,"x_min":96,"x_max":715,"o":"m 715 793 q 697 693 715 737 q 640 610 679 650 q 534 525 601 570 l 401 435 q 283 339 326 384 q 223 248 240 294 q 207 139 207 201 l 207 110 l 675 110 q 703 86 703 110 l 703 25 q 694 6 703 13 q 675 0 686 0 l 123 0 q 104 8 113 0 q 96 26 96 16 l 96 139 q 118 276 96 212 q 187 398 140 341 q 309 504 234 454 l 449 599 q 564 694 536 657 q 591 793 591 731 q 572 874 591 843 q 514 921 553 906 q 416 936 475 936 q 322 927 370 936 q 227 906 274 919 q 149 884 180 892 q 128 885 136 880 q 121 903 121 890 l 121 950 q 125 969 121 963 q 142 979 130 975 q 219 1008 178 995 q 316 1032 260 1022 q 421 1042 371 1042 q 548 1025 492 1042 q 640 979 604 1009 q 696 903 676 949 q 715 793 715 856 z "},"3":{"ha":812,"x_min":103,"x_max":710,"o":"m 376 -9 q 240 7 310 -9 q 123 43 170 24 q 107 54 111 49 q 103 72 103 60 l 103 119 q 131 139 103 147 q 263 106 213 117 q 372 96 314 96 q 532 141 484 96 q 581 288 581 186 l 581 317 q 565 396 581 357 q 513 460 550 435 q 418 486 476 486 l 165 486 q 139 511 139 486 l 139 559 q 146 578 139 571 q 165 586 154 586 l 418 586 q 516 610 480 586 q 567 672 553 635 q 581 751 581 710 l 581 771 q 561 866 581 830 q 495 919 541 901 q 372 936 450 936 q 262 925 314 936 q 131 893 210 914 q 103 913 103 885 l 103 960 q 107 978 103 972 q 123 989 112 984 q 239 1025 170 1008 q 376 1042 308 1042 q 626 980 541 1042 q 710 771 710 918 l 710 751 q 702 684 710 715 q 676 624 693 652 q 634 573 659 596 q 578 534 609 550 q 678 443 646 502 q 710 317 710 385 l 710 288 q 622 63 710 136 q 376 -9 534 -9 z "},"4":{"ha":812,"x_min":39,"x_max":772,"o":"m 772 300 q 765 282 772 288 q 746 275 757 275 l 625 275 l 625 28 q 619 8 625 16 q 602 0 612 0 l 521 0 q 497 28 497 0 l 497 275 l 96 275 q 52 288 65 275 q 39 329 39 300 l 39 382 q 56 433 39 411 l 467 1010 q 507 1032 481 1032 l 589 1032 q 625 1002 625 1032 l 625 380 l 746 380 q 765 374 758 380 q 772 355 772 367 l 772 300 m 498 380 l 498 856 q 493 864 498 864 l 492 864 q 481 856 486 864 l 160 400 q 155 389 155 395 q 167 380 155 380 l 498 380 z "},"5":{"ha":812,"x_min":93,"x_max":718,"o":"m 367 -9 q 230 7 300 -9 q 114 43 161 24 q 97 55 101 50 q 93 72 93 60 l 93 119 q 121 139 93 148 q 364 96 265 96 q 535 151 481 96 q 590 314 590 205 l 590 335 q 523 479 590 437 q 300 521 456 521 l 134 521 q 118 529 124 521 q 111 545 111 536 l 111 546 l 150 1008 q 159 1026 151 1019 q 178 1032 168 1032 l 656 1032 q 675 1026 667 1032 q 684 1008 684 1019 l 684 947 q 656 925 684 925 l 257 925 l 235 625 l 300 625 q 527 598 435 625 q 669 507 619 571 q 718 335 718 442 l 718 314 q 626 75 718 159 q 367 -9 534 -9 z "},"6":{"ha":812,"x_min":68,"x_max":743,"o":"m 618 342 l 618 350 q 588 464 618 420 q 511 524 559 507 q 403 542 463 542 q 294 534 356 542 q 193 517 233 526 l 193 385 q 217 210 193 273 q 288 119 241 146 q 404 93 334 93 q 493 106 454 93 q 561 148 533 120 q 603 225 588 176 q 618 342 618 275 m 431 1042 q 681 990 559 1042 q 697 980 693 985 q 701 961 701 975 l 701 911 q 673 892 701 884 q 541 925 586 915 q 431 936 495 936 q 277 899 330 936 q 209 796 225 861 q 193 628 193 731 l 193 612 q 403 640 316 640 q 575 613 499 640 q 697 522 652 586 q 743 350 743 457 l 743 342 q 706 152 743 231 q 592 32 668 73 q 404 -9 517 -9 q 263 15 326 -9 q 158 86 201 39 q 91 210 115 134 q 68 385 68 285 l 68 628 q 109 866 68 775 q 230 999 149 957 q 431 1042 311 1042 z "},"7":{"ha":812,"x_min":86,"x_max":725,"o":"m 725 945 q 707 872 725 910 l 307 21 q 277 0 296 0 l 193 0 q 172 21 172 0 q 176 36 172 28 l 596 908 q 597 914 597 909 q 587 924 597 924 l 114 924 q 86 947 86 924 l 86 1006 q 94 1024 86 1016 q 114 1032 102 1032 l 621 1032 q 700 1008 675 1032 q 725 945 725 983 z "},"8":{"ha":812,"x_min":61,"x_max":750,"o":"m 750 288 q 655 66 750 142 q 412 -9 559 -9 l 399 -9 q 156 66 252 -9 q 61 288 61 142 l 61 314 q 97 441 61 379 q 196 539 133 504 q 98 629 132 572 q 64 755 64 686 l 64 768 q 107 923 64 862 q 225 1013 150 983 q 399 1042 300 1042 l 412 1042 q 586 1013 511 1042 q 704 923 661 983 q 747 768 747 862 l 747 755 q 732 667 747 709 q 688 594 717 626 q 615 539 659 562 q 714 443 677 505 q 750 314 750 381 l 750 288 m 625 755 l 625 768 q 570 895 625 850 q 412 939 515 939 l 399 939 q 241 895 296 939 q 186 768 186 850 l 186 755 q 229 636 186 684 q 363 589 273 589 l 449 589 q 582 636 538 589 q 625 755 625 684 m 624 288 l 624 314 q 606 396 624 356 q 548 463 588 437 q 449 489 509 489 l 363 489 q 264 463 304 489 q 205 397 224 437 q 187 314 187 356 l 187 288 q 242 146 187 197 q 399 96 298 96 l 412 96 q 569 146 515 96 q 624 288 624 197 z "},"9":{"ha":812,"x_min":68,"x_max":743,"o":"m 193 690 l 193 682 q 254 534 193 578 q 408 490 314 490 q 513 497 450 490 q 618 515 575 505 l 618 647 q 566 874 618 810 q 407 939 514 939 q 292 915 340 939 q 219 836 245 891 q 193 690 193 781 m 380 -9 q 248 5 315 -9 q 131 41 182 20 q 114 53 118 48 q 110 71 110 58 l 110 121 q 138 140 110 149 q 184 128 155 136 q 247 112 212 120 q 316 100 281 104 q 380 96 351 96 q 534 133 481 96 q 602 236 586 170 q 618 404 618 301 l 618 419 q 507 399 555 406 q 408 392 460 392 q 277 406 336 392 q 169 454 218 420 q 94 545 121 488 q 68 682 68 602 l 68 690 q 89 839 68 774 q 153 949 111 904 q 258 1018 195 994 q 407 1042 322 1042 q 548 1018 486 1042 q 654 946 610 994 q 720 823 697 898 q 743 647 743 747 l 743 404 q 720 214 743 292 q 652 87 697 136 q 538 14 606 37 q 380 -9 471 -9 z "}," ":{"ha":343,"x_min":0,"x_max":0,"o":""},"!":{"ha":269,"x_min":68,"x_max":205,"o":"m 205 1018 l 195 296 q 187 277 195 285 q 168 269 179 269 l 106 269 q 86 277 95 269 q 78 296 78 285 l 68 1018 q 77 1037 68 1029 q 96 1044 85 1044 l 178 1044 q 197 1037 189 1044 q 205 1018 205 1029 m 203 26 q 195 7 203 15 q 176 0 188 0 l 98 0 q 80 8 87 0 q 72 26 72 16 l 72 157 q 79 175 72 168 q 98 183 87 183 l 176 183 q 195 176 187 183 q 203 157 203 169 l 203 26 z "},"\"":{"ha":492,"x_min":24,"x_max":468,"o":"m 468 1029 q 467 1018 468 1022 l 386 755 q 359 729 378 729 l 283 729 q 271 743 271 729 q 272 755 271 751 l 336 1018 q 364 1044 342 1044 l 453 1044 q 468 1029 468 1044 m 221 1029 q 220 1018 221 1022 l 139 755 q 113 729 132 729 l 36 729 q 24 743 24 729 q 25 755 24 751 l 89 1018 q 117 1044 94 1044 l 205 1044 q 221 1029 221 1044 z "},"#":{"ha":890,"x_min":52,"x_max":835,"o":"m 835 717 l 835 714 l 832 672 q 824 653 831 661 q 804 646 816 646 l 675 646 l 650 376 l 781 376 q 797 369 791 376 q 803 350 803 361 l 803 347 l 800 307 q 792 289 800 296 q 772 281 784 281 l 642 281 l 619 26 q 595 0 616 0 l 522 0 q 506 7 513 0 q 500 24 500 14 l 500 26 l 522 281 l 318 281 l 296 26 q 287 8 294 16 q 271 0 280 0 l 197 0 q 181 8 188 0 q 175 24 175 16 l 175 26 l 197 281 l 74 281 q 58 289 64 281 q 52 307 52 296 l 52 310 l 54 350 q 82 376 56 376 l 205 376 l 231 646 l 106 646 q 90 653 96 646 q 83 672 83 661 l 83 675 l 86 717 q 95 736 87 728 q 114 743 102 743 l 237 743 l 261 1006 q 270 1024 262 1016 q 288 1032 277 1032 l 361 1032 q 376 1025 370 1032 q 382 1008 382 1018 l 382 1006 l 358 743 l 562 743 l 586 1006 q 595 1025 587 1017 q 612 1032 602 1032 l 685 1032 q 700 1026 695 1032 q 705 1008 705 1019 l 705 1006 l 682 743 l 812 743 q 829 736 823 743 q 835 717 835 728 m 555 646 l 351 646 l 326 376 l 530 376 l 555 646 z "},"$":{"ha":799,"x_min":87,"x_max":711,"o":"m 711 268 q 652 89 711 165 q 458 -4 593 14 l 458 -135 q 450 -154 458 -145 q 431 -163 441 -163 l 366 -163 q 346 -154 354 -163 q 338 -135 338 -145 l 338 -8 q 216 13 276 -3 q 115 47 155 28 q 93 62 98 56 q 89 85 89 68 l 89 142 q 117 158 89 169 q 251 121 179 136 q 383 106 323 106 q 498 125 454 106 q 561 181 542 145 q 579 268 579 218 q 545 358 579 320 q 414 454 511 395 l 279 536 q 133 657 179 597 q 87 796 87 716 q 154 967 87 906 q 338 1039 220 1027 l 338 1157 q 346 1177 338 1168 q 366 1185 353 1185 l 431 1185 q 450 1177 442 1185 q 458 1157 458 1168 l 458 1038 q 646 991 555 1028 q 663 982 656 987 q 669 966 669 977 l 669 896 q 643 879 669 871 q 557 905 595 895 q 477 921 519 915 q 395 928 435 928 q 295 916 334 928 q 235 875 255 904 q 215 796 215 846 q 249 714 215 749 q 367 628 282 679 l 494 551 q 623 460 575 503 q 691 370 670 416 q 711 268 711 324 z "},"%":{"ha":1080,"x_min":49,"x_max":1035,"o":"m 425 688 q 376 518 425 576 q 237 461 326 461 q 98 518 148 461 q 49 688 49 576 l 49 817 q 98 985 49 929 q 237 1042 147 1042 q 339 1017 296 1042 q 403 941 381 992 q 425 817 425 890 l 425 688 m 886 1002 l 304 17 q 277 0 294 0 l 212 0 q 192 12 192 0 q 199 31 192 17 l 781 1015 q 808 1032 791 1032 l 872 1032 q 893 1019 893 1032 q 886 1002 893 1015 m 335 688 l 335 817 q 237 958 335 958 q 139 817 139 958 l 139 688 q 237 546 139 546 q 335 688 335 546 m 1035 216 q 985 47 1035 104 q 847 -9 936 -9 q 708 47 758 -9 q 659 216 659 104 l 659 346 q 708 515 659 459 q 847 571 758 571 q 985 515 936 571 q 1035 346 1035 459 l 1035 216 m 945 216 l 945 346 q 847 488 945 488 q 749 346 749 488 l 749 216 q 847 75 749 75 q 945 216 945 75 z "},"&":{"ha":918,"x_min":60,"x_max":876,"o":"m 876 16 q 872 4 876 9 q 861 0 867 0 l 765 0 q 743 9 753 0 l 673 85 q 400 -9 564 -9 q 158 52 257 -9 q 60 244 60 114 l 60 256 q 80 358 60 312 q 146 445 101 404 q 260 529 192 486 l 250 541 q 132 702 158 647 q 106 810 106 756 l 106 821 q 183 985 106 928 q 397 1042 260 1042 q 538 1017 476 1042 q 637 942 600 992 q 673 821 673 892 l 673 810 q 656 721 673 761 q 593 637 639 682 q 461 534 548 593 l 422 509 l 673 237 q 728 482 728 333 l 728 501 q 750 524 728 524 l 810 524 q 833 501 833 524 l 833 482 q 811 309 833 392 q 746 163 789 227 l 869 31 q 876 16 876 24 m 558 810 l 558 821 q 516 918 558 887 q 397 949 474 949 q 220 821 220 949 l 220 810 q 227 756 220 781 q 259 697 235 732 q 338 602 283 662 l 351 586 l 399 615 q 501 686 467 657 q 546 743 534 715 q 558 810 558 770 m 607 157 l 330 453 q 217 360 248 401 q 187 256 187 319 l 187 244 q 248 125 187 165 q 400 86 309 86 q 607 157 524 86 z "},"'":{"ha":254,"x_min":33,"x_max":231,"o":"m 231 1029 q 229 1018 231 1022 l 149 755 q 122 729 141 729 l 46 729 q 33 743 33 729 q 35 755 33 751 l 98 1018 q 126 1044 104 1044 l 215 1044 q 231 1029 231 1044 z "},"(":{"ha":400,"x_min":66,"x_max":372,"o":"m 372 -279 q 358 -290 372 -290 l 293 -290 q 275 -287 282 -290 q 261 -275 268 -284 q 118 9 170 -163 q 66 368 66 182 l 66 386 q 118 745 66 572 q 261 1029 170 918 q 293 1044 273 1044 l 358 1044 q 372 1034 372 1044 q 368 1019 372 1025 q 289 878 323 951 q 234 726 256 804 q 200 562 212 648 q 189 386 189 475 l 189 368 q 368 -265 189 -2 q 372 -279 372 -271 z "},")":{"ha":400,"x_min":45,"x_max":350,"o":"m 350 368 q 298 8 350 182 q 155 -275 246 -165 q 141 -288 148 -285 q 123 -290 134 -290 l 58 -290 q 45 -279 45 -290 q 49 -265 45 -271 q 228 368 228 -2 l 228 386 q 216 568 228 482 q 182 732 204 654 q 126 883 159 810 q 49 1019 92 956 q 45 1034 45 1025 q 58 1044 45 1044 l 123 1044 q 155 1029 143 1044 q 238 902 201 975 q 298 747 274 829 q 336 573 323 665 q 350 386 350 481 l 350 368 z "},"*":{"ha":621,"x_min":53,"x_max":570,"o":"m 570 831 q 550 810 570 817 l 376 755 l 484 608 q 490 590 490 600 q 482 575 490 581 l 449 550 q 437 546 442 546 q 416 559 427 546 l 311 707 l 205 559 q 184 546 197 546 q 174 550 180 546 l 139 575 q 131 590 131 581 q 138 608 131 600 l 245 755 l 74 810 q 53 831 53 817 q 54 834 54 833 q 54 838 54 836 l 66 878 q 85 892 71 892 q 97 889 89 892 l 269 832 l 269 1014 q 290 1040 269 1040 l 332 1040 q 353 1014 353 1040 l 351 832 l 525 889 q 538 892 533 892 q 555 878 551 892 l 568 838 q 570 831 570 835 z "},"+":{"ha":799,"x_min":83,"x_max":715,"o":"m 715 510 q 688 488 715 488 l 454 488 l 454 256 q 448 236 454 243 q 432 228 442 228 l 366 228 q 343 256 343 228 l 343 488 l 111 488 q 83 510 83 488 l 83 576 q 91 593 83 587 q 111 599 99 599 l 343 599 l 343 832 q 366 860 343 860 l 432 860 q 448 851 442 860 q 454 832 454 843 l 454 599 l 688 599 q 707 593 699 599 q 715 576 715 587 l 715 510 z "},",":{"ha":282,"x_min":22,"x_max":240,"o":"m 240 164 q 237 153 240 161 l 134 -110 q 123 -130 128 -123 q 107 -136 117 -136 l 39 -136 q 22 -119 22 -136 q 24 -110 22 -113 l 103 153 q 131 179 111 179 l 222 179 q 240 164 240 179 z "},"-":{"ha":437,"x_min":54,"x_max":383,"o":"m 383 374 q 357 350 383 350 l 81 350 q 54 374 54 350 l 54 439 q 62 457 54 450 q 81 464 69 464 l 357 464 q 383 439 383 464 l 383 374 z "},".":{"ha":264,"x_min":71,"x_max":201,"o":"m 201 29 q 194 9 201 17 q 175 1 186 1 l 97 1 q 79 9 87 1 q 71 29 71 18 l 71 158 q 78 177 71 169 q 97 184 85 184 l 175 184 q 194 177 186 184 q 201 158 201 170 l 201 29 z "},"/":{"ha":484,"x_min":26,"x_max":465,"o":"m 465 1015 q 464 1004 465 1008 l 150 28 q 125 0 142 0 l 46 0 q 26 17 26 0 q 29 35 26 25 l 343 1004 q 367 1032 351 1032 l 446 1032 q 465 1015 465 1032 z "},":":{"ha":271,"x_min":74,"x_max":205,"o":"m 205 607 q 198 588 205 595 q 178 581 190 581 l 102 581 q 82 588 90 581 q 74 607 74 595 l 74 736 q 82 755 74 747 q 102 764 90 764 l 178 764 q 198 756 190 764 q 205 736 205 748 l 205 607 m 205 26 q 198 7 205 15 q 178 0 190 0 l 102 0 q 82 7 90 0 q 74 26 74 15 l 74 157 q 82 175 74 167 q 102 183 90 183 l 178 183 q 197 176 189 183 q 205 157 205 168 l 205 26 z "},";":{"ha":289,"x_min":11,"x_max":228,"o":"m 222 607 q 215 588 222 595 q 196 581 208 581 l 117 581 q 98 588 106 581 q 90 607 90 596 l 90 736 q 98 755 90 747 q 117 764 105 764 l 196 764 q 215 755 208 764 q 222 736 222 747 l 222 607 m 228 163 q 225 151 228 159 l 121 -111 q 110 -133 115 -127 q 94 -139 105 -139 l 28 -139 q 11 -121 11 -139 q 12 -111 11 -114 l 92 151 q 119 178 100 178 l 210 178 q 228 163 228 178 z "},"<":{"ha":777,"x_min":127,"x_max":639,"o":"m 639 208 q 623 195 639 195 l 530 195 q 488 212 509 195 l 153 496 q 127 543 127 517 q 153 590 127 569 l 488 873 q 530 892 509 892 l 623 892 q 639 878 639 892 q 625 854 639 866 l 261 543 l 625 232 q 639 208 639 220 z "},"=":{"ha":790,"x_min":100,"x_max":690,"o":"m 690 664 q 663 642 690 642 l 127 642 q 100 664 100 642 l 100 730 q 127 753 100 753 l 663 753 q 690 730 690 753 l 690 664 m 690 357 q 663 335 690 335 l 127 335 q 100 357 100 335 l 100 424 q 127 446 100 446 l 663 446 q 690 424 690 446 l 690 357 z "},">":{"ha":777,"x_min":138,"x_max":648,"o":"m 648 543 q 624 496 648 517 l 289 212 q 245 195 267 195 l 154 195 q 138 208 138 195 q 151 232 138 220 l 515 543 l 151 854 q 138 878 138 866 q 154 892 138 892 l 245 892 q 289 873 267 892 l 624 590 q 648 543 648 570 z "},"?":{"ha":606,"x_min":-14,"x_max":539,"o":"m 283 26 q 276 7 283 15 q 257 0 269 0 l 179 0 q 160 7 169 0 q 151 26 151 15 l 151 155 q 160 175 151 166 q 179 183 168 183 l 257 183 q 276 175 269 183 q 283 155 283 167 l 283 26 m 261 932 q 145 920 200 932 q 12 884 90 908 q -14 900 -14 875 l -14 966 q -7 982 -14 977 q 9 991 -1 987 q 118 1025 47 1008 q 261 1042 188 1042 q 465 993 391 1042 q 539 832 539 945 l 539 815 q 529 749 539 781 q 492 677 519 718 q 412 578 465 637 l 350 507 q 301 449 311 463 q 284 414 292 436 q 277 364 277 393 l 277 296 q 268 277 277 285 q 249 269 260 269 l 187 269 q 169 277 177 269 q 161 296 161 285 l 161 364 q 169 441 161 410 q 197 504 177 473 q 253 574 218 536 l 317 644 q 386 737 368 702 q 403 815 403 772 l 403 832 q 369 909 403 886 q 261 932 334 932 z "},"@":{"ha":1044,"x_min":46,"x_max":1000,"o":"m 472 69 q 355 98 400 69 q 290 171 310 126 q 271 265 271 216 q 272 293 271 285 l 288 456 q 311 550 292 509 q 363 619 330 590 q 440 662 396 648 q 541 676 484 676 q 718 656 619 676 q 740 646 733 652 q 747 627 747 640 l 714 271 q 713 246 713 256 q 711 225 712 235 q 762 168 711 168 q 852 220 820 168 q 896 342 884 272 q 908 478 908 413 q 870 662 908 583 q 755 786 832 741 q 567 831 677 831 q 281 735 388 831 q 158 478 175 640 l 138 267 q 135 222 135 237 q 157 106 135 161 q 222 12 178 52 q 332 -52 266 -29 q 485 -74 398 -74 q 685 -64 559 -74 l 686 -64 q 696 -67 694 -64 q 699 -74 699 -71 l 699 -118 q 676 -138 699 -136 q 484 -149 581 -149 q 304 -122 386 -149 q 165 -45 223 -96 q 76 74 106 5 q 46 224 46 142 q 47 267 46 253 l 68 484 q 143 706 80 609 q 317 857 207 803 q 571 911 427 911 q 807 856 709 911 q 952 703 904 800 q 1000 478 1000 606 q 971 265 1000 355 q 886 126 943 175 q 751 77 830 77 q 625 129 664 77 q 472 69 546 69 m 596 237 q 597 278 596 264 l 624 568 q 529 576 566 576 q 439 547 469 576 q 403 453 409 517 l 387 294 q 386 268 386 285 q 484 168 386 168 q 597 207 530 168 q 596 237 596 216 z "},"A":{"ha":865,"x_min":33,"x_max":832,"o":"m 832 22 q 808 0 832 0 l 726 0 q 703 21 707 0 l 612 340 l 253 340 l 164 21 q 154 6 162 12 q 139 0 146 0 l 57 0 q 40 6 47 0 q 33 22 33 13 q 35 32 33 29 l 292 936 q 348 1018 309 995 q 433 1042 387 1042 q 490 1033 463 1042 q 540 1000 517 1023 q 574 937 562 977 l 831 32 q 832 22 832 29 m 586 450 l 460 907 q 433 932 453 932 q 406 907 412 932 l 279 450 l 586 450 z "},"B":{"ha":821,"x_min":87,"x_max":765,"o":"m 765 285 q 359 -9 765 -9 q 134 3 212 -9 q 98 17 109 6 q 87 54 87 28 l 87 979 q 132 1031 87 1027 q 353 1042 223 1042 q 563 1017 473 1042 q 706 933 653 993 q 760 774 760 874 l 760 751 q 720 617 760 675 q 611 533 681 560 q 724 449 682 509 q 765 309 765 389 l 765 285 m 633 751 l 633 774 q 564 901 633 867 q 353 935 494 935 q 311 934 321 935 q 271 933 302 934 q 215 930 241 932 l 215 586 l 429 586 q 633 751 633 586 m 639 285 l 639 309 q 591 436 639 387 q 429 485 543 485 l 215 485 l 215 103 q 287 100 239 102 q 359 97 335 97 q 512 113 452 97 q 606 171 572 130 q 639 285 639 212 z "},"C":{"ha":729,"x_min":66,"x_max":684,"o":"m 66 419 l 66 421 l 66 612 q 171 943 66 845 q 437 1042 276 1042 q 525 1032 480 1042 q 609 1009 570 1023 q 669 983 647 996 q 684 961 684 975 l 684 893 q 677 881 684 884 q 660 880 670 877 q 555 911 623 895 q 437 928 486 928 q 193 612 193 928 l 193 421 q 224 236 193 306 q 309 135 254 165 q 437 104 363 104 q 660 151 522 104 q 677 152 671 155 q 684 139 684 149 l 684 71 q 669 49 684 57 q 609 23 647 37 q 525 0 570 9 q 437 -9 480 -9 q 171 89 276 -9 q 66 419 66 187 z "},"D":{"ha":854,"x_min":87,"x_max":790,"o":"m 790 422 q 680 98 790 205 q 370 -9 569 -9 q 297 -8 342 -9 q 215 -5 252 -7 q 161 -1 178 -3 q 117 4 144 1 q 87 39 87 8 l 87 993 q 117 1028 87 1023 q 175 1035 146 1032 q 260 1039 204 1037 q 370 1042 315 1042 q 680 935 570 1042 q 790 610 790 828 l 790 422 m 664 422 l 664 610 q 627 801 664 729 q 524 903 590 873 q 370 933 458 933 q 215 929 284 933 l 215 102 q 370 98 260 98 q 586 172 508 98 q 664 422 664 246 z "},"E":{"ha":729,"x_min":87,"x_max":668,"o":"m 668 17 q 654 -3 668 -1 q 383 -9 589 -9 q 219 17 285 -9 q 121 101 154 43 q 87 249 87 159 l 87 783 q 161 980 87 918 q 383 1042 234 1042 q 533 1040 452 1042 q 654 1034 614 1038 q 668 1014 668 1031 l 668 945 q 653 928 668 928 l 385 928 q 275 914 311 928 q 226 870 238 900 q 214 783 214 840 l 214 590 l 640 590 q 661 583 653 590 q 668 562 668 575 l 668 510 q 660 490 668 498 q 640 482 652 482 l 214 482 l 214 249 q 226 162 214 193 q 275 118 238 132 q 385 104 311 104 l 653 104 q 668 87 668 104 l 668 17 z "},"F":{"ha":729,"x_min":87,"x_max":668,"o":"m 668 510 q 660 490 668 498 q 640 482 652 482 l 214 482 l 214 28 q 205 8 214 16 q 186 0 197 0 l 115 0 q 96 8 104 0 q 87 28 87 16 l 87 783 q 161 980 87 918 q 383 1042 234 1042 q 533 1040 452 1042 q 654 1034 614 1038 q 668 1014 668 1031 l 668 945 q 653 928 668 928 l 385 928 q 275 914 311 928 q 226 870 238 900 q 214 783 214 840 l 214 590 l 640 590 q 661 583 653 590 q 668 562 668 575 l 668 510 z "},"G":{"ha":814,"x_min":65,"x_max":726,"o":"m 441 928 q 261 854 330 928 q 192 608 192 781 l 192 422 q 209 278 192 338 q 259 180 227 218 q 338 123 292 141 q 443 104 384 104 q 600 111 517 104 l 600 509 q 607 528 600 519 q 625 536 614 536 l 700 536 q 718 528 710 536 q 726 509 726 520 l 726 41 q 720 21 726 29 q 701 11 713 13 q 592 -2 666 5 q 441 -9 518 -9 q 297 14 365 -9 q 177 90 229 38 q 95 224 124 141 q 65 422 65 307 l 65 608 q 97 815 65 730 q 183 949 129 899 q 303 1020 237 998 q 441 1042 369 1042 q 594 1022 515 1042 q 705 983 672 1002 q 720 961 720 976 l 720 893 q 696 880 720 872 q 625 901 665 890 q 534 920 585 911 q 441 928 483 928 z "},"H":{"ha":903,"x_min":87,"x_max":815,"o":"m 815 28 q 807 8 815 16 q 787 0 799 0 l 717 0 q 697 8 705 0 q 689 28 689 16 l 689 489 l 214 489 l 214 28 q 205 8 214 16 q 186 0 197 0 l 115 0 q 96 8 104 0 q 87 28 87 16 l 87 1004 q 96 1023 87 1015 q 115 1032 104 1032 l 186 1032 q 205 1024 197 1032 q 214 1004 214 1016 l 214 602 l 689 602 l 689 1004 q 697 1023 689 1015 q 717 1032 705 1032 l 787 1032 q 807 1024 799 1032 q 815 1004 815 1016 l 815 28 z "},"I":{"ha":323,"x_min":98,"x_max":225,"o":"m 225 28 q 218 8 225 17 q 200 0 211 0 l 123 0 q 106 8 114 0 q 98 28 98 16 l 98 1006 q 106 1024 98 1016 q 123 1032 113 1032 l 200 1032 q 218 1025 210 1032 q 225 1006 225 1017 l 225 28 z "},"J":{"ha":346,"x_min":-39,"x_max":258,"o":"m 258 -52 q 208 -201 258 -153 q 43 -250 157 -250 q 0 -246 25 -250 q -31 -239 -24 -241 q -39 -224 -39 -235 l -39 -172 q -11 -149 -39 -149 l 43 -149 q 114 -127 96 -149 q 132 -52 132 -105 l 132 1006 q 140 1024 132 1016 q 158 1032 149 1032 l 232 1032 q 250 1024 242 1032 q 258 1006 258 1016 l 258 -52 z "},"K":{"ha":811,"x_min":87,"x_max":762,"o":"m 762 14 q 745 0 762 0 l 636 0 q 606 14 617 0 l 214 490 l 214 28 q 207 8 214 16 q 189 0 200 0 l 113 0 q 95 8 102 0 q 87 28 87 16 l 87 1006 q 95 1024 87 1017 q 114 1032 103 1032 l 187 1032 q 206 1025 198 1032 q 214 1006 214 1018 l 214 557 l 614 1019 q 642 1032 627 1032 l 742 1032 q 761 1017 761 1032 q 755 1003 761 1008 l 338 530 l 755 31 q 762 14 762 24 z "},"L":{"ha":689,"x_min":87,"x_max":668,"o":"m 668 22 q 654 3 668 5 q 383 -9 572 -9 q 233 9 297 -9 q 128 84 168 27 q 87 249 87 142 l 87 1004 q 96 1023 87 1015 q 115 1032 104 1032 l 186 1032 q 205 1024 197 1032 q 214 1004 214 1016 l 214 249 q 226 162 214 193 q 275 118 238 132 q 385 104 311 104 l 653 104 q 668 87 668 104 l 668 22 z "},"M":{"ha":1015,"x_min":87,"x_max":929,"o":"m 929 28 q 921 8 929 16 q 901 0 913 0 l 833 0 q 814 8 822 0 q 806 28 806 16 l 806 851 q 804 856 806 856 q 802 852 803 856 l 628 494 q 578 427 606 448 q 509 407 549 407 q 440 426 469 407 q 389 493 412 446 l 215 852 q 212 856 214 856 q 211 851 211 856 l 211 28 q 203 8 211 16 q 183 0 195 0 l 115 0 q 96 8 104 0 q 87 28 87 16 l 87 991 q 99 1020 87 1008 q 127 1032 111 1032 l 218 1032 q 262 1008 252 1032 l 492 532 q 509 517 498 517 q 525 532 518 517 l 754 1008 q 770 1027 760 1022 q 799 1032 779 1032 l 889 1032 q 909 1026 900 1032 q 924 1011 919 1021 q 929 991 929 1002 l 929 28 z "},"N":{"ha":903,"x_min":87,"x_max":815,"o":"m 815 40 q 803 12 815 23 q 775 0 791 0 l 689 0 q 644 22 656 0 l 215 838 q 211 842 213 842 q 210 838 210 842 l 210 26 q 202 8 210 16 q 184 0 195 0 l 113 0 q 87 17 87 0 l 87 993 q 99 1021 87 1009 q 127 1032 111 1032 l 204 1032 q 242 1026 232 1032 q 261 1004 252 1021 l 688 193 l 690 189 q 692 193 692 189 l 692 1006 q 699 1024 692 1017 q 717 1032 706 1032 l 790 1032 q 808 1025 802 1032 q 815 1006 815 1017 l 815 40 z "},"O":{"ha":885,"x_min":66,"x_max":818,"o":"m 818 427 q 791 230 818 313 q 713 94 764 147 q 594 16 663 41 q 443 -9 526 -9 q 292 16 361 -9 q 172 94 223 41 q 94 231 121 147 q 66 427 66 315 l 66 606 q 94 801 66 718 q 173 939 122 885 q 292 1017 224 992 q 443 1042 359 1042 q 594 1017 526 1042 q 713 938 663 991 q 790 802 763 885 q 818 606 818 720 l 818 427 m 690 427 l 690 606 q 673 753 690 690 q 625 854 656 817 q 548 909 593 891 q 443 928 503 928 q 195 606 195 928 l 195 427 q 224 242 195 314 q 309 137 254 170 q 443 104 364 104 q 690 427 690 104 z "},"P":{"ha":790,"x_min":87,"x_max":741,"o":"m 741 722 q 351 411 741 411 q 212 418 304 411 l 212 28 q 205 8 212 16 q 187 0 199 0 l 113 0 q 95 8 102 0 q 87 28 87 16 l 87 996 q 121 1031 87 1027 q 351 1042 216 1042 q 556 1012 469 1042 q 692 915 643 982 q 741 741 741 847 l 741 722 m 614 722 l 614 741 q 551 889 614 844 q 351 935 488 935 q 212 929 279 935 l 212 522 q 237 521 220 522 q 274 519 254 520 q 316 518 294 519 q 351 517 338 517 q 504 538 446 517 q 588 604 562 559 q 614 722 614 650 z "},"Q":{"ha":897,"x_min":66,"x_max":878,"o":"m 818 427 q 664 52 818 157 q 766 -16 673 -16 l 848 -16 q 878 -39 878 -16 l 878 -79 q 851 -109 878 -100 q 766 -118 825 -118 q 628 -90 682 -118 q 550 1 574 -62 q 443 -9 497 -9 q 292 16 361 -9 q 172 94 223 41 q 94 231 121 147 q 66 427 66 315 l 66 606 q 94 801 66 718 q 173 939 122 885 q 292 1017 224 992 q 443 1042 359 1042 q 594 1017 526 1042 q 713 938 663 991 q 790 802 763 885 q 818 606 818 720 l 818 427 m 690 427 l 690 606 q 673 753 690 690 q 625 854 656 817 q 548 909 593 891 q 443 928 503 928 q 195 606 195 928 l 195 427 q 224 242 195 314 q 309 137 254 170 q 443 104 364 104 q 690 427 690 104 z "},"R":{"ha":838,"x_min":87,"x_max":793,"o":"m 793 18 q 775 0 793 0 l 686 0 q 665 3 671 0 q 650 18 659 6 l 401 432 l 389 432 l 366 432 q 212 436 323 432 l 212 28 q 205 8 212 16 q 187 0 199 0 l 113 0 q 95 8 102 0 q 87 28 87 16 l 87 1000 q 121 1031 87 1027 q 195 1037 146 1034 q 291 1041 244 1040 q 366 1042 338 1042 q 568 1013 481 1042 q 704 917 654 984 q 754 743 754 850 l 754 733 q 695 551 754 622 q 536 453 635 479 l 789 31 q 793 18 793 24 m 629 733 l 629 743 q 600 851 629 810 q 513 910 571 892 q 366 928 456 928 q 212 924 245 928 l 212 543 q 366 541 334 541 q 512 558 455 541 q 600 617 570 575 q 629 733 629 660 z "},"S":{"ha":737,"x_min":56,"x_max":679,"o":"m 679 268 q 603 71 679 151 q 347 -9 526 -9 q 206 7 281 -9 q 83 47 132 24 q 61 62 66 56 q 57 85 57 68 l 57 142 q 85 158 57 169 q 218 121 146 137 q 351 106 291 106 q 466 125 422 106 q 529 181 510 145 q 547 268 547 218 q 513 358 547 320 q 382 454 479 395 l 248 536 q 101 657 147 597 q 56 796 56 716 q 93 932 56 877 q 200 1015 130 988 q 363 1042 269 1042 q 507 1025 437 1042 q 614 991 578 1008 q 631 982 625 987 q 637 966 637 977 l 637 896 q 611 879 637 871 q 525 905 563 895 q 445 921 488 915 q 363 928 403 928 q 226 898 269 928 q 183 796 183 869 q 217 714 183 749 q 335 628 250 679 l 463 551 q 630 417 582 481 q 679 268 679 352 z "},"T":{"ha":800,"x_min":39,"x_max":761,"o":"m 761 946 q 734 924 761 924 l 464 924 l 464 28 q 457 8 464 16 q 439 0 450 0 l 363 0 q 345 8 352 0 q 338 28 338 16 l 338 924 l 66 924 q 39 946 39 924 l 39 1007 q 47 1024 39 1017 q 66 1032 56 1032 l 734 1032 q 753 1025 745 1032 q 761 1007 761 1018 l 761 946 z "},"U":{"ha":878,"x_min":83,"x_max":794,"o":"m 794 375 q 771 204 794 277 q 701 84 747 132 q 589 13 654 36 q 439 -9 524 -9 q 289 13 353 -9 q 178 84 224 36 q 107 204 132 132 q 83 375 83 277 l 83 1006 q 91 1024 83 1017 q 110 1032 99 1032 l 184 1032 q 203 1025 195 1032 q 211 1006 211 1018 l 211 375 q 262 167 211 235 q 439 98 314 98 q 573 130 523 98 q 645 221 624 161 q 667 375 667 282 l 667 1006 q 674 1024 667 1017 q 693 1032 682 1032 l 768 1032 q 787 1025 779 1032 q 794 1006 794 1017 l 794 375 z "},"V":{"ha":876,"x_min":39,"x_max":838,"o":"m 838 1008 q 836 1000 838 1003 l 581 96 q 525 14 564 37 q 439 -9 486 -9 q 297 96 327 -9 l 40 1000 q 39 1008 39 1003 q 46 1026 39 1019 q 64 1032 54 1032 l 144 1032 q 160 1026 152 1032 q 170 1011 168 1020 l 411 126 q 439 97 419 97 q 465 126 457 97 l 708 1011 q 732 1032 715 1032 l 814 1032 q 838 1008 838 1032 z "},"W":{"ha":1128,"x_min":39,"x_max":1089,"o":"m 1089 1008 l 1089 1004 l 935 65 q 906 9 928 24 q 848 -5 885 -5 l 789 -5 q 710 64 728 -5 l 574 578 q 564 590 570 590 q 554 578 557 590 l 416 64 q 388 14 408 33 q 338 -5 367 -5 l 279 -5 q 221 9 243 -5 q 193 65 200 24 l 39 1004 l 39 1008 q 45 1025 39 1019 q 62 1032 52 1032 l 143 1032 q 167 1008 163 1032 l 301 123 q 303 112 302 116 q 305 105 304 107 q 309 103 306 103 q 318 123 313 103 l 441 590 q 485 671 457 646 q 564 697 512 697 q 644 671 615 697 q 686 590 673 644 l 810 123 q 819 103 814 103 q 824 110 823 103 q 827 123 825 116 l 961 1008 q 985 1032 965 1032 l 1065 1032 q 1078 1029 1072 1032 q 1086 1021 1083 1026 q 1089 1008 1089 1015 z "},"X":{"ha":873,"x_min":52,"x_max":827,"o":"m 827 20 q 820 6 827 12 q 804 0 814 0 l 717 0 q 701 5 706 0 q 688 21 695 9 l 433 425 l 184 21 q 155 0 172 0 l 74 0 q 52 21 52 0 q 56 35 52 28 l 364 525 l 58 999 q 54 1013 54 1005 q 75 1032 54 1032 l 165 1032 q 191 1018 182 1032 l 440 623 l 682 1018 q 708 1032 691 1032 l 790 1032 q 807 1026 801 1032 q 812 1011 812 1021 q 808 999 812 1005 l 510 522 l 822 35 q 827 20 827 29 z "},"Y":{"ha":791,"x_min":39,"x_max":753,"o":"m 753 1013 q 749 997 753 1006 l 533 514 q 458 422 501 441 l 458 28 q 451 8 458 16 q 433 0 444 0 l 357 0 q 339 8 347 0 q 332 28 332 16 l 332 422 q 257 514 291 438 l 43 997 q 39 1013 39 1006 q 45 1026 39 1021 q 62 1032 52 1032 l 147 1032 q 162 1026 154 1032 q 172 1013 170 1019 l 364 562 q 396 526 380 526 q 428 562 412 526 l 621 1013 q 644 1032 631 1032 l 729 1032 q 746 1027 740 1032 q 753 1013 753 1021 z "},"Z":{"ha":800,"x_min":62,"x_max":741,"o":"m 741 25 q 732 7 741 14 q 713 0 724 0 l 178 0 q 87 20 111 0 q 62 94 62 39 q 83 175 62 144 l 581 899 q 585 909 585 905 q 571 920 585 920 l 110 920 q 90 926 98 920 q 82 943 82 932 l 82 1008 q 90 1025 82 1019 q 110 1032 98 1032 l 604 1032 q 694 1014 667 1032 q 722 940 722 995 q 716 897 722 920 q 700 859 711 873 l 204 135 q 200 122 200 129 q 214 114 200 114 l 713 114 q 732 107 724 114 q 741 90 741 101 l 741 25 z "},"[":{"ha":427,"x_min":89,"x_max":399,"o":"m 399 -241 q 390 -261 399 -253 q 371 -269 381 -269 l 113 -269 q 96 -261 102 -269 q 89 -243 89 -253 l 89 1006 q 96 1024 89 1016 q 113 1032 102 1032 l 371 1032 q 390 1023 381 1032 q 399 1004 399 1015 l 399 958 q 390 939 399 948 q 371 930 381 930 l 212 930 l 212 -168 l 371 -168 q 391 -176 382 -168 q 399 -196 399 -184 l 399 -241 z "},"\\":{"ha":482,"x_min":26,"x_max":457,"o":"m 457 20 q 452 5 457 11 q 437 0 446 0 l 367 0 q 342 28 350 0 l 28 1004 q 26 1013 26 1007 q 32 1026 26 1019 q 46 1032 37 1032 l 117 1032 q 140 1004 132 1032 l 456 28 q 457 20 457 25 z "},"]":{"ha":427,"x_min":28,"x_max":338,"o":"m 338 -243 q 331 -261 338 -253 q 314 -269 324 -269 l 56 -269 q 36 -261 44 -269 q 28 -241 28 -253 l 28 -196 q 36 -176 28 -184 q 56 -168 43 -168 l 214 -168 l 214 930 l 56 930 q 36 939 44 930 q 28 958 28 948 l 28 1004 q 36 1023 28 1015 q 56 1032 44 1032 l 314 1032 q 331 1024 324 1032 q 338 1006 338 1016 l 338 -243 z "},"^":{"ha":785,"x_min":113,"x_max":673,"o":"m 673 794 q 659 782 673 782 l 575 782 q 556 786 562 782 q 536 807 551 790 l 393 974 l 250 807 q 231 787 237 791 q 211 782 224 782 l 127 782 q 113 794 113 782 q 118 810 113 802 l 278 1017 q 297 1037 290 1032 q 319 1042 305 1042 l 467 1042 q 489 1037 481 1042 q 509 1017 498 1031 l 668 810 q 673 794 673 802 z "},"_":{"ha":703,"x_min":-33,"x_max":737,"o":"m 737 -136 q 710 -158 737 -158 l -5 -158 q -33 -136 -33 -158 l -33 -90 q -25 -74 -33 -80 q -5 -68 -18 -68 l 710 -68 q 737 -90 737 -68 l 737 -136 z "},"`":{"ha":471,"x_min":45,"x_max":326,"o":"m 326 875 q 314 865 326 865 l 239 865 q 227 867 232 865 q 218 873 222 869 q 207 886 214 878 l 50 1061 q 45 1072 45 1067 q 60 1082 45 1082 l 151 1082 q 186 1061 169 1082 l 321 889 q 326 875 326 884 z "},"a":{"ha":690,"x_min":54,"x_max":614,"o":"m 614 53 q 593 22 614 27 q 483 -1 538 7 q 358 -9 428 -9 q 125 45 196 -9 q 54 220 54 100 l 54 232 q 87 359 54 310 q 194 433 120 409 q 389 457 267 457 l 492 457 l 492 513 q 458 633 492 600 q 343 667 425 667 q 235 658 280 667 q 131 632 190 650 q 107 633 117 627 q 98 650 98 638 l 98 704 q 118 729 98 721 q 213 759 150 743 q 343 774 275 774 q 614 513 614 774 l 614 53 m 492 98 l 492 368 l 389 368 q 283 361 323 368 q 221 338 244 354 q 188 297 197 321 q 178 233 178 272 l 178 221 q 193 143 178 172 q 248 100 208 113 q 358 86 288 86 q 412 88 386 86 q 458 92 437 90 q 492 98 479 95 z "},"b":{"ha":720,"x_min":77,"x_max":664,"o":"m 664 334 q 589 81 664 172 q 361 -9 513 -9 q 106 14 228 -9 q 82 24 87 18 q 77 46 77 31 l 77 1018 q 83 1036 77 1028 q 102 1044 90 1044 l 172 1044 q 191 1037 183 1044 q 199 1018 199 1029 l 199 760 q 276 770 234 767 q 361 774 319 774 q 494 751 437 774 q 589 686 551 728 q 645 580 627 643 q 664 433 664 517 l 664 334 m 542 334 l 542 433 q 500 609 542 551 q 361 667 459 667 q 199 657 252 667 l 199 106 q 361 97 300 97 q 501 156 460 97 q 542 334 542 214 z "},"c":{"ha":603,"x_min":56,"x_max":553,"o":"m 351 -9 q 224 14 281 -9 q 130 81 168 37 q 74 186 92 125 q 56 328 56 248 l 56 436 q 89 617 56 541 q 188 733 121 692 q 351 774 255 774 q 458 760 408 774 q 533 732 509 746 q 549 720 545 725 q 553 703 553 715 l 553 653 q 521 635 553 624 q 351 667 431 667 q 178 436 178 667 l 178 328 q 222 155 178 213 q 351 97 267 97 q 521 129 431 97 q 553 111 553 140 l 553 61 q 549 43 553 49 q 533 32 545 38 q 457 4 507 18 q 351 -9 408 -9 z "},"d":{"ha":720,"x_min":56,"x_max":643,"o":"m 643 46 q 637 24 643 31 q 614 14 631 17 q 358 -9 492 -9 q 190 32 258 -9 q 89 152 121 74 q 56 334 56 230 l 56 433 q 74 579 56 517 q 130 685 93 642 q 225 751 168 728 q 358 774 282 774 q 521 760 445 774 l 521 1018 q 528 1037 521 1029 q 547 1044 536 1044 l 618 1044 q 636 1037 629 1044 q 643 1018 643 1029 l 643 46 m 521 106 l 521 657 q 448 665 487 663 q 358 667 410 667 q 219 608 260 667 q 178 433 178 550 l 178 334 q 219 156 178 214 q 358 97 260 97 q 521 106 418 97 z "},"e":{"ha":728,"x_min":56,"x_max":669,"o":"m 371 97 q 461 106 417 97 q 548 129 506 115 q 616 154 591 144 q 640 155 631 161 q 648 136 648 149 l 648 79 q 629 54 648 65 q 371 -9 509 -9 q 213 21 284 -9 q 99 126 142 52 q 56 323 56 201 l 56 449 q 137 687 56 600 q 364 774 218 774 q 531 734 463 774 q 635 621 600 694 q 669 449 669 547 l 669 374 q 643 343 669 343 l 178 343 l 178 323 q 225 150 178 203 q 371 97 272 97 m 546 436 l 546 449 q 526 574 546 526 q 466 645 506 623 q 364 667 426 667 q 178 449 178 667 l 178 436 l 546 436 z "},"f":{"ha":515,"x_min":28,"x_max":488,"o":"m 488 981 q 463 960 488 960 l 396 960 q 329 940 346 960 q 311 864 311 920 l 311 764 l 457 764 q 476 756 468 764 q 484 739 484 749 l 484 685 q 457 661 484 661 l 311 661 l 311 28 q 303 8 311 17 q 285 0 296 0 l 216 0 q 197 8 205 0 q 189 28 189 17 l 189 661 l 54 676 q 28 701 28 678 l 28 739 q 36 756 28 749 q 54 764 43 764 l 189 764 l 189 864 q 212 979 189 936 q 277 1039 234 1021 q 383 1057 319 1057 q 461 1048 422 1057 q 488 1026 488 1041 l 488 981 z "},"g":{"ha":720,"x_min":56,"x_max":643,"o":"m 345 -174 q 450 -159 412 -174 q 504 -107 487 -145 q 521 0 521 -70 l 521 9 q 446 -3 494 3 q 366 -9 397 -9 q 56 332 56 -9 l 56 433 q 90 625 56 549 q 193 737 123 700 q 366 774 262 774 q 614 742 475 774 q 637 732 631 739 q 643 710 643 726 l 643 0 q 568 -211 643 -149 q 345 -273 493 -273 q 210 -256 272 -273 q 117 -221 148 -239 q 97 -189 97 -209 l 97 -143 q 106 -125 97 -131 q 129 -125 115 -119 q 239 -163 199 -152 q 345 -174 279 -174 m 521 109 l 521 656 q 366 671 439 671 q 278 657 314 671 q 220 616 241 644 q 188 543 198 587 q 178 433 178 498 l 178 332 q 198 191 178 243 q 260 116 219 139 q 366 93 302 93 q 444 97 399 93 q 521 109 490 102 z "},"h":{"ha":737,"x_min":77,"x_max":661,"o":"m 661 28 q 652 8 661 16 q 633 0 644 0 l 567 0 q 547 8 555 0 q 539 28 539 16 l 539 485 q 501 626 539 585 q 390 667 463 667 q 296 657 352 667 q 199 628 239 647 l 199 28 q 190 8 199 17 q 171 0 182 0 l 103 0 q 85 8 93 0 q 77 28 77 16 l 77 1017 q 84 1037 77 1029 q 103 1044 92 1044 l 172 1044 q 192 1037 184 1044 q 199 1017 199 1029 l 199 730 q 304 763 247 752 q 411 774 361 774 q 543 744 486 774 q 630 648 599 713 q 661 485 661 583 l 661 28 z "},"i":{"ha":301,"x_min":87,"x_max":214,"o":"m 214 914 q 205 894 214 902 q 186 886 197 886 l 115 886 q 96 895 104 886 q 87 914 87 903 l 87 1025 q 95 1044 87 1036 q 115 1053 103 1053 l 186 1053 q 206 1045 199 1053 q 214 1025 214 1038 l 214 914 m 211 28 q 203 8 211 16 q 183 0 195 0 l 117 0 q 98 8 106 0 q 89 28 89 16 l 89 736 q 97 755 89 747 q 117 764 105 764 l 183 764 q 203 756 196 764 q 211 736 211 749 l 211 28 z "},"j":{"ha":301,"x_min":-62,"x_max":214,"o":"m 214 913 q 206 894 214 901 q 186 886 198 886 l 115 886 q 96 894 105 886 q 87 913 87 901 l 87 1025 q 95 1044 87 1036 q 115 1053 103 1053 l 186 1053 q 206 1045 198 1053 q 214 1025 214 1037 l 214 913 m 211 -89 q 168 -233 211 -192 q 37 -273 125 -273 q -37 -268 0 -273 q -62 -245 -62 -264 l -62 -195 q -33 -175 -62 -175 l 24 -175 q 76 -158 64 -175 q 89 -89 89 -142 l 89 736 q 96 755 89 747 q 114 764 102 764 l 186 764 q 204 756 198 764 q 211 736 211 749 l 211 -89 z "},"k":{"ha":661,"x_min":77,"x_max":623,"o":"m 623 18 q 607 0 623 0 l 507 0 q 491 3 497 0 q 475 18 486 7 l 199 359 l 199 28 q 190 8 199 16 q 171 0 181 0 l 104 0 q 85 8 93 0 q 77 28 77 16 l 77 1017 q 84 1036 77 1028 q 104 1044 92 1044 l 171 1044 q 191 1036 182 1044 q 199 1017 199 1028 l 199 439 l 476 751 q 504 764 488 764 l 602 764 q 623 749 623 764 q 615 733 623 741 l 310 403 l 618 31 q 623 18 623 26 z "},"l":{"ha":297,"x_min":87,"x_max":210,"o":"m 210 28 q 203 8 210 16 q 184 0 196 0 l 113 0 q 95 8 102 0 q 87 28 87 16 l 87 1018 q 94 1036 87 1028 q 113 1044 100 1044 l 184 1044 q 203 1037 196 1044 q 210 1018 210 1029 l 210 28 z "},"m":{"ha":1072,"x_min":77,"x_max":996,"o":"m 77 28 l 77 697 q 102 730 77 725 q 258 764 192 753 q 380 774 324 774 q 472 760 429 774 q 541 718 516 746 q 771 775 661 775 q 887 751 838 775 q 966 669 937 726 q 996 519 996 612 l 996 28 q 987 8 996 16 q 968 0 979 0 l 901 0 q 882 8 891 0 q 873 28 873 16 l 873 519 q 840 635 873 602 q 747 668 807 668 q 585 631 681 668 q 597 522 597 583 l 597 28 q 590 8 597 17 q 572 0 583 0 l 498 0 q 481 8 488 0 q 475 28 475 16 l 475 522 q 463 613 475 581 q 429 656 452 645 q 368 668 406 668 q 199 644 288 668 l 199 28 q 192 8 199 16 q 174 0 185 0 l 100 0 q 83 8 90 0 q 77 28 77 16 z "},"n":{"ha":737,"x_min":77,"x_max":661,"o":"m 661 484 l 661 28 q 652 8 661 16 q 633 0 644 0 l 567 0 q 547 8 555 0 q 539 28 539 16 l 539 484 q 523 593 539 553 q 470 652 506 634 q 378 669 435 669 q 199 644 292 669 l 199 28 q 190 8 199 17 q 171 0 182 0 l 103 0 q 85 8 93 0 q 77 28 77 16 l 77 697 q 102 730 77 723 q 389 774 271 774 q 520 754 467 774 q 605 699 574 735 q 648 609 635 662 q 661 484 661 557 z "},"o":{"ha":729,"x_min":56,"x_max":673,"o":"m 673 329 q 594 82 673 173 q 364 -9 514 -9 q 135 82 215 -9 q 56 329 56 173 l 56 435 q 135 683 56 591 q 364 774 215 774 q 594 683 514 774 q 673 435 673 591 l 673 329 m 551 329 l 551 435 q 531 559 551 507 q 470 639 511 611 q 364 667 428 667 q 224 606 270 667 q 178 435 178 545 l 178 329 q 364 97 178 97 q 505 157 458 97 q 551 329 551 218 z "},"p":{"ha":720,"x_min":77,"x_max":664,"o":"m 664 330 q 587 78 664 165 q 361 -9 511 -9 q 199 5 284 -9 l 199 -245 q 191 -264 199 -256 q 172 -272 183 -272 l 102 -272 q 83 -264 90 -272 q 77 -245 77 -257 l 77 710 q 83 731 77 724 q 106 742 89 738 q 185 758 140 751 q 274 770 231 766 q 361 774 318 774 q 530 732 462 774 q 631 613 597 690 q 664 431 664 536 l 664 330 m 542 330 l 542 431 q 525 559 542 507 q 468 642 508 612 q 361 671 427 671 q 199 657 276 671 l 199 107 q 361 93 272 93 q 500 153 458 93 q 542 330 542 212 z "},"q":{"ha":720,"x_min":56,"x_max":643,"o":"m 643 -245 q 636 -264 643 -257 q 618 -272 629 -272 l 547 -272 q 529 -264 536 -272 q 521 -245 521 -256 l 521 5 q 358 -9 437 -9 q 226 13 283 -9 q 132 79 170 35 q 75 185 94 123 q 56 330 56 248 l 56 431 q 74 572 56 509 q 130 681 92 635 q 224 750 168 727 q 358 774 280 774 q 614 742 481 774 q 637 732 631 739 q 643 710 643 726 l 643 -245 m 521 107 l 521 657 q 474 664 491 662 q 423 668 458 666 q 358 671 389 671 q 219 609 260 671 q 178 431 178 548 l 178 330 q 219 153 178 214 q 358 93 261 93 q 521 107 446 93 z "},"r":{"ha":504,"x_min":77,"x_max":482,"o":"m 364 775 q 458 768 419 775 q 478 759 473 766 q 482 739 482 753 l 482 689 q 477 670 482 675 q 456 665 471 665 q 364 668 408 668 q 199 647 277 668 l 199 28 q 190 8 199 17 q 171 0 182 0 l 103 0 q 85 8 93 0 q 77 28 77 16 l 77 700 q 102 733 77 726 q 244 765 181 755 q 364 775 307 775 z "},"s":{"ha":619,"x_min":56,"x_max":564,"o":"m 290 94 q 441 200 441 94 q 420 256 441 233 q 338 310 398 279 l 197 382 q 92 467 128 418 q 56 585 56 516 q 93 698 56 656 q 189 757 130 740 q 321 774 248 774 q 433 762 377 774 q 515 734 489 749 q 530 725 526 728 q 534 710 534 721 l 534 653 q 526 635 534 641 q 503 635 517 629 q 413 660 464 650 q 321 669 361 669 q 217 653 256 669 q 178 586 178 637 q 200 526 178 551 q 273 475 222 501 l 411 404 q 503 344 469 374 q 550 280 536 313 q 564 205 564 247 q 528 86 564 134 q 431 14 493 37 q 290 -9 370 -9 q 172 4 230 -9 q 82 35 114 18 q 62 60 62 45 l 62 117 q 71 135 62 129 q 94 135 80 141 q 290 94 198 94 z "},"t":{"ha":521,"x_min":28,"x_max":493,"o":"m 493 21 q 468 -3 493 1 q 378 -9 422 -9 q 233 29 276 -9 q 189 176 189 67 l 189 661 l 54 676 q 28 701 28 678 l 28 739 q 54 764 28 764 l 189 764 l 189 900 q 214 928 189 923 l 286 939 l 290 939 q 306 932 300 939 q 311 916 311 926 l 311 764 l 461 764 q 481 755 473 764 q 489 736 489 747 l 489 689 q 480 669 489 677 q 461 661 471 661 l 311 661 l 311 176 q 327 105 311 121 q 386 89 342 89 l 464 89 q 493 69 493 89 l 493 21 z "},"u":{"ha":737,"x_min":77,"x_max":661,"o":"m 77 281 l 77 736 q 84 755 77 747 q 104 764 92 764 l 171 764 q 191 755 182 764 q 199 736 199 747 l 199 281 q 236 136 199 178 q 359 94 274 94 q 446 102 391 94 q 539 119 500 109 l 539 736 q 547 755 539 747 q 567 764 555 764 l 635 764 q 654 755 646 764 q 661 736 661 747 l 661 66 q 636 33 661 41 q 349 -9 469 -9 q 186 24 246 -9 q 101 122 125 58 q 77 281 77 185 z "},"v":{"ha":717,"x_min":45,"x_max":672,"o":"m 672 741 q 671 730 672 734 l 484 69 q 440 8 471 26 q 358 -9 408 -9 q 278 8 309 -9 q 233 69 247 25 l 46 730 q 45 741 45 734 q 51 758 45 751 q 66 764 56 764 l 143 764 q 170 737 161 764 l 329 132 q 342 99 336 106 q 358 92 349 92 q 374 100 368 92 q 387 132 381 108 l 547 737 q 574 764 555 764 l 650 764 q 667 758 661 764 q 672 741 672 751 z "},"w":{"ha":1072,"x_min":43,"x_max":1029,"o":"m 1029 736 l 1029 730 l 895 86 q 874 21 885 40 q 844 -3 863 3 q 778 -9 824 -9 q 720 -3 740 -9 q 688 25 700 4 q 664 90 675 45 l 543 562 q 536 572 541 572 q 532 571 533 572 q 529 562 531 569 l 408 90 q 371 10 393 30 q 294 -9 349 -9 q 230 -3 251 -9 q 198 21 209 3 q 178 86 187 40 l 43 730 l 43 736 q 50 755 43 747 q 69 764 58 764 l 144 764 q 160 757 153 764 q 168 742 167 751 l 283 109 q 294 92 286 92 q 306 109 301 92 l 441 642 q 497 684 454 684 l 575 684 q 631 642 619 684 l 766 109 q 778 92 771 92 q 789 109 786 92 l 904 742 q 912 757 905 751 q 928 764 920 764 l 1003 764 q 1022 755 1015 764 q 1029 736 1029 747 z "},"x":{"ha":739,"x_min":45,"x_max":699,"o":"m 699 16 q 681 0 699 0 l 585 0 q 566 11 573 0 l 367 301 l 168 14 q 144 0 159 0 l 61 0 q 45 14 45 0 q 52 32 45 24 l 301 389 l 65 729 q 58 747 58 741 q 79 764 58 764 l 170 764 q 197 745 184 764 l 374 484 l 551 745 q 565 761 560 758 q 581 764 570 764 l 661 764 q 679 747 679 764 q 672 729 679 741 l 439 397 l 693 32 q 699 16 699 24 z "},"y":{"ha":722,"x_min":45,"x_max":677,"o":"m 677 741 q 676 730 677 733 l 447 -69 q 396 -192 425 -149 q 320 -255 368 -235 q 193 -275 273 -275 q 77 -262 132 -275 q 47 -240 47 -256 l 47 -189 q 74 -167 47 -167 l 78 -167 q 201 -175 170 -175 q 293 -151 263 -175 q 339 -57 322 -127 l 353 0 l 334 0 q 273 18 296 0 q 231 96 249 35 l 46 730 q 45 741 45 733 q 69 764 45 764 l 146 764 q 161 757 154 764 q 170 742 168 750 l 334 139 q 359 109 341 109 l 382 109 l 551 743 q 561 758 553 752 q 578 764 568 764 l 656 764 q 677 741 677 764 z "},"z":{"ha":643,"x_min":56,"x_max":587,"o":"m 587 28 q 579 8 587 16 q 559 0 571 0 l 140 0 q 77 22 99 0 q 56 77 56 44 l 56 103 q 63 151 56 132 q 87 193 70 170 l 446 639 q 452 652 452 646 q 437 661 452 661 l 100 661 q 81 669 90 661 q 72 689 72 677 l 72 736 q 80 755 72 747 q 100 764 88 764 l 509 764 q 586 696 586 764 l 586 663 q 554 586 586 624 l 189 129 q 182 114 182 122 q 193 103 182 103 l 559 103 q 579 95 571 103 q 587 75 587 87 l 587 28 z "},"{":{"ha":447,"x_min":22,"x_max":416,"o":"m 416 -241 q 408 -262 416 -254 q 389 -269 400 -269 l 318 -269 q 186 -252 232 -269 q 123 -194 141 -235 q 106 -78 106 -153 l 106 167 q 89 269 106 233 q 22 340 71 306 l 22 421 q 89 493 72 456 q 106 593 106 529 l 106 840 q 124 957 106 916 q 187 1015 142 998 q 318 1032 232 1032 l 387 1032 q 407 1024 399 1032 q 415 1004 415 1016 l 415 958 q 407 939 415 947 q 387 930 399 930 l 325 930 q 247 913 264 930 q 229 840 229 897 l 229 593 q 207 467 229 518 q 131 379 184 416 q 207 292 184 341 q 229 167 229 242 l 229 -78 q 233 -125 229 -109 q 246 -151 237 -141 q 275 -164 256 -160 q 325 -168 295 -168 l 389 -168 q 409 -176 401 -168 q 416 -196 416 -184 l 416 -241 z "},"|":{"ha":591,"x_min":0,"x_max":1535,"o":"m 997 1014 q 1521 752 1436 1001 q 1535 667 1535 710 l 1535 650 q 1375 371 1535 490 q 1303 337 1322 337 l 1303 418 q 1453 650 1453 526 l 1453 673 q 1184 936 1453 854 q 983 956 1080 956 l 970 956 q 337 800 657 956 l 334 803 l 334 827 q 606 953 407 884 q 997 1014 815 1014 m 1174 776 l 1245 776 l 1252 769 l 1252 344 l 1245 337 q 1167 432 1175 337 l 1167 769 l 1174 776 m 231 766 l 299 766 l 307 759 l 307 694 l 299 687 l 231 687 l 224 694 l 224 759 l 231 766 m 694 732 l 762 732 l 769 725 l 769 646 l 820 646 l 827 640 l 827 589 l 820 582 l 769 582 l 769 429 q 783 405 769 411 l 820 405 l 827 398 l 827 340 l 820 334 l 789 334 q 687 425 687 334 l 687 725 l 694 732 m 167 722 l 170 718 l 170 680 q 64 418 64 553 q 398 119 64 174 q 578 106 469 106 q 1272 275 953 106 l 1276 272 l 1276 163 q 1014 58 1211 113 q 595 0 810 0 l 589 0 q 14 292 118 0 q 0 398 0 358 q 167 722 0 571 m 990 653 q 1116 562 1083 653 q 1126 490 1126 526 l 1126 473 l 1120 466 l 926 466 q 1000 398 926 398 q 1065 425 1034 398 l 1068 425 l 1116 381 q 1010 330 1071 330 l 980 330 q 847 452 876 330 l 844 493 q 990 653 860 653 m 231 646 l 299 646 l 307 640 l 307 337 l 302 334 l 302 330 q 224 405 224 346 l 224 640 l 231 646 m 381 646 l 545 646 q 633 531 633 646 l 633 340 l 626 334 l 555 334 l 548 340 l 548 565 q 521 582 539 582 l 456 582 l 456 340 l 449 334 l 381 334 l 374 340 l 374 640 l 381 646 m 926 521 l 1044 521 l 1044 524 q 990 585 1037 585 l 987 585 q 926 521 932 585 m 1367 751 q 1361 733 1367 741 q 1349 720 1356 725 q 1332 715 1341 715 q 1314 720 1322 715 q 1301 733 1305 725 q 1296 751 1296 741 q 1301 768 1296 760 q 1314 781 1305 777 q 1332 786 1322 786 q 1349 781 1341 786 q 1361 768 1356 777 q 1367 751 1367 760 m 1359 751 q 1351 770 1359 762 q 1332 779 1343 779 q 1312 770 1320 779 q 1304 751 1304 762 q 1308 736 1304 743 q 1318 727 1312 730 q 1332 723 1324 723 q 1345 727 1339 723 q 1355 736 1352 730 q 1359 751 1359 743 m 1325 746 l 1325 733 q 1324 730 1325 730 l 1319 730 q 1316 733 1316 730 l 1316 768 q 1319 772 1316 770 q 1331 772 1324 772 q 1348 760 1348 772 q 1339 747 1348 750 l 1348 734 q 1348 732 1348 733 q 1346 730 1348 730 l 1341 730 q 1339 732 1339 730 l 1331 746 l 1325 746 m 1325 753 l 1329 753 q 1337 754 1335 753 q 1339 759 1339 755 q 1329 766 1339 766 l 1325 766 l 1325 753 z "},"}":{"ha":447,"x_min":31,"x_max":425,"o":"m 425 340 q 359 269 376 306 q 342 167 342 232 l 342 -78 q 324 -194 342 -154 q 261 -252 306 -235 q 129 -269 216 -269 l 58 -269 q 39 -261 47 -269 q 31 -241 31 -253 l 31 -196 q 38 -176 31 -184 q 58 -168 46 -168 l 122 -168 q 201 -151 183 -168 q 218 -78 218 -134 l 218 167 q 228 255 218 217 q 259 323 237 292 q 317 379 281 354 q 240 468 262 417 q 218 593 218 518 l 218 840 q 201 913 218 897 q 122 930 183 930 l 60 930 q 41 939 50 930 q 32 958 32 948 l 32 1004 q 41 1023 32 1015 q 60 1032 50 1032 l 129 1032 q 260 1015 216 1032 q 323 957 305 998 q 342 840 342 916 l 342 593 q 359 493 342 530 q 425 421 376 456 l 425 340 z "},"~":{"ha":791,"x_min":100,"x_max":692,"o":"m 692 648 q 655 513 692 557 q 538 468 619 468 q 431 507 481 468 l 322 593 q 283 623 296 615 q 257 631 270 631 q 212 612 222 631 q 201 551 201 593 l 201 515 q 192 493 201 502 q 171 485 183 485 l 131 485 q 109 493 118 485 q 100 515 100 502 l 100 551 q 140 688 100 642 q 257 734 181 734 q 363 696 313 734 q 481 602 435 636 q 512 582 496 589 q 538 574 528 574 q 581 589 572 574 q 590 648 590 604 l 590 688 q 599 709 590 700 q 621 718 608 718 l 661 718 q 677 714 670 718 q 688 703 684 710 q 692 688 692 696 l 692 648 z "},"¨":{"ha":694,"x_min":0,"x_max":0,"o":""},"©":{"ha":484,"x_min":45,"x_max":456,"o":"m 146 842 l 146 852 q 250 974 146 974 q 314 960 287 974 q 323 943 323 955 l 323 929 q 306 917 323 910 q 250 926 261 926 q 210 909 223 926 q 197 852 197 892 l 197 842 q 211 785 197 802 q 250 768 224 768 q 272 770 261 768 q 292 774 282 772 q 306 778 302 777 q 323 765 323 785 l 323 751 q 314 734 323 740 q 250 721 288 721 q 146 842 146 721 m 456 844 q 427 740 456 787 q 352 666 399 693 q 250 639 304 639 q 148 666 195 639 q 72 741 100 693 q 45 844 45 788 q 72 947 45 899 q 147 1022 100 994 q 250 1050 195 1050 q 352 1022 305 1050 q 427 947 399 995 q 456 844 456 900 m 410 844 q 363 958 410 910 q 250 1006 317 1006 q 137 958 183 1006 q 90 844 90 910 q 111 763 90 800 q 169 705 132 726 q 250 684 205 684 q 331 705 295 684 q 388 762 367 726 q 410 844 410 799 z "},"®":{"ha":484,"x_min":45,"x_max":456,"o":"m 456 844 q 427 740 456 787 q 352 666 399 693 q 250 639 304 639 q 148 666 195 639 q 72 741 100 693 q 45 844 45 788 q 72 947 45 899 q 147 1022 100 994 q 250 1050 195 1050 q 352 1022 305 1050 q 427 947 399 995 q 456 844 456 900 m 410 844 q 363 958 410 910 q 250 1006 317 1006 q 137 958 183 1006 q 90 844 90 910 q 111 763 90 800 q 169 705 132 726 q 250 684 205 684 q 331 705 295 684 q 388 762 367 726 q 410 844 410 799 m 215 818 l 215 745 q 201 730 215 730 l 176 730 q 164 745 164 730 l 164 947 q 179 965 164 962 q 244 968 205 968 q 343 895 343 968 q 297 827 343 843 l 345 749 q 348 736 349 742 q 339 730 346 730 l 304 730 q 292 739 296 730 l 245 818 l 215 818 m 214 857 l 239 857 q 281 865 269 857 q 293 893 293 872 q 239 929 293 929 l 214 929 l 214 857 z "},"™":{"ha":701,"x_min":28,"x_max":644,"o":"m 290 997 q 275 985 290 985 l 187 985 l 187 682 q 174 668 187 668 l 144 668 q 131 682 131 668 l 131 985 l 41 985 q 28 997 28 985 l 28 1019 q 41 1034 28 1034 l 275 1034 q 286 1030 281 1034 q 290 1019 290 1026 l 290 997 m 486 812 q 456 823 467 812 q 435 852 444 833 l 382 966 l 380 966 l 380 677 q 371 668 380 668 l 338 668 q 328 677 328 668 l 328 1018 q 332 1027 328 1023 q 342 1032 337 1032 l 397 1032 q 412 1023 409 1032 l 481 867 q 486 861 483 861 q 492 867 490 861 l 559 1023 q 575 1032 563 1032 l 631 1032 q 640 1028 635 1032 q 644 1018 644 1023 l 644 677 q 635 668 644 668 l 602 668 q 591 677 591 668 l 591 966 l 590 966 l 538 852 q 517 823 528 833 q 486 812 505 812 z "},"´":{"ha":694,"x_min":0,"x_max":0,"o":""},"¶":{"ha":694,"x_min":63,"x_max":630,"o":"m 630 973 l 630 926 l 544 926 l 544 0 l 488 0 l 488 926 l 376 926 l 376 0 l 319 0 l 319 500 q 132 570 201 506 q 63 736 63 634 q 136 908 63 843 q 330 973 209 973 l 630 973 z "},"¼":{"ha":1013,"x_min":47,"x_max":962,"o":"m 833 1021 q 827 1002 833 1015 l 249 24 q 233 1 239 7 q 215 -5 226 -5 l 147 -5 q 132 8 132 -5 q 138 26 132 10 l 714 1004 q 731 1027 724 1021 q 749 1032 737 1032 l 819 1032 q 833 1021 833 1032 m 257 479 q 240 461 257 461 l 178 461 q 163 479 163 461 l 163 936 l 65 893 q 47 903 47 884 l 47 961 q 58 977 47 971 l 158 1022 q 195 1032 179 1032 l 239 1032 q 257 1015 257 1032 l 257 479 m 962 160 q 943 142 962 142 l 890 142 l 890 21 q 885 7 890 14 q 872 0 880 0 l 814 0 q 796 21 796 0 l 796 142 l 585 142 q 566 160 566 142 l 566 220 q 574 256 566 244 l 790 561 q 810 571 798 571 l 871 571 q 890 553 890 571 l 890 221 l 943 221 q 957 216 951 221 q 962 203 962 211 l 962 160 m 796 221 l 796 425 q 794 428 796 428 q 790 425 792 428 l 656 232 q 660 221 648 221 l 796 221 z "},"½":{"ha":1022,"x_min":47,"x_max":972,"o":"m 257 479 q 240 461 257 461 l 178 461 q 163 479 163 461 l 163 936 l 65 893 q 53 891 58 890 q 47 900 47 893 l 47 961 q 58 977 47 971 l 158 1022 q 195 1032 179 1032 l 239 1032 q 257 1015 257 1032 l 257 479 m 972 443 q 961 381 972 410 q 925 327 949 353 q 867 277 901 300 l 796 227 q 738 178 757 199 q 713 138 719 157 q 707 89 707 118 l 707 85 l 947 85 q 962 80 956 85 q 968 68 968 76 l 968 17 q 962 4 968 9 q 947 0 956 0 l 636 0 q 623 5 629 0 q 616 20 616 11 l 616 75 q 645 195 616 145 q 742 292 674 245 l 818 343 q 864 386 852 367 q 876 431 876 404 q 856 479 876 467 q 786 492 836 492 q 644 467 736 492 q 625 482 625 461 l 625 517 q 639 541 625 533 q 798 575 715 575 q 891 561 852 575 q 951 517 930 547 q 972 443 972 488 m 833 1021 q 827 1002 833 1015 l 249 24 q 233 1 239 7 q 215 -5 226 -5 l 147 -5 q 132 8 132 -5 q 138 26 132 10 l 714 1004 q 731 1027 724 1021 q 749 1032 737 1032 l 819 1032 q 833 1021 833 1032 z "},"¾":{"ha":1122,"x_min":47,"x_max":1071,"o":"m 1071 160 q 1051 142 1071 142 l 999 142 l 999 21 q 994 7 999 14 q 981 0 988 0 l 922 0 q 904 21 904 0 l 904 142 l 693 142 q 673 160 673 142 l 673 220 q 682 256 673 244 l 899 561 q 918 571 905 571 l 979 571 q 999 553 999 571 l 999 221 l 1051 221 q 1065 216 1059 221 q 1071 203 1071 211 l 1071 160 m 904 221 l 904 425 q 902 428 904 428 q 899 425 901 428 l 764 232 q 768 221 756 221 l 904 221 m 924 1021 q 917 1002 924 1015 l 339 24 q 323 1 330 7 q 306 -5 316 -5 l 237 -5 q 222 8 222 -5 q 228 26 222 10 l 804 1004 q 821 1027 814 1021 q 839 1032 827 1032 l 909 1032 q 924 1021 924 1032 m 199 461 q 61 489 120 461 q 47 513 47 496 l 47 547 q 66 562 47 569 q 130 550 94 555 q 195 545 165 545 q 279 564 253 545 q 304 627 304 584 l 304 642 q 224 724 304 724 l 86 724 q 73 729 79 724 q 66 742 66 734 l 66 785 q 86 803 66 803 l 221 803 q 288 824 271 803 q 304 879 304 846 l 304 888 q 195 958 304 958 q 66 940 131 958 q 47 956 47 935 l 47 990 q 61 1014 47 1007 q 204 1042 120 1042 q 347 1008 297 1042 q 397 896 397 974 l 397 886 q 334 762 397 806 q 396 642 396 722 l 396 627 q 342 505 396 548 q 199 461 289 463 z "},"À":{"ha":865,"x_min":33,"x_max":832,"o":"m 832 22 q 808 0 832 0 l 726 0 q 703 21 707 0 l 612 340 l 253 340 l 164 21 q 154 6 162 12 q 139 0 146 0 l 57 0 q 40 6 47 0 q 33 22 33 13 q 35 32 33 29 l 292 936 q 348 1018 309 995 q 433 1042 387 1042 q 490 1033 463 1042 q 540 1000 517 1023 q 574 937 562 977 l 831 32 q 832 22 832 29 m 586 450 l 460 907 q 433 932 453 932 q 406 907 412 932 l 279 450 l 586 450 m 528 1113 q 515 1103 528 1103 l 440 1103 q 429 1105 433 1103 q 420 1112 424 1107 q 408 1124 416 1116 l 252 1299 q 246 1310 246 1305 q 261 1320 246 1320 l 353 1320 q 387 1299 370 1320 l 522 1127 q 528 1113 528 1122 z "},"Á":{"ha":865,"x_min":33,"x_max":832,"o":"m 832 22 q 808 0 832 0 l 726 0 q 703 21 707 0 l 612 340 l 253 340 l 164 21 q 154 6 162 12 q 139 0 146 0 l 57 0 q 40 6 47 0 q 33 22 33 13 q 35 32 33 29 l 292 936 q 348 1018 309 995 q 433 1042 387 1042 q 490 1033 463 1042 q 540 1000 517 1023 q 574 937 562 977 l 831 32 q 832 22 832 29 m 586 450 l 460 907 q 433 932 453 932 q 406 907 412 932 l 279 450 l 586 450 m 644 1310 q 639 1299 644 1305 l 481 1124 q 465 1107 469 1111 q 450 1103 460 1103 l 374 1103 q 362 1113 362 1103 q 368 1127 362 1122 l 504 1299 q 520 1316 515 1313 q 537 1320 526 1320 l 629 1320 q 644 1310 644 1320 z "},"Ả":{"ha":865,"x_min":33,"x_max":832,"o":"m 832 22 q 808 0 832 0 l 726 0 q 703 21 707 0 l 612 340 l 253 340 l 164 21 q 154 6 162 12 q 139 0 146 0 l 57 0 q 40 6 47 0 q 33 22 33 13 q 35 32 33 29 l 292 936 q 348 1018 309 995 q 433 1042 387 1042 q 490 1033 463 1042 q 540 1000 517 1023 q 574 937 562 977 l 831 32 q 832 22 832 29 m 586 450 l 460 907 q 433 932 453 932 q 406 907 412 932 l 279 450 l 586 450 m 460 1349 q 446 1349 460 1349 q 411 1344 432 1349 q 359 1330 390 1340 q 320 1350 320 1317 l 320 1378 q 327 1393 320 1388 q 340 1401 333 1398 q 389 1417 357 1409 q 454 1424 421 1424 q 553 1400 515 1424 q 590 1322 590 1375 l 590 1316 q 585 1285 590 1300 q 568 1253 581 1270 q 534 1209 556 1235 l 508 1180 q 489 1157 492 1162 q 484 1146 486 1153 q 481 1128 481 1139 l 481 1100 q 472 1082 481 1090 q 449 1074 463 1074 l 424 1074 q 401 1083 410 1074 q 393 1100 393 1091 l 393 1128 q 396 1163 393 1149 q 409 1192 400 1178 q 434 1223 418 1206 l 460 1253 q 486 1288 480 1275 q 492 1316 492 1300 l 492 1322 q 460 1349 489 1349 z "},"Ã":{"ha":865,"x_min":33,"x_max":832,"o":"m 832 22 q 808 0 832 0 l 726 0 q 703 21 707 0 l 612 340 l 253 340 l 164 21 q 154 6 162 12 q 139 0 146 0 l 57 0 q 40 6 47 0 q 33 22 33 13 q 35 32 33 29 l 292 936 q 348 1018 309 995 q 433 1042 387 1042 q 490 1033 463 1042 q 540 1000 517 1023 q 574 937 562 977 l 831 32 q 832 22 832 29 m 586 450 l 460 907 q 433 932 453 932 q 406 907 412 932 l 279 450 l 586 450 m 684 1242 q 652 1132 684 1168 q 553 1096 621 1096 q 464 1125 501 1096 l 379 1193 q 346 1218 356 1213 q 322 1223 335 1223 q 289 1208 298 1223 q 279 1160 279 1192 l 279 1131 q 273 1114 279 1120 q 256 1107 266 1107 l 212 1107 q 196 1114 203 1107 q 190 1131 190 1121 l 190 1160 q 225 1272 190 1234 q 322 1311 260 1311 q 406 1278 363 1311 l 504 1200 q 530 1186 517 1191 q 553 1181 543 1181 q 584 1194 574 1181 q 594 1242 594 1208 l 594 1274 q 601 1290 594 1283 q 618 1297 608 1297 l 661 1297 q 677 1290 670 1297 q 684 1274 684 1282 l 684 1242 z "},"Ạ":{"ha":865,"x_min":33,"x_max":832,"o":"m 832 22 q 808 0 832 0 l 726 0 q 703 21 707 0 l 612 340 l 253 340 l 164 21 q 154 6 162 12 q 139 0 146 0 l 57 0 q 40 6 47 0 q 33 22 33 13 q 35 32 33 29 l 292 936 q 348 1018 309 995 q 433 1042 387 1042 q 490 1033 463 1042 q 540 1000 517 1023 q 574 937 562 977 l 831 32 q 832 22 832 29 m 586 450 l 460 907 q 433 932 453 932 q 406 907 412 932 l 279 450 l 586 450 m 488 -199 q 479 -218 488 -211 q 460 -226 471 -226 l 406 -226 q 387 -218 395 -226 q 378 -199 378 -211 l 378 -87 q 387 -68 378 -77 q 406 -59 395 -59 l 460 -59 q 479 -68 471 -59 q 488 -87 488 -77 l 488 -199 z "},"Â":{"ha":865,"x_min":33,"x_max":832,"o":"m 832 22 q 808 0 832 0 l 726 0 q 703 21 707 0 l 612 340 l 253 340 l 164 21 q 154 6 162 12 q 139 0 146 0 l 57 0 q 40 6 47 0 q 33 22 33 13 q 35 32 33 29 l 292 936 q 348 1018 309 995 q 433 1042 387 1042 q 490 1033 463 1042 q 540 1000 517 1023 q 574 937 562 977 l 831 32 q 832 22 832 29 m 586 450 l 460 907 q 433 932 453 932 q 406 907 412 932 l 279 450 l 586 450 m 671 1113 q 658 1103 671 1103 l 586 1103 q 571 1107 576 1103 q 554 1124 566 1111 l 440 1259 l 325 1124 q 308 1107 313 1112 q 293 1103 302 1103 l 220 1103 q 208 1113 208 1103 q 214 1127 208 1122 l 347 1299 q 363 1316 358 1313 q 380 1320 369 1320 l 498 1320 q 533 1299 516 1320 l 665 1127 q 671 1113 671 1122 z "},"Ầ":{"ha":865,"x_min":33,"x_max":832,"o":"m 832 22 q 808 0 832 0 l 726 0 q 703 21 707 0 l 612 340 l 253 340 l 164 21 q 154 6 162 12 q 139 0 146 0 l 57 0 q 40 6 47 0 q 33 22 33 13 q 35 32 33 29 l 292 936 q 348 1018 309 995 q 433 1042 387 1042 q 490 1033 463 1042 q 540 1000 517 1023 q 574 937 562 977 l 831 32 q 832 22 832 29 m 586 450 l 460 907 q 433 932 453 932 q 406 907 412 932 l 279 450 l 586 450 m 698 1270 q 686 1260 698 1260 l 610 1260 q 599 1262 604 1260 q 590 1268 594 1264 q 578 1281 586 1272 l 422 1456 q 416 1467 416 1461 q 431 1476 416 1476 l 523 1476 q 557 1456 541 1476 l 692 1284 q 698 1270 698 1278 m 671 1113 q 658 1103 671 1103 l 586 1103 q 571 1107 576 1103 q 554 1124 566 1111 l 440 1259 l 325 1124 q 308 1107 313 1112 q 293 1103 302 1103 l 220 1103 q 208 1113 208 1103 q 214 1127 208 1122 l 347 1299 q 363 1316 358 1313 q 380 1320 369 1320 l 498 1320 q 533 1299 516 1320 l 665 1127 q 671 1113 671 1122 z "},"Ấ":{"ha":865,"x_min":33,"x_max":890,"o":"m 832 22 q 808 0 832 0 l 726 0 q 703 21 707 0 l 612 340 l 253 340 l 164 21 q 154 6 162 12 q 139 0 146 0 l 57 0 q 40 6 47 0 q 33 22 33 13 q 35 32 33 29 l 292 936 q 348 1018 309 995 q 433 1042 387 1042 q 490 1033 463 1042 q 540 1000 517 1023 q 574 937 562 977 l 831 32 q 832 22 832 29 m 586 450 l 460 907 q 433 932 453 932 q 406 907 412 932 l 279 450 l 586 450 m 890 1467 q 884 1456 890 1461 l 727 1281 q 710 1264 715 1267 q 695 1260 705 1260 l 620 1260 q 608 1270 608 1260 q 613 1284 608 1278 l 749 1456 q 766 1473 760 1470 q 783 1476 771 1476 l 874 1476 q 890 1467 890 1476 m 671 1113 q 658 1103 671 1103 l 586 1103 q 571 1107 576 1103 q 554 1124 566 1111 l 440 1259 l 325 1124 q 308 1107 313 1112 q 293 1103 302 1103 l 220 1103 q 208 1113 208 1103 q 214 1127 208 1122 l 347 1299 q 363 1316 358 1313 q 380 1320 369 1320 l 498 1320 q 533 1299 516 1320 l 665 1127 q 671 1113 671 1122 z "},"Ẩ":{"ha":865,"x_min":33,"x_max":832,"o":"m 832 22 q 808 0 832 0 l 726 0 q 703 21 707 0 l 612 340 l 253 340 l 164 21 q 154 6 162 12 q 139 0 146 0 l 57 0 q 40 6 47 0 q 33 22 33 13 q 35 32 33 29 l 292 936 q 348 1018 309 995 q 433 1042 387 1042 q 490 1033 463 1042 q 540 1000 517 1023 q 574 937 562 977 l 831 32 q 832 22 832 29 m 586 450 l 460 907 q 433 932 453 932 q 406 907 412 932 l 279 450 l 586 450 m 665 1526 q 650 1526 665 1526 q 615 1521 636 1526 q 563 1507 594 1517 q 524 1527 524 1494 l 524 1555 q 531 1570 524 1565 q 544 1578 537 1575 q 593 1594 562 1586 q 659 1601 625 1601 q 757 1577 720 1601 q 794 1499 794 1552 l 794 1493 q 789 1462 794 1477 q 772 1430 785 1447 q 738 1386 760 1412 l 712 1357 q 693 1334 696 1339 q 688 1323 690 1330 q 685 1305 685 1316 l 685 1277 q 676 1259 685 1267 q 653 1251 667 1251 l 628 1251 q 605 1260 614 1251 q 597 1277 597 1268 l 597 1305 q 601 1340 597 1326 q 613 1369 604 1355 q 638 1400 623 1383 l 665 1430 q 690 1465 684 1452 q 696 1493 696 1477 l 696 1499 q 665 1526 693 1526 m 671 1113 q 658 1103 671 1103 l 586 1103 q 571 1107 576 1103 q 554 1124 566 1111 l 440 1259 l 325 1124 q 308 1107 313 1112 q 293 1103 302 1103 l 220 1103 q 208 1113 208 1103 q 214 1127 208 1122 l 347 1299 q 363 1316 358 1313 q 380 1320 369 1320 l 498 1320 q 533 1299 516 1320 l 665 1127 q 671 1113 671 1122 z "},"Ẫ":{"ha":865,"x_min":33,"x_max":832,"o":"m 832 22 q 808 0 832 0 l 726 0 q 703 21 707 0 l 612 340 l 253 340 l 164 21 q 154 6 162 12 q 139 0 146 0 l 57 0 q 40 6 47 0 q 33 22 33 13 q 35 32 33 29 l 292 936 q 348 1018 309 995 q 433 1042 387 1042 q 490 1033 463 1042 q 540 1000 517 1023 q 574 937 562 977 l 831 32 q 832 22 832 29 m 586 450 l 460 907 q 433 932 453 932 q 406 907 412 932 l 279 450 l 586 450 m 758 1473 q 727 1363 758 1400 q 627 1327 696 1327 q 538 1356 576 1327 l 454 1424 q 420 1449 431 1444 q 397 1455 410 1455 q 363 1439 373 1455 q 354 1391 354 1423 l 354 1362 q 347 1345 354 1352 q 330 1338 340 1338 l 287 1338 q 271 1345 277 1338 q 264 1362 264 1352 l 264 1391 q 299 1503 264 1465 q 397 1542 334 1542 q 480 1509 437 1542 l 578 1432 q 605 1417 592 1422 q 627 1412 618 1412 q 659 1426 649 1412 q 669 1473 669 1439 l 669 1505 q 676 1521 669 1514 q 692 1529 683 1529 l 736 1529 q 751 1521 745 1529 q 758 1505 758 1514 l 758 1473 m 671 1113 q 658 1103 671 1103 l 586 1103 q 571 1107 576 1103 q 554 1124 566 1111 l 440 1259 l 325 1124 q 308 1107 313 1112 q 293 1103 302 1103 l 220 1103 q 208 1113 208 1103 q 214 1127 208 1122 l 347 1299 q 363 1316 358 1313 q 380 1320 369 1320 l 498 1320 q 533 1299 516 1320 l 665 1127 q 671 1113 671 1122 z "},"Ậ":{"ha":865,"x_min":33,"x_max":832,"o":"m 832 22 q 808 0 832 0 l 726 0 q 703 21 707 0 l 612 340 l 253 340 l 164 21 q 154 6 162 12 q 139 0 146 0 l 57 0 q 40 6 47 0 q 33 22 33 13 q 35 32 33 29 l 292 936 q 348 1018 309 995 q 433 1042 387 1042 q 490 1033 463 1042 q 540 1000 517 1023 q 574 937 562 977 l 831 32 q 832 22 832 29 m 586 450 l 460 907 q 433 932 453 932 q 406 907 412 932 l 279 450 l 586 450 m 488 -199 q 479 -218 488 -211 q 460 -226 471 -226 l 406 -226 q 387 -218 395 -226 q 378 -199 378 -211 l 378 -87 q 387 -68 378 -77 q 406 -59 395 -59 l 460 -59 q 479 -68 471 -59 q 488 -87 488 -77 l 488 -199 m 671 1113 q 658 1103 671 1103 l 586 1103 q 571 1107 576 1103 q 554 1124 566 1111 l 440 1259 l 325 1124 q 308 1107 313 1112 q 293 1103 302 1103 l 220 1103 q 208 1113 208 1103 q 214 1127 208 1122 l 347 1299 q 363 1316 358 1313 q 380 1320 369 1320 l 498 1320 q 533 1299 516 1320 l 665 1127 q 671 1113 671 1122 z "},"Ă":{"ha":865,"x_min":33,"x_max":832,"o":"m 832 22 q 808 0 832 0 l 726 0 q 703 21 707 0 l 612 340 l 253 340 l 164 21 q 154 6 162 12 q 139 0 146 0 l 57 0 q 40 6 47 0 q 33 22 33 13 q 35 32 33 29 l 292 936 q 348 1018 309 995 q 433 1042 387 1042 q 490 1033 463 1042 q 540 1000 517 1023 q 574 937 562 977 l 831 32 q 832 22 832 29 m 586 450 l 460 907 q 433 932 453 932 q 406 907 412 932 l 279 450 l 586 450 m 640 1263 l 640 1257 q 604 1156 635 1198 q 526 1093 573 1114 q 427 1072 478 1072 q 327 1093 374 1072 q 248 1156 279 1114 q 212 1257 217 1197 l 212 1263 q 227 1279 212 1279 l 275 1279 q 295 1259 293 1279 q 338 1181 300 1208 q 427 1154 376 1154 q 514 1181 476 1154 q 557 1259 553 1209 q 576 1279 559 1279 l 625 1279 q 640 1263 640 1279 z "},"Ằ":{"ha":865,"x_min":33,"x_max":832,"o":"m 832 22 q 808 0 832 0 l 726 0 q 703 21 707 0 l 612 340 l 253 340 l 164 21 q 154 6 162 12 q 139 0 146 0 l 57 0 q 40 6 47 0 q 33 22 33 13 q 35 32 33 29 l 292 936 q 348 1018 309 995 q 433 1042 387 1042 q 490 1033 463 1042 q 540 1000 517 1023 q 574 937 562 977 l 831 32 q 832 22 832 29 m 586 450 l 460 907 q 433 932 453 932 q 406 907 412 932 l 279 450 l 586 450 m 500 1270 q 488 1260 500 1260 l 413 1260 q 401 1262 406 1260 q 393 1268 397 1264 q 381 1281 389 1272 l 224 1456 q 219 1467 219 1461 q 234 1476 219 1476 l 326 1476 q 360 1456 343 1476 l 495 1284 q 500 1270 500 1278 m 640 1263 l 640 1257 q 604 1156 635 1198 q 526 1093 573 1114 q 427 1072 478 1072 q 327 1093 374 1072 q 248 1156 279 1114 q 212 1257 217 1197 l 212 1263 q 227 1279 212 1279 l 275 1279 q 295 1259 293 1279 q 338 1181 300 1208 q 427 1154 376 1154 q 514 1181 476 1154 q 557 1259 553 1209 q 576 1279 559 1279 l 625 1279 q 640 1263 640 1279 z "},"Ắ":{"ha":865,"x_min":33,"x_max":832,"o":"m 832 22 q 808 0 832 0 l 726 0 q 703 21 707 0 l 612 340 l 253 340 l 164 21 q 154 6 162 12 q 139 0 146 0 l 57 0 q 40 6 47 0 q 33 22 33 13 q 35 32 33 29 l 292 936 q 348 1018 309 995 q 433 1042 387 1042 q 490 1033 463 1042 q 540 1000 517 1023 q 574 937 562 977 l 831 32 q 832 22 832 29 m 586 450 l 460 907 q 433 932 453 932 q 406 907 412 932 l 279 450 l 586 450 m 652 1467 q 646 1456 652 1461 l 489 1281 q 472 1264 477 1267 q 457 1260 467 1260 l 382 1260 q 370 1270 370 1260 q 375 1284 370 1278 l 511 1456 q 528 1473 522 1470 q 545 1476 533 1476 l 636 1476 q 652 1467 652 1476 m 640 1263 l 640 1257 q 604 1156 635 1198 q 526 1093 573 1114 q 427 1072 478 1072 q 327 1093 374 1072 q 248 1156 279 1114 q 212 1257 217 1197 l 212 1263 q 227 1279 212 1279 l 275 1279 q 295 1259 293 1279 q 338 1181 300 1208 q 427 1154 376 1154 q 514 1181 476 1154 q 557 1259 553 1209 q 576 1279 559 1279 l 625 1279 q 640 1263 640 1279 z "},"Ẳ":{"ha":865,"x_min":33,"x_max":832,"o":"m 832 22 q 808 0 832 0 l 726 0 q 703 21 707 0 l 612 340 l 253 340 l 164 21 q 154 6 162 12 q 139 0 146 0 l 57 0 q 40 6 47 0 q 33 22 33 13 q 35 32 33 29 l 292 936 q 348 1018 309 995 q 433 1042 387 1042 q 490 1033 463 1042 q 540 1000 517 1023 q 574 937 562 977 l 831 32 q 832 22 832 29 m 586 450 l 460 907 q 433 932 453 932 q 406 907 412 932 l 279 450 l 586 450 m 460 1526 q 446 1526 460 1526 q 411 1521 432 1526 q 359 1507 390 1517 q 320 1527 320 1494 l 320 1555 q 327 1570 320 1565 q 340 1578 333 1575 q 389 1594 357 1586 q 454 1601 421 1601 q 553 1577 515 1601 q 590 1499 590 1552 l 590 1493 q 585 1462 590 1477 q 568 1430 581 1447 q 534 1386 556 1412 l 508 1357 q 489 1334 492 1339 q 484 1323 486 1330 q 481 1305 481 1316 l 481 1277 q 472 1259 481 1267 q 449 1251 463 1251 l 424 1251 q 401 1260 410 1251 q 393 1277 393 1268 l 393 1305 q 396 1340 393 1326 q 409 1369 400 1355 q 434 1400 418 1383 l 460 1430 q 486 1465 480 1452 q 492 1493 492 1477 l 492 1499 q 460 1526 489 1526 m 640 1263 l 640 1257 q 604 1156 635 1198 q 526 1093 573 1114 q 427 1072 478 1072 q 327 1093 374 1072 q 248 1156 279 1114 q 212 1257 217 1197 l 212 1263 q 227 1279 212 1279 l 275 1279 q 295 1259 293 1279 q 338 1181 300 1208 q 427 1154 376 1154 q 514 1181 476 1154 q 557 1259 553 1209 q 576 1279 559 1279 l 625 1279 q 640 1263 640 1279 z "},"Ẵ":{"ha":865,"x_min":33,"x_max":832,"o":"m 832 22 q 808 0 832 0 l 726 0 q 703 21 707 0 l 612 340 l 253 340 l 164 21 q 154 6 162 12 q 139 0 146 0 l 57 0 q 40 6 47 0 q 33 22 33 13 q 35 32 33 29 l 292 936 q 348 1018 309 995 q 433 1042 387 1042 q 490 1033 463 1042 q 540 1000 517 1023 q 574 937 562 977 l 831 32 q 832 22 832 29 m 586 450 l 460 907 q 433 932 453 932 q 406 907 412 932 l 279 450 l 586 450 m 738 1466 q 707 1357 738 1393 q 607 1320 675 1320 q 518 1350 555 1320 l 433 1417 q 400 1442 410 1437 q 376 1448 389 1448 q 343 1432 353 1448 q 334 1384 334 1417 l 334 1355 q 327 1338 334 1345 q 310 1331 320 1331 l 267 1331 q 251 1338 257 1331 q 244 1355 244 1345 l 244 1384 q 279 1497 244 1458 q 376 1535 314 1535 q 460 1502 417 1535 l 558 1425 q 585 1410 572 1415 q 607 1405 597 1405 q 638 1419 629 1405 q 648 1466 648 1432 l 648 1498 q 655 1515 648 1508 q 672 1522 663 1522 l 715 1522 q 731 1514 724 1522 q 738 1498 738 1507 l 738 1466 m 640 1263 l 640 1257 q 604 1156 635 1198 q 526 1093 573 1114 q 427 1072 478 1072 q 327 1093 374 1072 q 248 1156 279 1114 q 212 1257 217 1197 l 212 1263 q 227 1279 212 1279 l 275 1279 q 295 1259 293 1279 q 338 1181 300 1208 q 427 1154 376 1154 q 514 1181 476 1154 q 557 1259 553 1209 q 576 1279 559 1279 l 625 1279 q 640 1263 640 1279 z "},"Ặ":{"ha":865,"x_min":33,"x_max":832,"o":"m 832 22 q 808 0 832 0 l 726 0 q 703 21 707 0 l 612 340 l 253 340 l 164 21 q 154 6 162 12 q 139 0 146 0 l 57 0 q 40 6 47 0 q 33 22 33 13 q 35 32 33 29 l 292 936 q 348 1018 309 995 q 433 1042 387 1042 q 490 1033 463 1042 q 540 1000 517 1023 q 574 937 562 977 l 831 32 q 832 22 832 29 m 586 450 l 460 907 q 433 932 453 932 q 406 907 412 932 l 279 450 l 586 450 m 488 -199 q 479 -218 488 -211 q 460 -226 471 -226 l 406 -226 q 387 -218 395 -226 q 378 -199 378 -211 l 378 -87 q 387 -68 378 -77 q 406 -59 395 -59 l 460 -59 q 479 -68 471 -59 q 488 -87 488 -77 l 488 -199 m 640 1263 l 640 1257 q 604 1156 635 1198 q 526 1093 573 1114 q 427 1072 478 1072 q 327 1093 374 1072 q 248 1156 279 1114 q 212 1257 217 1197 l 212 1263 q 227 1279 212 1279 l 275 1279 q 295 1259 293 1279 q 338 1181 300 1208 q 427 1154 376 1154 q 514 1181 476 1154 q 557 1259 553 1209 q 576 1279 559 1279 l 625 1279 q 640 1263 640 1279 z "},"È":{"ha":729,"x_min":87,"x_max":668,"o":"m 668 17 q 654 -3 668 -1 q 383 -9 589 -9 q 219 17 285 -9 q 121 101 154 43 q 87 249 87 159 l 87 783 q 161 980 87 918 q 383 1042 234 1042 q 533 1040 452 1042 q 654 1034 614 1038 q 668 1014 668 1031 l 668 945 q 653 928 668 928 l 385 928 q 275 914 311 928 q 226 870 238 900 q 214 783 214 840 l 214 590 l 640 590 q 661 583 653 590 q 668 562 668 575 l 668 510 q 660 490 668 498 q 640 482 652 482 l 214 482 l 214 249 q 226 162 214 193 q 275 118 238 132 q 385 104 311 104 l 653 104 q 668 87 668 104 l 668 17 m 479 1112 q 467 1102 479 1102 l 392 1102 q 380 1104 385 1102 q 372 1110 376 1106 q 360 1123 368 1114 l 203 1298 q 198 1309 198 1303 q 213 1318 198 1318 l 304 1318 q 339 1298 322 1318 l 474 1126 q 479 1112 479 1120 z "},"É":{"ha":729,"x_min":87,"x_max":668,"o":"m 668 17 q 654 -3 668 -1 q 383 -9 589 -9 q 219 17 285 -9 q 121 101 154 43 q 87 249 87 159 l 87 783 q 161 980 87 918 q 383 1042 234 1042 q 533 1040 452 1042 q 654 1034 614 1038 q 668 1014 668 1031 l 668 945 q 653 928 668 928 l 385 928 q 275 914 311 928 q 226 870 238 900 q 214 783 214 840 l 214 590 l 640 590 q 661 583 653 590 q 668 562 668 575 l 668 510 q 660 490 668 498 q 640 482 652 482 l 214 482 l 214 249 q 226 162 214 193 q 275 118 238 132 q 385 104 311 104 l 653 104 q 668 87 668 104 l 668 17 m 585 1310 q 579 1299 585 1305 l 422 1124 q 405 1107 410 1111 q 390 1103 400 1103 l 315 1103 q 302 1113 302 1103 q 308 1127 302 1122 l 444 1299 q 460 1316 455 1313 q 477 1320 466 1320 l 569 1320 q 585 1310 585 1320 z "},"Ẻ":{"ha":729,"x_min":87,"x_max":668,"o":"m 668 17 q 654 -3 668 -1 q 383 -9 589 -9 q 219 17 285 -9 q 121 101 154 43 q 87 249 87 159 l 87 783 q 161 980 87 918 q 383 1042 234 1042 q 533 1040 452 1042 q 654 1034 614 1038 q 668 1014 668 1031 l 668 945 q 653 928 668 928 l 385 928 q 275 914 311 928 q 226 870 238 900 q 214 783 214 840 l 214 590 l 640 590 q 661 583 653 590 q 668 562 668 575 l 668 510 q 660 490 668 498 q 640 482 652 482 l 214 482 l 214 249 q 226 162 214 193 q 275 118 238 132 q 385 104 311 104 l 653 104 q 668 87 668 104 l 668 17 m 420 1349 q 406 1349 420 1349 q 370 1344 391 1349 q 318 1330 349 1340 q 279 1350 279 1317 l 279 1378 q 286 1393 279 1388 q 299 1401 292 1398 q 349 1417 317 1409 q 414 1424 380 1424 q 512 1400 475 1424 q 549 1322 549 1375 l 549 1316 q 545 1285 549 1300 q 528 1253 540 1270 q 493 1209 515 1235 l 467 1180 q 449 1157 452 1162 q 443 1146 446 1153 q 440 1128 440 1139 l 440 1100 q 431 1082 440 1090 q 408 1074 422 1074 l 383 1074 q 360 1083 369 1074 q 352 1100 352 1091 l 352 1128 q 356 1163 352 1149 q 369 1192 359 1178 q 393 1223 378 1206 l 420 1253 q 446 1288 439 1275 q 452 1316 452 1300 l 452 1322 q 420 1349 448 1349 z "},"Ẽ":{"ha":729,"x_min":87,"x_max":684,"o":"m 668 17 q 654 -3 668 -1 q 383 -9 589 -9 q 219 17 285 -9 q 121 101 154 43 q 87 249 87 159 l 87 783 q 161 980 87 918 q 383 1042 234 1042 q 533 1040 452 1042 q 654 1034 614 1038 q 668 1014 668 1031 l 668 945 q 653 928 668 928 l 385 928 q 275 914 311 928 q 226 870 238 900 q 214 783 214 840 l 214 590 l 640 590 q 661 583 653 590 q 668 562 668 575 l 668 510 q 660 490 668 498 q 640 482 652 482 l 214 482 l 214 249 q 226 162 214 193 q 275 118 238 132 q 385 104 311 104 l 653 104 q 668 87 668 104 l 668 17 m 684 1242 q 652 1132 684 1168 q 553 1096 621 1096 q 464 1125 501 1096 l 379 1193 q 346 1218 356 1213 q 322 1223 335 1223 q 289 1208 298 1223 q 279 1160 279 1192 l 279 1131 q 273 1114 279 1120 q 256 1107 266 1107 l 212 1107 q 196 1114 203 1107 q 190 1131 190 1121 l 190 1160 q 225 1272 190 1234 q 322 1311 260 1311 q 406 1278 363 1311 l 504 1200 q 530 1186 517 1191 q 553 1181 543 1181 q 584 1194 574 1181 q 594 1242 594 1208 l 594 1274 q 601 1290 594 1283 q 618 1297 608 1297 l 661 1297 q 677 1290 670 1297 q 684 1274 684 1282 l 684 1242 z "},"Ẹ":{"ha":729,"x_min":87,"x_max":668,"o":"m 668 17 q 654 -3 668 -1 q 383 -9 589 -9 q 219 17 285 -9 q 121 101 154 43 q 87 249 87 159 l 87 783 q 161 980 87 918 q 383 1042 234 1042 q 533 1040 452 1042 q 654 1034 614 1038 q 668 1014 668 1031 l 668 945 q 653 928 668 928 l 385 928 q 275 914 311 928 q 226 870 238 900 q 214 783 214 840 l 214 590 l 640 590 q 661 583 653 590 q 668 562 668 575 l 668 510 q 660 490 668 498 q 640 482 652 482 l 214 482 l 214 249 q 226 162 214 193 q 275 118 238 132 q 385 104 311 104 l 653 104 q 668 87 668 104 l 668 17 m 488 -199 q 479 -218 488 -211 q 460 -226 471 -226 l 406 -226 q 387 -218 395 -226 q 378 -199 378 -211 l 378 -87 q 387 -68 378 -77 q 406 -59 395 -59 l 460 -59 q 479 -68 471 -59 q 488 -87 488 -77 l 488 -199 z "},"Ê":{"ha":729,"x_min":87,"x_max":668,"o":"m 668 17 q 654 -3 668 -1 q 383 -9 589 -9 q 219 17 285 -9 q 121 101 154 43 q 87 249 87 159 l 87 783 q 161 980 87 918 q 383 1042 234 1042 q 533 1040 452 1042 q 654 1034 614 1038 q 668 1014 668 1031 l 668 945 q 653 928 668 928 l 385 928 q 275 914 311 928 q 226 870 238 900 q 214 783 214 840 l 214 590 l 640 590 q 661 583 653 590 q 668 562 668 575 l 668 510 q 660 490 668 498 q 640 482 652 482 l 214 482 l 214 249 q 226 162 214 193 q 275 118 238 132 q 385 104 311 104 l 653 104 q 668 87 668 104 l 668 17 m 612 1113 q 600 1103 612 1103 l 528 1103 q 513 1107 517 1103 q 496 1124 508 1111 l 382 1259 l 267 1124 q 250 1107 255 1112 q 235 1103 244 1103 l 162 1103 q 150 1113 150 1103 q 155 1127 150 1122 l 289 1299 q 305 1316 300 1313 q 322 1320 311 1320 l 440 1320 q 475 1299 458 1320 l 607 1127 q 612 1113 612 1122 z "},"Ề":{"ha":729,"x_min":87,"x_max":668,"o":"m 668 17 q 654 -3 668 -1 q 383 -9 589 -9 q 219 17 285 -9 q 121 101 154 43 q 87 249 87 159 l 87 783 q 161 980 87 918 q 383 1042 234 1042 q 533 1040 452 1042 q 654 1034 614 1038 q 668 1014 668 1031 l 668 945 q 653 928 668 928 l 385 928 q 275 914 311 928 q 226 870 238 900 q 214 783 214 840 l 214 590 l 640 590 q 661 583 653 590 q 668 562 668 575 l 668 510 q 660 490 668 498 q 640 482 652 482 l 214 482 l 214 249 q 226 162 214 193 q 275 118 238 132 q 385 104 311 104 l 653 104 q 668 87 668 104 l 668 17 m 656 1261 q 644 1252 656 1252 l 568 1252 q 557 1254 562 1252 q 548 1260 552 1256 q 536 1273 544 1264 l 380 1448 q 374 1459 374 1453 q 389 1468 374 1468 l 481 1468 q 515 1448 498 1468 l 650 1276 q 656 1261 656 1270 m 612 1113 q 600 1103 612 1103 l 528 1103 q 513 1107 517 1103 q 496 1124 508 1111 l 382 1259 l 267 1124 q 250 1107 255 1112 q 235 1103 244 1103 l 162 1103 q 150 1113 150 1103 q 155 1127 150 1122 l 289 1299 q 305 1316 300 1313 q 322 1320 311 1320 l 440 1320 q 475 1299 458 1320 l 607 1127 q 612 1113 612 1122 z "},"Ế":{"ha":729,"x_min":87,"x_max":823,"o":"m 668 17 q 654 -3 668 -1 q 383 -9 589 -9 q 219 17 285 -9 q 121 101 154 43 q 87 249 87 159 l 87 783 q 161 980 87 918 q 383 1042 234 1042 q 533 1040 452 1042 q 654 1034 614 1038 q 668 1014 668 1031 l 668 945 q 653 928 668 928 l 385 928 q 275 914 311 928 q 226 870 238 900 q 214 783 214 840 l 214 590 l 640 590 q 661 583 653 590 q 668 562 668 575 l 668 510 q 660 490 668 498 q 640 482 652 482 l 214 482 l 214 249 q 226 162 214 193 q 275 118 238 132 q 385 104 311 104 l 653 104 q 668 87 668 104 l 668 17 m 823 1474 q 817 1463 823 1468 l 660 1288 q 643 1271 648 1274 q 628 1267 638 1267 l 553 1267 q 541 1276 541 1267 q 546 1291 541 1285 l 682 1463 q 699 1480 693 1476 q 715 1483 704 1483 l 807 1483 q 823 1474 823 1483 m 612 1113 q 600 1103 612 1103 l 528 1103 q 513 1107 517 1103 q 496 1124 508 1111 l 382 1259 l 267 1124 q 250 1107 255 1112 q 235 1103 244 1103 l 162 1103 q 150 1113 150 1103 q 155 1127 150 1122 l 289 1299 q 305 1316 300 1313 q 322 1320 311 1320 l 440 1320 q 475 1299 458 1320 l 607 1127 q 612 1113 612 1122 z "},"Ể":{"ha":729,"x_min":87,"x_max":741,"o":"m 668 17 q 654 -3 668 -1 q 383 -9 589 -9 q 219 17 285 -9 q 121 101 154 43 q 87 249 87 159 l 87 783 q 161 980 87 918 q 383 1042 234 1042 q 533 1040 452 1042 q 654 1034 614 1038 q 668 1014 668 1031 l 668 945 q 653 928 668 928 l 385 928 q 275 914 311 928 q 226 870 238 900 q 214 783 214 840 l 214 590 l 640 590 q 661 583 653 590 q 668 562 668 575 l 668 510 q 660 490 668 498 q 640 482 652 482 l 214 482 l 214 249 q 226 162 214 193 q 275 118 238 132 q 385 104 311 104 l 653 104 q 668 87 668 104 l 668 17 m 611 1512 q 597 1512 611 1512 q 562 1508 583 1512 q 509 1493 541 1503 q 471 1514 471 1480 l 471 1541 q 477 1556 471 1551 q 490 1565 484 1562 q 540 1580 508 1573 q 605 1588 572 1588 q 703 1563 666 1588 q 741 1486 741 1539 l 741 1479 q 736 1449 741 1463 q 719 1416 731 1434 q 684 1373 707 1398 l 659 1343 q 640 1321 643 1325 q 634 1309 637 1316 q 631 1292 631 1302 l 631 1263 q 623 1246 631 1254 q 600 1238 614 1238 l 574 1238 q 552 1246 560 1238 q 543 1263 543 1255 l 543 1292 q 547 1327 543 1312 q 560 1356 551 1341 q 585 1387 569 1370 l 611 1416 q 637 1451 631 1438 q 643 1479 643 1463 l 643 1486 q 611 1512 640 1512 m 612 1113 q 600 1103 612 1103 l 528 1103 q 513 1107 517 1103 q 496 1124 508 1111 l 382 1259 l 267 1124 q 250 1107 255 1112 q 235 1103 244 1103 l 162 1103 q 150 1113 150 1103 q 155 1127 150 1122 l 289 1299 q 305 1316 300 1313 q 322 1320 311 1320 l 440 1320 q 475 1299 458 1320 l 607 1127 q 612 1113 612 1122 z "},"Ễ":{"ha":729,"x_min":87,"x_max":690,"o":"m 668 17 q 654 -3 668 -1 q 383 -9 589 -9 q 219 17 285 -9 q 121 101 154 43 q 87 249 87 159 l 87 783 q 161 980 87 918 q 383 1042 234 1042 q 533 1040 452 1042 q 654 1034 614 1038 q 668 1014 668 1031 l 668 945 q 653 928 668 928 l 385 928 q 275 914 311 928 q 226 870 238 900 q 214 783 214 840 l 214 590 l 640 590 q 661 583 653 590 q 668 562 668 575 l 668 510 q 660 490 668 498 q 640 482 652 482 l 214 482 l 214 249 q 226 162 214 193 q 275 118 238 132 q 385 104 311 104 l 653 104 q 668 87 668 104 l 668 17 m 690 1466 q 659 1357 690 1393 q 559 1320 628 1320 q 471 1350 508 1320 l 386 1417 q 352 1442 363 1437 q 329 1448 342 1448 q 296 1432 305 1448 q 286 1384 286 1417 l 286 1355 q 279 1338 286 1345 q 262 1331 273 1331 l 219 1331 q 203 1338 210 1331 q 197 1355 197 1345 l 197 1384 q 232 1497 197 1458 q 329 1535 267 1535 q 412 1502 370 1535 l 511 1425 q 537 1410 524 1415 q 559 1405 550 1405 q 591 1419 581 1405 q 601 1466 601 1432 l 601 1498 q 608 1515 601 1508 q 625 1522 615 1522 l 668 1522 q 684 1514 677 1522 q 690 1498 690 1507 l 690 1466 m 612 1113 q 600 1103 612 1103 l 528 1103 q 513 1107 517 1103 q 496 1124 508 1111 l 382 1259 l 267 1124 q 250 1107 255 1112 q 235 1103 244 1103 l 162 1103 q 150 1113 150 1103 q 155 1127 150 1122 l 289 1299 q 305 1316 300 1313 q 322 1320 311 1320 l 440 1320 q 475 1299 458 1320 l 607 1127 q 612 1113 612 1122 z "},"Ệ":{"ha":729,"x_min":87,"x_max":668,"o":"m 668 17 q 654 -3 668 -1 q 383 -9 589 -9 q 219 17 285 -9 q 121 101 154 43 q 87 249 87 159 l 87 783 q 161 980 87 918 q 383 1042 234 1042 q 533 1040 452 1042 q 654 1034 614 1038 q 668 1014 668 1031 l 668 945 q 653 928 668 928 l 385 928 q 275 914 311 928 q 226 870 238 900 q 214 783 214 840 l 214 590 l 640 590 q 661 583 653 590 q 668 562 668 575 l 668 510 q 660 490 668 498 q 640 482 652 482 l 214 482 l 214 249 q 226 162 214 193 q 275 118 238 132 q 385 104 311 104 l 653 104 q 668 87 668 104 l 668 17 m 488 -199 q 479 -218 488 -211 q 460 -226 471 -226 l 406 -226 q 387 -218 395 -226 q 378 -199 378 -211 l 378 -87 q 387 -68 378 -77 q 406 -59 395 -59 l 460 -59 q 479 -68 471 -59 q 488 -87 488 -77 l 488 -199 m 612 1113 q 600 1103 612 1103 l 528 1103 q 513 1107 517 1103 q 496 1124 508 1111 l 382 1259 l 267 1124 q 250 1107 255 1112 q 235 1103 244 1103 l 162 1103 q 150 1113 150 1103 q 155 1127 150 1122 l 289 1299 q 305 1316 300 1313 q 322 1320 311 1320 l 440 1320 q 475 1299 458 1320 l 607 1127 q 612 1113 612 1122 z "},"Ì":{"ha":323,"x_min":-28,"x_max":253,"o":"m 225 28 q 218 8 225 17 q 200 0 211 0 l 123 0 q 106 8 114 0 q 98 28 98 16 l 98 1006 q 106 1024 98 1016 q 123 1032 113 1032 l 200 1032 q 218 1025 210 1032 q 225 1006 225 1017 l 225 28 m 253 1113 q 241 1103 253 1103 l 165 1103 q 154 1105 159 1103 q 145 1112 149 1107 q 134 1124 141 1116 l -23 1299 q -28 1310 -28 1305 q -14 1320 -28 1320 l 78 1320 q 113 1299 96 1320 l 248 1127 q 253 1113 253 1122 z "},"Í":{"ha":323,"x_min":73,"x_max":355,"o":"m 225 28 q 218 8 225 17 q 200 0 211 0 l 123 0 q 106 8 114 0 q 98 28 98 16 l 98 1006 q 106 1024 98 1016 q 123 1032 113 1032 l 200 1032 q 218 1025 210 1032 q 225 1006 225 1017 l 225 28 m 355 1310 q 350 1299 355 1305 l 193 1124 q 176 1107 180 1111 q 161 1103 171 1103 l 85 1103 q 73 1113 73 1103 q 79 1127 73 1122 l 215 1299 q 231 1316 226 1313 q 248 1320 237 1320 l 340 1320 q 355 1310 355 1320 z "},"Ỉ":{"ha":323,"x_min":35,"x_max":304,"o":"m 225 28 q 218 8 225 17 q 200 0 211 0 l 123 0 q 106 8 114 0 q 98 28 98 16 l 98 1006 q 106 1024 98 1016 q 123 1032 113 1032 l 200 1032 q 218 1025 210 1032 q 225 1006 225 1017 l 225 28 m 175 1349 q 161 1349 175 1349 q 125 1344 146 1349 q 73 1330 104 1340 q 35 1350 35 1317 l 35 1378 q 41 1393 35 1388 q 54 1401 47 1398 q 104 1417 72 1409 q 169 1424 136 1424 q 267 1400 230 1424 q 304 1322 304 1375 l 304 1316 q 300 1285 304 1300 q 283 1253 295 1270 q 248 1209 271 1235 l 222 1180 q 204 1157 207 1162 q 198 1146 201 1153 q 195 1128 195 1139 l 195 1100 q 186 1082 195 1090 q 163 1074 178 1074 l 138 1074 q 116 1083 124 1074 q 107 1100 107 1091 l 107 1128 q 111 1163 107 1149 q 124 1192 115 1178 q 149 1223 133 1206 l 175 1253 q 201 1288 195 1275 q 207 1316 207 1300 l 207 1322 q 175 1349 203 1349 z "},"Ĩ":{"ha":323,"x_min":-82,"x_max":412,"o":"m 225 28 q 218 8 225 17 q 200 0 211 0 l 123 0 q 106 8 114 0 q 98 28 98 16 l 98 1006 q 106 1024 98 1016 q 123 1032 113 1032 l 200 1032 q 218 1025 210 1032 q 225 1006 225 1017 l 225 28 m 412 1242 q 380 1132 412 1168 q 281 1096 349 1096 q 192 1125 229 1096 l 107 1193 q 74 1218 84 1213 q 50 1223 63 1223 q 17 1208 26 1223 q 7 1160 7 1192 l 7 1131 q 1 1114 7 1120 q -16 1107 -6 1107 l -60 1107 q -76 1114 -69 1107 q -82 1131 -82 1121 l -82 1160 q -47 1272 -82 1234 q 50 1311 -12 1311 q 134 1278 91 1311 l 232 1200 q 258 1186 245 1191 q 281 1181 271 1181 q 312 1194 302 1181 q 322 1242 322 1208 l 322 1274 q 329 1290 322 1283 q 346 1297 336 1297 l 389 1297 q 405 1290 398 1297 q 412 1274 412 1282 l 412 1242 z "},"Ị":{"ha":323,"x_min":98,"x_max":225,"o":"m 225 28 q 218 8 225 17 q 200 0 211 0 l 123 0 q 106 8 114 0 q 98 28 98 16 l 98 1006 q 106 1024 98 1016 q 123 1032 113 1032 l 200 1032 q 218 1025 210 1032 q 225 1006 225 1017 l 225 28 m 216 -199 q 208 -218 216 -211 q 188 -226 199 -226 l 134 -226 q 115 -218 123 -226 q 106 -199 106 -211 l 106 -87 q 115 -68 106 -77 q 134 -59 123 -59 l 188 -59 q 208 -68 199 -59 q 216 -87 216 -77 l 216 -199 z "},"Ò":{"ha":885,"x_min":66,"x_max":818,"o":"m 818 427 q 791 230 818 313 q 713 94 764 147 q 594 16 663 41 q 443 -9 526 -9 q 292 16 361 -9 q 172 94 223 41 q 94 231 121 147 q 66 427 66 315 l 66 606 q 94 801 66 718 q 173 939 122 885 q 292 1017 224 992 q 443 1042 359 1042 q 594 1017 526 1042 q 713 938 663 991 q 790 802 763 885 q 818 606 818 720 l 818 427 m 690 427 l 690 606 q 673 753 690 690 q 625 854 656 817 q 548 909 593 891 q 443 928 503 928 q 195 606 195 928 l 195 427 q 224 242 195 314 q 309 137 254 170 q 443 104 364 104 q 690 427 690 104 m 534 1113 q 522 1103 534 1103 l 447 1103 q 435 1105 440 1103 q 427 1112 431 1107 q 415 1124 422 1116 l 258 1299 q 253 1310 253 1305 q 268 1320 253 1320 l 359 1320 q 394 1299 377 1320 l 529 1127 q 534 1113 534 1122 z "},"Ó":{"ha":885,"x_min":66,"x_max":818,"o":"m 818 427 q 791 230 818 313 q 713 94 764 147 q 594 16 663 41 q 443 -9 526 -9 q 292 16 361 -9 q 172 94 223 41 q 94 231 121 147 q 66 427 66 315 l 66 606 q 94 801 66 718 q 173 939 122 885 q 292 1017 224 992 q 443 1042 359 1042 q 594 1017 526 1042 q 713 938 663 991 q 790 802 763 885 q 818 606 818 720 l 818 427 m 690 427 l 690 606 q 673 753 690 690 q 625 854 656 817 q 548 909 593 891 q 443 928 503 928 q 195 606 195 928 l 195 427 q 224 242 195 314 q 309 137 254 170 q 443 104 364 104 q 690 427 690 104 m 618 1310 q 612 1299 618 1305 l 455 1124 q 438 1107 443 1111 q 423 1103 433 1103 l 348 1103 q 336 1113 336 1103 q 341 1127 336 1122 l 477 1299 q 494 1316 488 1313 q 511 1320 499 1320 l 602 1320 q 618 1310 618 1320 z "},"Ỏ":{"ha":885,"x_min":66,"x_max":818,"o":"m 818 427 q 791 230 818 313 q 713 94 764 147 q 594 16 663 41 q 443 -9 526 -9 q 292 16 361 -9 q 172 94 223 41 q 94 231 121 147 q 66 427 66 315 l 66 606 q 94 801 66 718 q 173 939 122 885 q 292 1017 224 992 q 443 1042 359 1042 q 594 1017 526 1042 q 713 938 663 991 q 790 802 763 885 q 818 606 818 720 l 818 427 m 690 427 l 690 606 q 673 753 690 690 q 625 854 656 817 q 548 909 593 891 q 443 928 503 928 q 195 606 195 928 l 195 427 q 224 242 195 314 q 309 137 254 170 q 443 104 364 104 q 690 427 690 104 m 454 1349 q 439 1349 454 1349 q 404 1344 425 1349 q 352 1330 383 1340 q 313 1350 313 1317 l 313 1378 q 320 1393 313 1388 q 333 1401 326 1398 q 382 1417 351 1409 q 448 1424 414 1424 q 546 1400 509 1424 q 583 1322 583 1375 l 583 1316 q 578 1285 583 1300 q 562 1253 574 1270 q 527 1209 549 1235 l 501 1180 q 483 1157 486 1162 q 477 1146 479 1153 q 474 1128 474 1139 l 474 1100 q 465 1082 474 1090 q 442 1074 456 1074 l 417 1074 q 394 1083 403 1074 q 386 1100 386 1091 l 386 1128 q 390 1163 386 1149 q 402 1192 393 1178 q 427 1223 412 1206 l 454 1253 q 479 1288 473 1275 q 486 1316 486 1300 l 486 1322 q 454 1349 482 1349 z "},"Õ":{"ha":885,"x_min":66,"x_max":818,"o":"m 818 427 q 791 230 818 313 q 713 94 764 147 q 594 16 663 41 q 443 -9 526 -9 q 292 16 361 -9 q 172 94 223 41 q 94 231 121 147 q 66 427 66 315 l 66 606 q 94 801 66 718 q 173 939 122 885 q 292 1017 224 992 q 443 1042 359 1042 q 594 1017 526 1042 q 713 938 663 991 q 790 802 763 885 q 818 606 818 720 l 818 427 m 690 427 l 690 606 q 673 753 690 690 q 625 854 656 817 q 548 909 593 891 q 443 928 503 928 q 195 606 195 928 l 195 427 q 224 242 195 314 q 309 137 254 170 q 443 104 364 104 q 690 427 690 104 m 693 1242 q 662 1132 693 1168 q 562 1096 631 1096 q 473 1125 511 1096 l 389 1193 q 355 1218 366 1213 q 332 1223 345 1223 q 298 1208 308 1223 q 289 1160 289 1192 l 289 1131 q 282 1114 289 1120 q 265 1107 275 1107 l 222 1107 q 206 1114 212 1107 q 199 1131 199 1121 l 199 1160 q 234 1272 199 1234 q 332 1311 269 1311 q 415 1278 372 1311 l 513 1200 q 540 1186 527 1191 q 562 1181 553 1181 q 594 1194 584 1181 q 604 1242 604 1208 l 604 1274 q 611 1290 604 1283 q 627 1297 618 1297 l 671 1297 q 686 1290 680 1297 q 693 1274 693 1282 l 693 1242 z "},"Ọ":{"ha":885,"x_min":66,"x_max":818,"o":"m 818 427 q 791 230 818 313 q 713 94 764 147 q 594 16 663 41 q 443 -9 526 -9 q 292 16 361 -9 q 172 94 223 41 q 94 231 121 147 q 66 427 66 315 l 66 606 q 94 801 66 718 q 173 939 122 885 q 292 1017 224 992 q 443 1042 359 1042 q 594 1017 526 1042 q 713 938 663 991 q 790 802 763 885 q 818 606 818 720 l 818 427 m 690 427 l 690 606 q 673 753 690 690 q 625 854 656 817 q 548 909 593 891 q 443 928 503 928 q 195 606 195 928 l 195 427 q 224 242 195 314 q 309 137 254 170 q 443 104 364 104 q 690 427 690 104 m 497 -199 q 489 -218 497 -211 q 469 -226 481 -226 l 415 -226 q 396 -218 405 -226 q 387 -199 387 -211 l 387 -87 q 396 -68 387 -77 q 415 -59 405 -59 l 469 -59 q 489 -68 481 -59 q 497 -87 497 -77 l 497 -199 z "},"Ô":{"ha":885,"x_min":66,"x_max":818,"o":"m 818 427 q 791 230 818 313 q 713 94 764 147 q 594 16 663 41 q 443 -9 526 -9 q 292 16 361 -9 q 172 94 223 41 q 94 231 121 147 q 66 427 66 315 l 66 606 q 94 801 66 718 q 173 939 122 885 q 292 1017 224 992 q 443 1042 359 1042 q 594 1017 526 1042 q 713 938 663 991 q 790 802 763 885 q 818 606 818 720 l 818 427 m 690 427 l 690 606 q 673 753 690 690 q 625 854 656 817 q 548 909 593 891 q 443 928 503 928 q 195 606 195 928 l 195 427 q 224 242 195 314 q 309 137 254 170 q 443 104 364 104 q 690 427 690 104 m 673 1114 q 661 1105 673 1105 l 589 1105 q 574 1108 578 1105 q 557 1126 569 1112 l 443 1260 l 328 1126 q 311 1109 316 1113 q 296 1105 305 1105 l 223 1105 q 211 1114 211 1105 q 216 1128 211 1123 l 350 1301 q 366 1318 361 1314 q 383 1321 372 1321 l 501 1321 q 536 1301 519 1321 l 668 1128 q 673 1114 673 1123 z "},"Ồ":{"ha":885,"x_min":66,"x_max":818,"o":"m 818 427 q 791 230 818 313 q 713 94 764 147 q 594 16 663 41 q 443 -9 526 -9 q 292 16 361 -9 q 172 94 223 41 q 94 231 121 147 q 66 427 66 315 l 66 606 q 94 801 66 718 q 173 939 122 885 q 292 1017 224 992 q 443 1042 359 1042 q 594 1017 526 1042 q 713 938 663 991 q 790 802 763 885 q 818 606 818 720 l 818 427 m 690 427 l 690 606 q 673 753 690 690 q 625 854 656 817 q 548 909 593 891 q 443 928 503 928 q 195 606 195 928 l 195 427 q 224 242 195 314 q 309 137 254 170 q 443 104 364 104 q 690 427 690 104 m 711 1276 q 699 1267 711 1267 l 624 1267 q 612 1269 617 1267 q 604 1275 608 1271 q 592 1288 600 1279 l 435 1463 q 430 1474 430 1468 q 445 1483 430 1483 l 536 1483 q 571 1463 554 1483 l 706 1291 q 711 1276 711 1285 m 673 1114 q 661 1105 673 1105 l 589 1105 q 574 1108 578 1105 q 557 1126 569 1112 l 443 1260 l 328 1126 q 311 1109 316 1113 q 296 1105 305 1105 l 223 1105 q 211 1114 211 1105 q 216 1128 211 1123 l 350 1301 q 366 1318 361 1314 q 383 1321 372 1321 l 501 1321 q 536 1301 519 1321 l 668 1128 q 673 1114 673 1123 z "},"Ố":{"ha":885,"x_min":66,"x_max":869,"o":"m 818 427 q 791 230 818 313 q 713 94 764 147 q 594 16 663 41 q 443 -9 526 -9 q 292 16 361 -9 q 172 94 223 41 q 94 231 121 147 q 66 427 66 315 l 66 606 q 94 801 66 718 q 173 939 122 885 q 292 1017 224 992 q 443 1042 359 1042 q 594 1017 526 1042 q 713 938 663 991 q 790 802 763 885 q 818 606 818 720 l 818 427 m 690 427 l 690 606 q 673 753 690 690 q 625 854 656 817 q 548 909 593 891 q 443 928 503 928 q 195 606 195 928 l 195 427 q 224 242 195 314 q 309 137 254 170 q 443 104 364 104 q 690 427 690 104 m 869 1474 q 864 1463 869 1468 l 707 1288 q 690 1271 694 1274 q 675 1267 685 1267 l 600 1267 q 587 1276 587 1267 q 593 1291 587 1285 l 729 1463 q 745 1480 740 1476 q 762 1483 751 1483 l 854 1483 q 869 1474 869 1483 m 673 1114 q 661 1105 673 1105 l 589 1105 q 574 1108 578 1105 q 557 1126 569 1112 l 443 1260 l 328 1126 q 311 1109 316 1113 q 296 1105 305 1105 l 223 1105 q 211 1114 211 1105 q 216 1128 211 1123 l 350 1301 q 366 1318 361 1314 q 383 1321 372 1321 l 501 1321 q 536 1301 519 1321 l 668 1128 q 673 1114 673 1123 z "},"Ổ":{"ha":885,"x_min":66,"x_max":818,"o":"m 818 427 q 791 230 818 313 q 713 94 764 147 q 594 16 663 41 q 443 -9 526 -9 q 292 16 361 -9 q 172 94 223 41 q 94 231 121 147 q 66 427 66 315 l 66 606 q 94 801 66 718 q 173 939 122 885 q 292 1017 224 992 q 443 1042 359 1042 q 594 1017 526 1042 q 713 938 663 991 q 790 802 763 885 q 818 606 818 720 l 818 427 m 690 427 l 690 606 q 673 753 690 690 q 625 854 656 817 q 548 909 593 891 q 443 928 503 928 q 195 606 195 928 l 195 427 q 224 242 195 314 q 309 137 254 170 q 443 104 364 104 q 690 427 690 104 m 651 1533 q 637 1533 651 1533 q 602 1528 623 1533 q 549 1514 581 1524 q 511 1534 511 1501 l 511 1562 q 517 1577 511 1571 q 530 1585 524 1582 q 580 1600 548 1593 q 645 1608 612 1608 q 743 1584 706 1608 q 781 1506 781 1559 l 781 1499 q 776 1469 781 1484 q 759 1436 771 1454 q 724 1393 747 1419 l 699 1364 q 680 1341 683 1345 q 674 1330 677 1337 q 671 1312 671 1322 l 671 1284 q 663 1266 671 1274 q 640 1258 654 1258 l 614 1258 q 592 1266 600 1258 q 583 1284 583 1275 l 583 1312 q 587 1347 583 1333 q 600 1376 591 1362 q 625 1407 609 1390 l 651 1436 q 677 1471 671 1459 q 683 1499 683 1484 l 683 1506 q 651 1533 680 1533 m 673 1114 q 661 1105 673 1105 l 589 1105 q 574 1108 578 1105 q 557 1126 569 1112 l 443 1260 l 328 1126 q 311 1109 316 1113 q 296 1105 305 1105 l 223 1105 q 211 1114 211 1105 q 216 1128 211 1123 l 350 1301 q 366 1318 361 1314 q 383 1321 372 1321 l 501 1321 q 536 1301 519 1321 l 668 1128 q 673 1114 673 1123 z "},"Ỗ":{"ha":885,"x_min":66,"x_max":818,"o":"m 818 427 q 791 230 818 313 q 713 94 764 147 q 594 16 663 41 q 443 -9 526 -9 q 292 16 361 -9 q 172 94 223 41 q 94 231 121 147 q 66 427 66 315 l 66 606 q 94 801 66 718 q 173 939 122 885 q 292 1017 224 992 q 443 1042 359 1042 q 594 1017 526 1042 q 713 938 663 991 q 790 802 763 885 q 818 606 818 720 l 818 427 m 690 427 l 690 606 q 673 753 690 690 q 625 854 656 817 q 548 909 593 891 q 443 928 503 928 q 195 606 195 928 l 195 427 q 224 242 195 314 q 309 137 254 170 q 443 104 364 104 q 690 427 690 104 m 734 1466 q 703 1357 734 1393 q 603 1320 671 1320 q 514 1350 551 1320 l 429 1417 q 396 1442 406 1437 q 372 1448 385 1448 q 339 1432 349 1448 q 330 1384 330 1417 l 330 1355 q 323 1338 330 1345 q 306 1331 316 1331 l 262 1331 q 247 1338 253 1331 q 240 1355 240 1345 l 240 1384 q 275 1497 240 1458 q 372 1535 310 1535 q 456 1502 413 1535 l 554 1425 q 581 1410 568 1415 q 603 1405 593 1405 q 634 1419 625 1405 q 644 1466 644 1432 l 644 1498 q 651 1515 644 1508 q 668 1522 659 1522 l 711 1522 q 727 1514 720 1522 q 734 1498 734 1507 l 734 1466 m 673 1114 q 661 1105 673 1105 l 589 1105 q 574 1108 578 1105 q 557 1126 569 1112 l 443 1260 l 328 1126 q 311 1109 316 1113 q 296 1105 305 1105 l 223 1105 q 211 1114 211 1105 q 216 1128 211 1123 l 350 1301 q 366 1318 361 1314 q 383 1321 372 1321 l 501 1321 q 536 1301 519 1321 l 668 1128 q 673 1114 673 1123 z "},"Ộ":{"ha":885,"x_min":66,"x_max":818,"o":"m 818 427 q 791 230 818 313 q 713 94 764 147 q 594 16 663 41 q 443 -9 526 -9 q 292 16 361 -9 q 172 94 223 41 q 94 231 121 147 q 66 427 66 315 l 66 606 q 94 801 66 718 q 173 939 122 885 q 292 1017 224 992 q 443 1042 359 1042 q 594 1017 526 1042 q 713 938 663 991 q 790 802 763 885 q 818 606 818 720 l 818 427 m 690 427 l 690 606 q 673 753 690 690 q 625 854 656 817 q 548 909 593 891 q 443 928 503 928 q 195 606 195 928 l 195 427 q 224 242 195 314 q 309 137 254 170 q 443 104 364 104 q 690 427 690 104 m 497 -199 q 489 -218 497 -211 q 469 -226 481 -226 l 415 -226 q 396 -218 405 -226 q 387 -199 387 -211 l 387 -87 q 396 -68 387 -77 q 415 -59 405 -59 l 469 -59 q 489 -68 481 -59 q 497 -87 497 -77 l 497 -199 m 673 1114 q 661 1105 673 1105 l 589 1105 q 574 1108 578 1105 q 557 1126 569 1112 l 443 1260 l 328 1126 q 311 1109 316 1113 q 296 1105 305 1105 l 223 1105 q 211 1114 211 1105 q 216 1128 211 1123 l 350 1301 q 366 1318 361 1314 q 383 1321 372 1321 l 501 1321 q 536 1301 519 1321 l 668 1128 q 673 1114 673 1123 z "},"Ù":{"ha":878,"x_min":83,"x_max":794,"o":"m 794 375 q 771 204 794 277 q 701 84 747 132 q 589 13 654 36 q 439 -9 524 -9 q 289 13 353 -9 q 178 84 224 36 q 107 204 132 132 q 83 375 83 277 l 83 1006 q 91 1024 83 1017 q 110 1032 99 1032 l 184 1032 q 203 1025 195 1032 q 211 1006 211 1018 l 211 375 q 262 167 211 235 q 439 98 314 98 q 573 130 523 98 q 645 221 624 161 q 667 375 667 282 l 667 1006 q 674 1024 667 1017 q 693 1032 682 1032 l 768 1032 q 787 1025 779 1032 q 794 1006 794 1017 l 794 375 m 519 1113 q 507 1103 519 1103 l 432 1103 q 420 1105 425 1103 q 412 1112 416 1107 q 400 1124 408 1116 l 243 1299 q 238 1310 238 1305 q 253 1320 238 1320 l 345 1320 q 379 1299 362 1320 l 514 1127 q 519 1113 519 1122 z "},"Ú":{"ha":878,"x_min":83,"x_max":794,"o":"m 794 375 q 771 204 794 277 q 701 84 747 132 q 589 13 654 36 q 439 -9 524 -9 q 289 13 353 -9 q 178 84 224 36 q 107 204 132 132 q 83 375 83 277 l 83 1006 q 91 1024 83 1017 q 110 1032 99 1032 l 184 1032 q 203 1025 195 1032 q 211 1006 211 1018 l 211 375 q 262 167 211 235 q 439 98 314 98 q 573 130 523 98 q 645 221 624 161 q 667 375 667 282 l 667 1006 q 674 1024 667 1017 q 693 1032 682 1032 l 768 1032 q 787 1025 779 1032 q 794 1006 794 1017 l 794 375 m 644 1310 q 639 1299 644 1305 l 481 1124 q 465 1107 469 1111 q 450 1103 460 1103 l 374 1103 q 362 1113 362 1103 q 368 1127 362 1122 l 504 1299 q 520 1316 515 1313 q 537 1320 526 1320 l 629 1320 q 644 1310 644 1320 z "},"Ủ":{"ha":878,"x_min":83,"x_max":794,"o":"m 794 375 q 771 204 794 277 q 701 84 747 132 q 589 13 654 36 q 439 -9 524 -9 q 289 13 353 -9 q 178 84 224 36 q 107 204 132 132 q 83 375 83 277 l 83 1006 q 91 1024 83 1017 q 110 1032 99 1032 l 184 1032 q 203 1025 195 1032 q 211 1006 211 1018 l 211 375 q 262 167 211 235 q 439 98 314 98 q 573 130 523 98 q 645 221 624 161 q 667 375 667 282 l 667 1006 q 674 1024 667 1017 q 693 1032 682 1032 l 768 1032 q 787 1025 779 1032 q 794 1006 794 1017 l 794 375 m 454 1349 q 439 1349 454 1349 q 404 1344 425 1349 q 352 1330 383 1340 q 313 1350 313 1317 l 313 1378 q 320 1393 313 1388 q 333 1401 326 1398 q 382 1417 351 1409 q 448 1424 414 1424 q 546 1400 509 1424 q 583 1322 583 1375 l 583 1316 q 578 1285 583 1300 q 562 1253 574 1270 q 527 1209 549 1235 l 501 1180 q 483 1157 486 1162 q 477 1146 479 1153 q 474 1128 474 1139 l 474 1100 q 465 1082 474 1090 q 442 1074 456 1074 l 417 1074 q 394 1083 403 1074 q 386 1100 386 1091 l 386 1128 q 390 1163 386 1149 q 402 1192 393 1178 q 427 1223 412 1206 l 454 1253 q 479 1288 473 1275 q 486 1316 486 1300 l 486 1322 q 454 1349 482 1349 z "},"Ũ":{"ha":878,"x_min":83,"x_max":794,"o":"m 794 375 q 771 204 794 277 q 701 84 747 132 q 589 13 654 36 q 439 -9 524 -9 q 289 13 353 -9 q 178 84 224 36 q 107 204 132 132 q 83 375 83 277 l 83 1006 q 91 1024 83 1017 q 110 1032 99 1032 l 184 1032 q 203 1025 195 1032 q 211 1006 211 1018 l 211 375 q 262 167 211 235 q 439 98 314 98 q 573 130 523 98 q 645 221 624 161 q 667 375 667 282 l 667 1006 q 674 1024 667 1017 q 693 1032 682 1032 l 768 1032 q 787 1025 779 1032 q 794 1006 794 1017 l 794 375 m 693 1242 q 662 1132 693 1168 q 562 1096 631 1096 q 473 1125 511 1096 l 389 1193 q 355 1218 366 1213 q 332 1223 345 1223 q 298 1208 308 1223 q 289 1160 289 1192 l 289 1131 q 282 1114 289 1120 q 265 1107 275 1107 l 222 1107 q 206 1114 212 1107 q 199 1131 199 1121 l 199 1160 q 234 1272 199 1234 q 332 1311 269 1311 q 415 1278 372 1311 l 513 1200 q 540 1186 527 1191 q 562 1181 553 1181 q 594 1194 584 1181 q 604 1242 604 1208 l 604 1274 q 611 1290 604 1283 q 627 1297 618 1297 l 671 1297 q 686 1290 680 1297 q 693 1274 693 1282 l 693 1242 z "},"Ụ":{"ha":878,"x_min":83,"x_max":794,"o":"m 794 375 q 771 204 794 277 q 701 84 747 132 q 589 13 654 36 q 439 -9 524 -9 q 289 13 353 -9 q 178 84 224 36 q 107 204 132 132 q 83 375 83 277 l 83 1006 q 91 1024 83 1017 q 110 1032 99 1032 l 184 1032 q 203 1025 195 1032 q 211 1006 211 1018 l 211 375 q 262 167 211 235 q 439 98 314 98 q 573 130 523 98 q 645 221 624 161 q 667 375 667 282 l 667 1006 q 674 1024 667 1017 q 693 1032 682 1032 l 768 1032 q 787 1025 779 1032 q 794 1006 794 1017 l 794 375 m 494 -199 q 486 -218 494 -211 q 466 -226 477 -226 l 412 -226 q 393 -218 401 -226 q 384 -199 384 -211 l 384 -87 q 393 -68 384 -77 q 412 -59 401 -59 l 466 -59 q 486 -68 477 -59 q 494 -87 494 -77 l 494 -199 z "},"Ư":{"ha":878,"x_min":83,"x_max":949,"o":"m 794 378 q 771 207 794 279 q 701 86 747 134 q 589 16 654 39 q 439 -7 524 -7 q 289 16 353 -7 q 178 86 224 39 q 107 207 132 134 q 83 378 83 279 l 83 1008 q 91 1027 83 1019 q 110 1035 99 1035 l 184 1035 q 203 1028 195 1035 q 211 1008 211 1021 l 211 378 q 262 170 211 238 q 439 101 314 101 q 573 132 523 101 q 645 224 624 163 q 667 378 667 285 l 667 1008 q 674 1027 667 1019 q 693 1035 682 1035 l 768 1035 q 787 1027 779 1035 q 794 1008 794 1020 l 794 378 m 927 1024 q 758 766 949 791 l 750 861 q 829 949 826 892 l 829 1021 q 852 1038 828 1036 l 908 1038 q 927 1024 924 1038 z "},"Ừ":{"ha":878,"x_min":83,"x_max":947,"o":"m 519 1113 q 507 1103 519 1103 l 432 1103 q 420 1105 425 1103 q 412 1112 416 1107 q 400 1124 408 1116 l 243 1299 q 238 1310 238 1305 q 253 1320 238 1320 l 345 1320 q 379 1299 362 1320 l 514 1127 q 519 1113 519 1122 m 794 773 l 794 375 q 771 204 794 277 q 701 84 747 132 q 589 13 654 36 q 439 -9 524 -9 q 289 13 353 -9 q 178 84 224 36 q 107 204 132 132 q 83 375 83 277 l 83 1006 q 91 1024 83 1017 q 110 1032 99 1032 l 184 1032 q 203 1025 195 1032 q 211 1006 211 1018 l 211 375 q 262 167 211 235 q 439 98 314 98 q 573 130 523 98 q 645 221 624 161 q 667 375 667 282 l 667 1006 q 674 1024 667 1017 q 693 1032 682 1032 l 768 1032 q 787 1025 779 1032 q 794 1006 794 1017 l 794 886 q 829 949 827 912 l 829 1021 q 852 1038 828 1036 l 908 1038 q 927 1024 924 1038 q 794 773 947 814 z "},"Ứ":{"ha":878,"x_min":83,"x_max":947,"o":"m 644 1310 q 639 1299 644 1305 l 481 1124 q 465 1107 469 1111 q 450 1103 460 1103 l 374 1103 q 362 1113 362 1103 q 368 1127 362 1122 l 504 1299 q 520 1316 515 1313 q 537 1320 526 1320 l 629 1320 q 644 1310 644 1320 m 794 773 l 794 375 q 771 204 794 277 q 701 84 747 132 q 589 13 654 36 q 439 -9 524 -9 q 289 13 353 -9 q 178 84 224 36 q 107 204 132 132 q 83 375 83 277 l 83 1006 q 91 1024 83 1017 q 110 1032 99 1032 l 184 1032 q 203 1025 195 1032 q 211 1006 211 1018 l 211 375 q 262 167 211 235 q 439 98 314 98 q 573 130 523 98 q 645 221 624 161 q 667 375 667 282 l 667 1006 q 674 1024 667 1017 q 693 1032 682 1032 l 768 1032 q 787 1025 779 1032 q 794 1006 794 1017 l 794 886 q 829 949 827 912 l 829 1021 q 852 1038 828 1036 l 908 1038 q 927 1024 924 1038 q 794 773 947 814 z "},"Ử":{"ha":878,"x_min":83,"x_max":947,"o":"m 454 1349 q 439 1349 454 1349 q 404 1344 425 1349 q 352 1330 383 1340 q 313 1350 313 1317 l 313 1378 q 320 1393 313 1388 q 333 1401 326 1398 q 382 1417 351 1409 q 448 1424 414 1424 q 546 1400 509 1424 q 583 1322 583 1375 l 583 1316 q 578 1285 583 1300 q 562 1253 574 1270 q 527 1209 549 1235 l 501 1180 q 483 1157 486 1162 q 477 1146 479 1153 q 474 1128 474 1139 l 474 1100 q 465 1082 474 1090 q 442 1074 456 1074 l 417 1074 q 394 1083 403 1074 q 386 1100 386 1091 l 386 1128 q 390 1163 386 1149 q 402 1192 393 1178 q 427 1223 412 1206 l 454 1253 q 479 1288 473 1275 q 486 1316 486 1300 l 486 1322 q 454 1349 482 1349 m 794 773 l 794 375 q 771 204 794 277 q 701 84 747 132 q 589 13 654 36 q 439 -9 524 -9 q 289 13 353 -9 q 178 84 224 36 q 107 204 132 132 q 83 375 83 277 l 83 1006 q 91 1024 83 1017 q 110 1032 99 1032 l 184 1032 q 203 1025 195 1032 q 211 1006 211 1018 l 211 375 q 262 167 211 235 q 439 98 314 98 q 573 130 523 98 q 645 221 624 161 q 667 375 667 282 l 667 1006 q 674 1024 667 1017 q 693 1032 682 1032 l 768 1032 q 787 1025 779 1032 q 794 1006 794 1017 l 794 886 q 829 949 827 912 l 829 1021 q 852 1038 828 1036 l 908 1038 q 927 1024 924 1038 q 794 773 947 814 z "},"Ữ":{"ha":878,"x_min":83,"x_max":947,"o":"m 693 1242 q 662 1132 693 1168 q 562 1096 631 1096 q 473 1125 511 1096 l 389 1193 q 355 1218 366 1213 q 332 1223 345 1223 q 298 1208 308 1223 q 289 1160 289 1192 l 289 1131 q 282 1114 289 1120 q 265 1107 275 1107 l 222 1107 q 206 1114 212 1107 q 199 1131 199 1121 l 199 1160 q 234 1272 199 1234 q 332 1311 269 1311 q 415 1278 372 1311 l 513 1200 q 540 1186 527 1191 q 562 1181 553 1181 q 594 1194 584 1181 q 604 1242 604 1208 l 604 1274 q 611 1290 604 1283 q 627 1297 618 1297 l 671 1297 q 686 1290 680 1297 q 693 1274 693 1282 l 693 1242 m 794 773 l 794 375 q 771 204 794 277 q 701 84 747 132 q 589 13 654 36 q 439 -9 524 -9 q 289 13 353 -9 q 178 84 224 36 q 107 204 132 132 q 83 375 83 277 l 83 1006 q 91 1024 83 1017 q 110 1032 99 1032 l 184 1032 q 203 1025 195 1032 q 211 1006 211 1018 l 211 375 q 262 167 211 235 q 439 98 314 98 q 573 130 523 98 q 645 221 624 161 q 667 375 667 282 l 667 1006 q 674 1024 667 1017 q 693 1032 682 1032 l 768 1032 q 787 1025 779 1032 q 794 1006 794 1017 l 794 886 q 829 949 827 912 l 829 1021 q 852 1038 828 1036 l 908 1038 q 927 1024 924 1038 q 794 773 947 814 z "},"Ự":{"ha":878,"x_min":83,"x_max":947,"o":"m 494 -199 q 486 -218 494 -211 q 466 -226 477 -226 l 412 -226 q 393 -218 401 -226 q 384 -199 384 -211 l 384 -87 q 393 -68 384 -77 q 412 -59 401 -59 l 466 -59 q 486 -68 477 -59 q 494 -87 494 -77 l 494 -199 m 794 773 l 794 375 q 771 204 794 277 q 701 84 747 132 q 589 13 654 36 q 439 -9 524 -9 q 289 13 353 -9 q 178 84 224 36 q 107 204 132 132 q 83 375 83 277 l 83 1006 q 91 1024 83 1017 q 110 1032 99 1032 l 184 1032 q 203 1025 195 1032 q 211 1006 211 1018 l 211 375 q 262 167 211 235 q 439 98 314 98 q 573 130 523 98 q 645 221 624 161 q 667 375 667 282 l 667 1006 q 674 1024 667 1017 q 693 1032 682 1032 l 768 1032 q 787 1025 779 1032 q 794 1006 794 1017 l 794 886 q 829 949 827 912 l 829 1021 q 852 1038 828 1036 l 908 1038 q 927 1024 924 1038 q 794 773 947 814 z "},"Ơ":{"ha":885,"x_min":66,"x_max":912,"o":"m 818 427 q 791 230 818 313 q 713 94 764 147 q 594 16 663 41 q 443 -9 526 -9 q 292 16 361 -9 q 172 94 223 41 q 94 231 121 147 q 66 427 66 315 l 66 606 q 94 801 66 718 q 173 939 122 885 q 292 1017 224 992 q 443 1042 359 1042 q 594 1017 526 1042 q 713 938 663 991 q 790 802 763 885 q 818 606 818 720 l 818 427 m 690 427 l 690 606 q 673 753 690 690 q 625 854 656 817 q 548 909 593 891 q 443 928 503 928 q 195 606 195 928 l 195 427 q 224 242 195 314 q 309 137 254 170 q 443 104 364 104 q 690 427 690 104 m 890 1024 q 722 766 912 791 l 713 861 q 792 949 789 892 l 792 1021 q 815 1038 791 1036 l 871 1038 q 890 1024 887 1038 z "},"Ờ":{"ha":885,"x_min":66,"x_max":907,"o":"m 690 427 l 690 606 q 673 753 690 690 q 625 854 656 817 q 548 909 593 891 q 443 928 503 928 q 195 606 195 928 l 195 427 q 224 242 195 314 q 309 137 254 170 q 443 104 364 104 q 690 427 690 104 m 534 1113 q 522 1103 534 1103 l 447 1103 q 435 1105 440 1103 q 427 1112 431 1107 q 415 1124 422 1116 l 258 1299 q 253 1310 253 1305 q 268 1320 253 1320 l 359 1320 q 394 1299 377 1320 l 529 1127 q 534 1113 534 1122 m 795 787 q 818 606 818 709 l 818 427 q 791 230 818 313 q 713 94 764 147 q 594 16 663 41 q 443 -9 526 -9 q 292 16 361 -9 q 172 94 223 41 q 94 231 121 147 q 66 427 66 315 l 66 606 q 94 801 66 718 q 173 939 122 885 q 292 1017 224 992 q 443 1042 359 1042 q 594 1017 526 1042 q 713 939 663 991 q 754 884 736 914 q 792 949 790 910 l 792 1021 q 815 1038 791 1036 l 871 1038 q 890 1024 887 1038 q 795 787 907 842 z "},"Ớ":{"ha":885,"x_min":66,"x_max":907,"o":"m 690 427 l 690 606 q 673 753 690 690 q 625 854 656 817 q 548 909 593 891 q 443 928 503 928 q 195 606 195 928 l 195 427 q 224 242 195 314 q 309 137 254 170 q 443 104 364 104 q 690 427 690 104 m 618 1310 q 612 1299 618 1305 l 455 1124 q 438 1107 443 1111 q 423 1103 433 1103 l 348 1103 q 336 1113 336 1103 q 341 1127 336 1122 l 477 1299 q 494 1316 488 1313 q 511 1320 499 1320 l 602 1320 q 618 1310 618 1320 m 795 787 q 818 606 818 709 l 818 427 q 791 230 818 313 q 713 94 764 147 q 594 16 663 41 q 443 -9 526 -9 q 292 16 361 -9 q 172 94 223 41 q 94 231 121 147 q 66 427 66 315 l 66 606 q 94 801 66 718 q 173 939 122 885 q 292 1017 224 992 q 443 1042 359 1042 q 594 1017 526 1042 q 713 939 663 991 q 754 884 736 914 q 792 949 790 910 l 792 1021 q 815 1038 791 1036 l 871 1038 q 890 1024 887 1038 q 795 787 907 842 z "},"Ở":{"ha":885,"x_min":66,"x_max":907,"o":"m 690 427 l 690 606 q 673 753 690 690 q 625 854 656 817 q 548 909 593 891 q 443 928 503 928 q 195 606 195 928 l 195 427 q 224 242 195 314 q 309 137 254 170 q 443 104 364 104 q 690 427 690 104 m 454 1349 q 439 1349 454 1349 q 404 1344 425 1349 q 352 1330 383 1340 q 313 1350 313 1317 l 313 1378 q 320 1393 313 1388 q 333 1401 326 1398 q 382 1417 351 1409 q 448 1424 414 1424 q 546 1400 509 1424 q 583 1322 583 1375 l 583 1316 q 578 1285 583 1300 q 562 1253 574 1270 q 527 1209 549 1235 l 501 1180 q 483 1157 486 1162 q 477 1146 479 1153 q 474 1128 474 1139 l 474 1100 q 465 1082 474 1090 q 442 1074 456 1074 l 417 1074 q 394 1083 403 1074 q 386 1100 386 1091 l 386 1128 q 390 1163 386 1149 q 402 1192 393 1178 q 427 1223 412 1206 l 454 1253 q 479 1288 473 1275 q 486 1316 486 1300 l 486 1322 q 454 1349 482 1349 m 795 787 q 818 606 818 709 l 818 427 q 791 230 818 313 q 713 94 764 147 q 594 16 663 41 q 443 -9 526 -9 q 292 16 361 -9 q 172 94 223 41 q 94 231 121 147 q 66 427 66 315 l 66 606 q 94 801 66 718 q 173 939 122 885 q 292 1017 224 992 q 443 1042 359 1042 q 594 1017 526 1042 q 713 939 663 991 q 754 884 736 914 q 792 949 790 910 l 792 1021 q 815 1038 791 1036 l 871 1038 q 890 1024 887 1038 q 795 787 907 842 z "},"Ỡ":{"ha":885,"x_min":66,"x_max":907,"o":"m 690 427 l 690 606 q 673 753 690 690 q 625 854 656 817 q 548 909 593 891 q 443 928 503 928 q 195 606 195 928 l 195 427 q 224 242 195 314 q 309 137 254 170 q 443 104 364 104 q 690 427 690 104 m 693 1242 q 662 1132 693 1168 q 562 1096 631 1096 q 473 1125 511 1096 l 389 1193 q 355 1218 366 1213 q 332 1223 345 1223 q 298 1208 308 1223 q 289 1160 289 1192 l 289 1131 q 282 1114 289 1120 q 265 1107 275 1107 l 222 1107 q 206 1114 212 1107 q 199 1131 199 1121 l 199 1160 q 234 1272 199 1234 q 332 1311 269 1311 q 415 1278 372 1311 l 513 1200 q 540 1186 527 1191 q 562 1181 553 1181 q 594 1194 584 1181 q 604 1242 604 1208 l 604 1274 q 611 1290 604 1283 q 627 1297 618 1297 l 671 1297 q 686 1290 680 1297 q 693 1274 693 1282 l 693 1242 m 795 787 q 818 606 818 709 l 818 427 q 791 230 818 313 q 713 94 764 147 q 594 16 663 41 q 443 -9 526 -9 q 292 16 361 -9 q 172 94 223 41 q 94 231 121 147 q 66 427 66 315 l 66 606 q 94 801 66 718 q 173 939 122 885 q 292 1017 224 992 q 443 1042 359 1042 q 594 1017 526 1042 q 713 939 663 991 q 754 884 736 914 q 792 949 790 910 l 792 1021 q 815 1038 791 1036 l 871 1038 q 890 1024 887 1038 q 795 787 907 842 z "},"Ợ":{"ha":885,"x_min":66,"x_max":907,"o":"m 690 427 l 690 606 q 673 753 690 690 q 625 854 656 817 q 548 909 593 891 q 443 928 503 928 q 195 606 195 928 l 195 427 q 224 242 195 314 q 309 137 254 170 q 443 104 364 104 q 690 427 690 104 m 497 -199 q 489 -218 497 -211 q 469 -226 481 -226 l 415 -226 q 396 -218 405 -226 q 387 -199 387 -211 l 387 -87 q 396 -68 387 -77 q 415 -59 405 -59 l 469 -59 q 489 -68 481 -59 q 497 -87 497 -77 l 497 -199 m 795 787 q 818 606 818 709 l 818 427 q 791 230 818 313 q 713 94 764 147 q 594 16 663 41 q 443 -9 526 -9 q 292 16 361 -9 q 172 94 223 41 q 94 231 121 147 q 66 427 66 315 l 66 606 q 94 801 66 718 q 173 939 122 885 q 292 1017 224 992 q 443 1042 359 1042 q 594 1017 526 1042 q 713 939 663 991 q 754 884 736 914 q 792 949 790 910 l 792 1021 q 815 1038 791 1036 l 871 1038 q 890 1024 887 1038 q 795 787 907 842 z "},"Ỳ":{"ha":791,"x_min":39,"x_max":753,"o":"m 753 1013 q 749 997 753 1006 l 533 514 q 458 422 501 441 l 458 28 q 451 8 458 16 q 433 0 444 0 l 357 0 q 339 8 347 0 q 332 28 332 16 l 332 422 q 257 514 291 438 l 43 997 q 39 1013 39 1006 q 45 1026 39 1021 q 62 1032 52 1032 l 147 1032 q 162 1026 154 1032 q 172 1013 170 1019 l 364 562 q 396 526 380 526 q 428 562 412 526 l 621 1013 q 644 1032 631 1032 l 729 1032 q 746 1027 740 1032 q 753 1013 753 1021 m 519 1113 q 507 1103 519 1103 l 432 1103 q 420 1105 425 1103 q 412 1112 416 1107 q 400 1124 408 1116 l 243 1299 q 238 1310 238 1305 q 253 1320 238 1320 l 345 1320 q 379 1299 362 1320 l 514 1127 q 519 1113 519 1122 z "},"Ý":{"ha":791,"x_min":39,"x_max":753,"o":"m 753 1013 q 749 997 753 1006 l 533 514 q 458 422 501 441 l 458 28 q 451 8 458 16 q 433 0 444 0 l 357 0 q 339 8 347 0 q 332 28 332 16 l 332 422 q 257 514 291 438 l 43 997 q 39 1013 39 1006 q 45 1026 39 1021 q 62 1032 52 1032 l 147 1032 q 162 1026 154 1032 q 172 1013 170 1019 l 364 562 q 396 526 380 526 q 428 562 412 526 l 621 1013 q 644 1032 631 1032 l 729 1032 q 746 1027 740 1032 q 753 1013 753 1021 m 617 1310 q 612 1299 617 1305 l 454 1124 q 437 1107 442 1111 q 422 1103 433 1103 l 347 1103 q 335 1113 335 1103 q 340 1127 335 1122 l 477 1299 q 493 1316 488 1313 q 510 1320 498 1320 l 602 1320 q 617 1310 617 1320 z "},"Ỷ":{"ha":791,"x_min":39,"x_max":753,"o":"m 753 1013 q 749 997 753 1006 l 533 514 q 458 422 501 441 l 458 28 q 451 8 458 16 q 433 0 444 0 l 357 0 q 339 8 347 0 q 332 28 332 16 l 332 422 q 257 514 291 438 l 43 997 q 39 1013 39 1006 q 45 1026 39 1021 q 62 1032 52 1032 l 147 1032 q 162 1026 154 1032 q 172 1013 170 1019 l 364 562 q 396 526 380 526 q 428 562 412 526 l 621 1013 q 644 1032 631 1032 l 729 1032 q 746 1027 740 1032 q 753 1013 753 1021 m 420 1349 q 406 1349 420 1349 q 370 1344 391 1349 q 318 1330 349 1340 q 279 1350 279 1317 l 279 1378 q 286 1393 279 1388 q 299 1401 292 1398 q 349 1417 317 1409 q 414 1424 380 1424 q 512 1400 475 1424 q 549 1322 549 1375 l 549 1316 q 545 1285 549 1300 q 528 1253 540 1270 q 493 1209 515 1235 l 467 1180 q 449 1157 452 1162 q 443 1146 446 1153 q 440 1128 440 1139 l 440 1100 q 431 1082 440 1090 q 408 1074 422 1074 l 383 1074 q 360 1083 369 1074 q 352 1100 352 1091 l 352 1128 q 356 1163 352 1149 q 369 1192 359 1178 q 393 1223 378 1206 l 420 1253 q 446 1288 439 1275 q 452 1316 452 1300 l 452 1322 q 420 1349 448 1349 z "},"Ỹ":{"ha":791,"x_min":39,"x_max":753,"o":"m 753 1013 q 749 997 753 1006 l 533 514 q 458 422 501 441 l 458 28 q 451 8 458 16 q 433 0 444 0 l 357 0 q 339 8 347 0 q 332 28 332 16 l 332 422 q 257 514 291 438 l 43 997 q 39 1013 39 1006 q 45 1026 39 1021 q 62 1032 52 1032 l 147 1032 q 162 1026 154 1032 q 172 1013 170 1019 l 364 562 q 396 526 380 526 q 428 562 412 526 l 621 1013 q 644 1032 631 1032 l 729 1032 q 746 1027 740 1032 q 753 1013 753 1021 m 659 1242 q 627 1132 659 1168 q 528 1096 596 1096 q 439 1125 476 1096 l 354 1193 q 320 1218 331 1213 q 297 1223 310 1223 q 264 1208 273 1223 q 254 1160 254 1192 l 254 1131 q 248 1114 254 1120 q 231 1107 241 1107 l 187 1107 q 171 1114 178 1107 q 165 1131 165 1121 l 165 1160 q 200 1272 165 1234 q 297 1311 235 1311 q 380 1278 338 1311 l 479 1200 q 505 1186 492 1191 q 528 1181 518 1181 q 559 1194 549 1181 q 569 1242 569 1208 l 569 1274 q 576 1290 569 1283 q 593 1297 583 1297 l 636 1297 q 652 1290 645 1297 q 659 1274 659 1282 l 659 1242 z "},"Ỵ":{"ha":791,"x_min":39,"x_max":753,"o":"m 753 1013 q 749 997 753 1006 l 533 514 q 458 422 501 441 l 458 28 q 451 8 458 16 q 433 0 444 0 l 357 0 q 339 8 347 0 q 332 28 332 16 l 332 422 q 257 514 291 438 l 43 997 q 39 1013 39 1006 q 45 1026 39 1021 q 62 1032 52 1032 l 147 1032 q 162 1026 154 1032 q 172 1013 170 1019 l 364 562 q 396 526 380 526 q 428 562 412 526 l 621 1013 q 644 1032 631 1032 l 729 1032 q 746 1027 740 1032 q 753 1013 753 1021 m 453 -199 q 445 -218 453 -211 q 425 -226 437 -226 l 371 -226 q 352 -218 361 -226 q 343 -199 343 -211 l 343 -87 q 352 -68 343 -77 q 371 -59 361 -59 l 425 -59 q 445 -68 437 -59 q 453 -87 453 -77 l 453 -199 z "},"à":{"ha":690,"x_min":54,"x_max":614,"o":"m 614 53 q 593 22 614 27 q 483 -1 538 7 q 358 -9 428 -9 q 125 45 196 -9 q 54 220 54 100 l 54 232 q 87 359 54 310 q 194 433 120 409 q 389 457 267 457 l 492 457 l 492 513 q 458 633 492 600 q 343 667 425 667 q 235 658 280 667 q 131 632 190 650 q 107 633 117 627 q 98 650 98 638 l 98 704 q 118 729 98 721 q 213 759 150 743 q 343 774 275 774 q 614 513 614 774 l 614 53 m 492 98 l 492 368 l 389 368 q 283 361 323 368 q 221 338 244 354 q 188 297 197 321 q 178 233 178 272 l 178 221 q 193 143 178 172 q 248 100 208 113 q 358 86 288 86 q 412 88 386 86 q 458 92 437 90 q 492 98 479 95 m 437 875 q 425 865 437 865 l 350 865 q 338 867 343 865 q 330 873 334 869 q 318 886 326 878 l 161 1061 q 156 1072 156 1067 q 171 1082 156 1082 l 262 1082 q 297 1061 280 1082 l 432 889 q 437 875 437 884 z "},"á":{"ha":690,"x_min":54,"x_max":614,"o":"m 614 53 q 593 22 614 27 q 483 -1 538 7 q 358 -9 428 -9 q 125 45 196 -9 q 54 220 54 100 l 54 232 q 87 359 54 310 q 194 433 120 409 q 389 457 267 457 l 492 457 l 492 513 q 458 633 492 600 q 343 667 425 667 q 235 658 280 667 q 131 632 190 650 q 107 633 117 627 q 98 650 98 638 l 98 704 q 118 729 98 721 q 213 759 150 743 q 343 774 275 774 q 614 513 614 774 l 614 53 m 492 98 l 492 368 l 389 368 q 283 361 323 368 q 221 338 244 354 q 188 297 197 321 q 178 233 178 272 l 178 221 q 193 143 178 172 q 248 100 208 113 q 358 86 288 86 q 412 88 386 86 q 458 92 437 90 q 492 98 479 95 m 559 1072 q 554 1061 559 1067 l 397 886 q 380 869 385 873 q 365 865 375 865 l 290 865 q 277 875 277 865 q 283 889 277 884 l 419 1061 q 435 1078 430 1075 q 452 1082 441 1082 l 544 1082 q 559 1072 559 1082 z "},"ả":{"ha":690,"x_min":54,"x_max":614,"o":"m 614 53 q 593 22 614 27 q 483 -1 538 7 q 358 -9 428 -9 q 125 45 196 -9 q 54 220 54 100 l 54 232 q 87 359 54 310 q 194 433 120 409 q 389 457 267 457 l 492 457 l 492 513 q 458 633 492 600 q 343 667 425 667 q 235 658 280 667 q 131 632 190 650 q 107 633 117 627 q 98 650 98 638 l 98 704 q 118 729 98 721 q 213 759 150 743 q 343 774 275 774 q 614 513 614 774 l 614 53 m 492 98 l 492 368 l 389 368 q 283 361 323 368 q 221 338 244 354 q 188 297 197 321 q 178 233 178 272 l 178 221 q 193 143 178 172 q 248 100 208 113 q 358 86 288 86 q 412 88 386 86 q 458 92 437 90 q 492 98 479 95 m 358 1118 q 344 1118 358 1118 q 309 1113 330 1118 q 256 1099 288 1109 q 218 1119 218 1086 l 218 1147 q 224 1162 218 1156 q 237 1170 231 1167 q 287 1185 255 1178 q 352 1193 319 1193 q 450 1168 413 1193 q 488 1091 488 1144 l 488 1084 q 483 1054 488 1069 q 466 1021 478 1039 q 431 978 454 1004 l 406 949 q 387 926 390 930 q 381 915 384 922 q 378 897 378 907 l 378 869 q 370 851 378 859 q 347 843 361 843 l 321 843 q 299 851 307 843 q 290 869 290 860 l 290 897 q 294 932 290 918 q 307 961 298 947 q 332 992 316 975 l 358 1021 q 384 1056 378 1044 q 390 1084 390 1069 l 390 1091 q 358 1118 387 1118 z "},"ã":{"ha":690,"x_min":54,"x_max":614,"o":"m 614 53 q 593 22 614 27 q 483 -1 538 7 q 358 -9 428 -9 q 125 45 196 -9 q 54 220 54 100 l 54 232 q 87 359 54 310 q 194 433 120 409 q 389 457 267 457 l 492 457 l 492 513 q 458 633 492 600 q 343 667 425 667 q 235 658 280 667 q 131 632 190 650 q 107 633 117 627 q 98 650 98 638 l 98 704 q 118 729 98 721 q 213 759 150 743 q 343 774 275 774 q 614 513 614 774 l 614 53 m 492 98 l 492 368 l 389 368 q 283 361 323 368 q 221 338 244 354 q 188 297 197 321 q 178 233 178 272 l 178 221 q 193 143 178 172 q 248 100 208 113 q 358 86 288 86 q 412 88 386 86 q 458 92 437 90 q 492 98 479 95 m 607 1015 q 576 906 607 942 q 476 869 545 869 q 387 899 425 869 l 302 966 q 269 991 279 986 q 245 997 258 997 q 212 981 222 997 q 203 933 203 966 l 203 904 q 196 887 203 894 q 179 880 189 880 l 136 880 q 120 887 126 880 q 113 904 113 895 l 113 933 q 148 1046 113 1007 q 245 1084 183 1084 q 329 1051 286 1084 l 427 974 q 454 959 441 964 q 476 954 467 954 q 508 968 498 954 q 517 1015 517 981 l 517 1047 q 525 1064 517 1057 q 541 1071 532 1071 l 585 1071 q 600 1063 593 1071 q 607 1047 607 1056 l 607 1015 z "},"ạ":{"ha":690,"x_min":54,"x_max":614,"o":"m 614 53 q 593 22 614 27 q 483 -1 538 7 q 358 -9 428 -9 q 125 45 196 -9 q 54 220 54 100 l 54 232 q 87 359 54 310 q 194 433 120 409 q 389 457 267 457 l 492 457 l 492 513 q 458 633 492 600 q 343 667 425 667 q 235 658 280 667 q 131 632 190 650 q 107 633 117 627 q 98 650 98 638 l 98 704 q 118 729 98 721 q 213 759 150 743 q 343 774 275 774 q 614 513 614 774 l 614 53 m 492 98 l 492 368 l 389 368 q 283 361 323 368 q 221 338 244 354 q 188 297 197 321 q 178 233 178 272 l 178 221 q 193 143 178 172 q 248 100 208 113 q 358 86 288 86 q 412 88 386 86 q 458 92 437 90 q 492 98 479 95 m 390 -199 q 382 -218 390 -211 q 362 -226 374 -226 l 308 -226 q 289 -218 298 -226 q 280 -199 280 -211 l 280 -87 q 289 -68 280 -77 q 308 -59 298 -59 l 362 -59 q 382 -68 374 -59 q 390 -87 390 -77 l 390 -199 z "},"â":{"ha":690,"x_min":54,"x_max":614,"o":"m 614 53 q 593 22 614 27 q 483 -1 538 7 q 358 -9 428 -9 q 125 45 196 -9 q 54 220 54 100 l 54 232 q 87 359 54 310 q 194 433 120 409 q 389 457 267 457 l 492 457 l 492 513 q 458 633 492 600 q 343 667 425 667 q 235 658 280 667 q 131 632 190 650 q 107 633 117 627 q 98 650 98 638 l 98 704 q 118 729 98 721 q 213 759 150 743 q 343 774 275 774 q 614 513 614 774 l 614 53 m 492 98 l 492 368 l 389 368 q 283 361 323 368 q 221 338 244 354 q 188 297 197 321 q 178 233 178 272 l 178 221 q 193 143 178 172 q 248 100 208 113 q 358 86 288 86 q 412 88 386 86 q 458 92 437 90 q 492 98 479 95 m 578 875 q 565 865 578 865 l 493 865 q 478 869 483 865 q 461 886 473 873 l 347 1021 l 232 886 q 215 869 220 873 q 200 865 210 865 l 127 865 q 115 875 115 865 q 121 889 115 884 l 254 1061 q 271 1078 265 1075 q 288 1082 276 1082 l 406 1082 q 440 1061 423 1082 l 572 889 q 578 875 578 884 z "},"ầ":{"ha":690,"x_min":54,"x_max":628,"o":"m 614 53 q 593 22 614 27 q 483 -1 538 7 q 358 -9 428 -9 q 125 45 196 -9 q 54 220 54 100 l 54 232 q 87 359 54 310 q 194 433 120 409 q 389 457 267 457 l 492 457 l 492 513 q 458 633 492 600 q 343 667 425 667 q 235 658 280 667 q 131 632 190 650 q 107 633 117 627 q 98 650 98 638 l 98 704 q 118 729 98 721 q 213 759 150 743 q 343 774 275 774 q 614 513 614 774 l 614 53 m 492 98 l 492 368 l 389 368 q 283 361 323 368 q 221 338 244 354 q 188 297 197 321 q 178 233 178 272 l 178 221 q 193 143 178 172 q 248 100 208 113 q 358 86 288 86 q 412 88 386 86 q 458 92 437 90 q 492 98 479 95 m 628 1025 q 616 1015 628 1015 l 541 1015 q 529 1017 534 1015 q 520 1023 524 1019 q 509 1036 516 1027 l 352 1211 q 347 1222 347 1217 q 361 1232 347 1232 l 453 1232 q 488 1211 471 1232 l 623 1039 q 628 1025 628 1034 m 578 875 q 565 865 578 865 l 493 865 q 478 869 483 865 q 461 886 473 873 l 347 1021 l 232 886 q 215 869 220 873 q 200 865 210 865 l 127 865 q 115 875 115 865 q 121 889 115 884 l 254 1061 q 271 1078 265 1075 q 288 1082 276 1082 l 406 1082 q 440 1061 423 1082 l 572 889 q 578 875 578 884 z "},"ấ":{"ha":690,"x_min":54,"x_max":784,"o":"m 614 53 q 593 22 614 27 q 483 -1 538 7 q 358 -9 428 -9 q 125 45 196 -9 q 54 220 54 100 l 54 232 q 87 359 54 310 q 194 433 120 409 q 389 457 267 457 l 492 457 l 492 513 q 458 633 492 600 q 343 667 425 667 q 235 658 280 667 q 131 632 190 650 q 107 633 117 627 q 98 650 98 638 l 98 704 q 118 729 98 721 q 213 759 150 743 q 343 774 275 774 q 614 513 614 774 l 614 53 m 492 98 l 492 368 l 389 368 q 283 361 323 368 q 221 338 244 354 q 188 297 197 321 q 178 233 178 272 l 178 221 q 193 143 178 172 q 248 100 208 113 q 358 86 288 86 q 412 88 386 86 q 458 92 437 90 q 492 98 479 95 m 784 1229 q 779 1218 784 1223 l 621 1043 q 604 1026 609 1029 q 589 1022 600 1022 l 514 1022 q 502 1031 502 1022 q 507 1046 502 1040 l 644 1218 q 660 1235 654 1232 q 677 1238 665 1238 l 768 1238 q 784 1229 784 1238 m 578 875 q 565 865 578 865 l 493 865 q 478 869 483 865 q 461 886 473 873 l 347 1021 l 232 886 q 215 869 220 873 q 200 865 210 865 l 127 865 q 115 875 115 865 q 121 889 115 884 l 254 1061 q 271 1078 265 1075 q 288 1082 276 1082 l 406 1082 q 440 1061 423 1082 l 572 889 q 578 875 578 884 z "},"ẩ":{"ha":690,"x_min":54,"x_max":686,"o":"m 614 53 q 593 22 614 27 q 483 -1 538 7 q 358 -9 428 -9 q 125 45 196 -9 q 54 220 54 100 l 54 232 q 87 359 54 310 q 194 433 120 409 q 389 457 267 457 l 492 457 l 492 513 q 458 633 492 600 q 343 667 425 667 q 235 658 280 667 q 131 632 190 650 q 107 633 117 627 q 98 650 98 638 l 98 704 q 118 729 98 721 q 213 759 150 743 q 343 774 275 774 q 614 513 614 774 l 614 53 m 492 98 l 492 368 l 389 368 q 283 361 323 368 q 221 338 244 354 q 188 297 197 321 q 178 233 178 272 l 178 221 q 193 143 178 172 q 248 100 208 113 q 358 86 288 86 q 412 88 386 86 q 458 92 437 90 q 492 98 479 95 m 556 1301 q 542 1301 556 1301 q 507 1297 528 1301 q 454 1282 486 1293 q 416 1303 416 1270 l 416 1331 q 422 1345 416 1340 q 435 1354 429 1351 q 485 1369 453 1362 q 550 1377 517 1377 q 648 1352 611 1377 q 686 1275 686 1328 l 686 1268 q 681 1238 686 1253 q 664 1205 676 1223 q 629 1162 652 1187 l 604 1133 q 585 1110 588 1114 q 579 1098 582 1105 q 576 1081 576 1091 l 576 1053 q 568 1035 576 1043 q 545 1027 559 1027 l 519 1027 q 497 1035 505 1027 q 488 1053 488 1044 l 488 1081 q 492 1116 488 1101 q 505 1145 496 1131 q 530 1176 514 1159 l 556 1205 q 582 1240 576 1227 q 588 1268 588 1253 l 588 1275 q 556 1301 585 1301 m 578 875 q 565 865 578 865 l 493 865 q 478 869 483 865 q 461 886 473 873 l 347 1021 l 232 886 q 215 869 220 873 q 200 865 210 865 l 127 865 q 115 875 115 865 q 121 889 115 884 l 254 1061 q 271 1078 265 1075 q 288 1082 276 1082 l 406 1082 q 440 1061 423 1082 l 572 889 q 578 875 578 884 z "},"ẫ":{"ha":690,"x_min":54,"x_max":648,"o":"m 614 53 q 593 22 614 27 q 483 -1 538 7 q 358 -9 428 -9 q 125 45 196 -9 q 54 220 54 100 l 54 232 q 87 359 54 310 q 194 433 120 409 q 389 457 267 457 l 492 457 l 492 513 q 458 633 492 600 q 343 667 425 667 q 235 658 280 667 q 131 632 190 650 q 107 633 117 627 q 98 650 98 638 l 98 704 q 118 729 98 721 q 213 759 150 743 q 343 774 275 774 q 614 513 614 774 l 614 53 m 492 98 l 492 368 l 389 368 q 283 361 323 368 q 221 338 244 354 q 188 297 197 321 q 178 233 178 272 l 178 221 q 193 143 178 172 q 248 100 208 113 q 358 86 288 86 q 412 88 386 86 q 458 92 437 90 q 492 98 479 95 m 648 1233 q 616 1123 648 1160 q 517 1087 585 1087 q 428 1116 465 1087 l 343 1184 q 310 1209 320 1204 q 286 1215 299 1215 q 253 1199 262 1215 q 243 1151 243 1183 l 243 1122 q 237 1105 243 1112 q 220 1098 230 1098 l 176 1098 q 160 1105 167 1098 q 154 1122 154 1112 l 154 1151 q 189 1263 154 1225 q 286 1302 224 1302 q 370 1269 327 1302 l 468 1192 q 494 1177 481 1182 q 517 1172 507 1172 q 548 1185 538 1172 q 558 1233 558 1199 l 558 1265 q 565 1281 558 1274 q 582 1289 572 1289 l 625 1289 q 641 1281 634 1289 q 648 1265 648 1274 l 648 1233 m 578 875 q 565 865 578 865 l 493 865 q 478 869 483 865 q 461 886 473 873 l 347 1021 l 232 886 q 215 869 220 873 q 200 865 210 865 l 127 865 q 115 875 115 865 q 121 889 115 884 l 254 1061 q 271 1078 265 1075 q 288 1082 276 1082 l 406 1082 q 440 1061 423 1082 l 572 889 q 578 875 578 884 z "},"ậ":{"ha":690,"x_min":54,"x_max":614,"o":"m 614 53 q 593 22 614 27 q 483 -1 538 7 q 358 -9 428 -9 q 125 45 196 -9 q 54 220 54 100 l 54 232 q 87 359 54 310 q 194 433 120 409 q 389 457 267 457 l 492 457 l 492 513 q 458 633 492 600 q 343 667 425 667 q 235 658 280 667 q 131 632 190 650 q 107 633 117 627 q 98 650 98 638 l 98 704 q 118 729 98 721 q 213 759 150 743 q 343 774 275 774 q 614 513 614 774 l 614 53 m 492 98 l 492 368 l 389 368 q 283 361 323 368 q 221 338 244 354 q 188 297 197 321 q 178 233 178 272 l 178 221 q 193 143 178 172 q 248 100 208 113 q 358 86 288 86 q 412 88 386 86 q 458 92 437 90 q 492 98 479 95 m 390 -199 q 382 -218 390 -211 q 362 -226 374 -226 l 308 -226 q 289 -218 298 -226 q 280 -199 280 -211 l 280 -87 q 289 -68 280 -77 q 308 -59 298 -59 l 362 -59 q 382 -68 374 -59 q 390 -87 390 -77 l 390 -199 m 578 875 q 565 865 578 865 l 493 865 q 478 869 483 865 q 461 886 473 873 l 347 1021 l 232 886 q 215 869 220 873 q 200 865 210 865 l 127 865 q 115 875 115 865 q 121 889 115 884 l 254 1061 q 271 1078 265 1075 q 288 1082 276 1082 l 406 1082 q 440 1061 423 1082 l 572 889 q 578 875 578 884 z "},"ă":{"ha":690,"x_min":54,"x_max":614,"o":"m 614 53 q 593 22 614 27 q 483 -1 538 7 q 358 -9 428 -9 q 125 45 196 -9 q 54 220 54 100 l 54 232 q 87 359 54 310 q 194 433 120 409 q 389 457 267 457 l 492 457 l 492 513 q 458 633 492 600 q 343 667 425 667 q 235 658 280 667 q 131 632 190 650 q 107 633 117 627 q 98 650 98 638 l 98 704 q 118 729 98 721 q 213 759 150 743 q 343 774 275 774 q 614 513 614 774 l 614 53 m 492 98 l 492 368 l 389 368 q 283 361 323 368 q 221 338 244 354 q 188 297 197 321 q 178 233 178 272 l 178 221 q 193 143 178 172 q 248 100 208 113 q 358 86 288 86 q 412 88 386 86 q 458 92 437 90 q 492 98 479 95 m 591 1044 l 591 1038 q 553 931 587 976 q 470 865 520 887 q 365 842 420 842 q 259 865 310 842 q 176 931 209 887 q 138 1038 143 975 l 138 1044 q 153 1061 138 1061 l 205 1061 q 226 1040 224 1061 q 272 958 232 987 q 365 928 312 928 q 458 958 418 928 q 504 1040 498 987 q 524 1061 506 1061 l 576 1061 q 591 1044 591 1061 z "},"ằ":{"ha":690,"x_min":54,"x_max":614,"o":"m 614 53 q 593 22 614 27 q 483 -1 538 7 q 358 -9 428 -9 q 125 45 196 -9 q 54 220 54 100 l 54 232 q 87 359 54 310 q 194 433 120 409 q 389 457 267 457 l 492 457 l 492 513 q 458 633 492 600 q 343 667 425 667 q 235 658 280 667 q 131 632 190 650 q 107 633 117 627 q 98 650 98 638 l 98 704 q 118 729 98 721 q 213 759 150 743 q 343 774 275 774 q 614 513 614 774 l 614 53 m 492 98 l 492 368 l 389 368 q 283 361 323 368 q 221 338 244 354 q 188 297 197 321 q 178 233 178 272 l 178 221 q 193 143 178 172 q 248 100 208 113 q 358 86 288 86 q 412 88 386 86 q 458 92 437 90 q 492 98 479 95 m 444 1025 q 432 1015 444 1015 l 357 1015 q 345 1017 350 1015 q 336 1023 340 1019 q 325 1036 332 1027 l 168 1211 q 163 1222 163 1217 q 178 1232 163 1232 l 269 1232 q 304 1211 287 1232 l 439 1039 q 444 1025 444 1034 m 591 1044 l 591 1038 q 553 931 587 976 q 470 865 520 887 q 365 842 420 842 q 259 865 310 842 q 176 931 209 887 q 138 1038 143 975 l 138 1044 q 153 1061 138 1061 l 205 1061 q 226 1040 224 1061 q 272 958 232 987 q 365 928 312 928 q 458 958 418 928 q 504 1040 498 987 q 524 1061 506 1061 l 576 1061 q 591 1044 591 1061 z "},"ắ":{"ha":690,"x_min":54,"x_max":614,"o":"m 614 53 q 593 22 614 27 q 483 -1 538 7 q 358 -9 428 -9 q 125 45 196 -9 q 54 220 54 100 l 54 232 q 87 359 54 310 q 194 433 120 409 q 389 457 267 457 l 492 457 l 492 513 q 458 633 492 600 q 343 667 425 667 q 235 658 280 667 q 131 632 190 650 q 107 633 117 627 q 98 650 98 638 l 98 704 q 118 729 98 721 q 213 759 150 743 q 343 774 275 774 q 614 513 614 774 l 614 53 m 492 98 l 492 368 l 389 368 q 283 361 323 368 q 221 338 244 354 q 188 297 197 321 q 178 233 178 272 l 178 221 q 193 143 178 172 q 248 100 208 113 q 358 86 288 86 q 412 88 386 86 q 458 92 437 90 q 492 98 479 95 m 593 1229 q 588 1218 593 1223 l 431 1043 q 414 1026 418 1029 q 399 1022 409 1022 l 323 1022 q 311 1031 311 1022 q 317 1046 311 1040 l 453 1218 q 469 1235 464 1232 q 486 1238 475 1238 l 578 1238 q 593 1229 593 1238 m 591 1044 l 591 1038 q 553 931 587 976 q 470 865 520 887 q 365 842 420 842 q 259 865 310 842 q 176 931 209 887 q 138 1038 143 975 l 138 1044 q 153 1061 138 1061 l 205 1061 q 226 1040 224 1061 q 272 958 232 987 q 365 928 312 928 q 458 958 418 928 q 504 1040 498 987 q 524 1061 506 1061 l 576 1061 q 591 1044 591 1061 z "},"ẳ":{"ha":690,"x_min":54,"x_max":614,"o":"m 614 53 q 593 22 614 27 q 483 -1 538 7 q 358 -9 428 -9 q 125 45 196 -9 q 54 220 54 100 l 54 232 q 87 359 54 310 q 194 433 120 409 q 389 457 267 457 l 492 457 l 492 513 q 458 633 492 600 q 343 667 425 667 q 235 658 280 667 q 131 632 190 650 q 107 633 117 627 q 98 650 98 638 l 98 704 q 118 729 98 721 q 213 759 150 743 q 343 774 275 774 q 614 513 614 774 l 614 53 m 492 98 l 492 368 l 389 368 q 283 361 323 368 q 221 338 244 354 q 188 297 197 321 q 178 233 178 272 l 178 221 q 193 143 178 172 q 248 100 208 113 q 358 86 288 86 q 412 88 386 86 q 458 92 437 90 q 492 98 479 95 m 393 1301 q 378 1301 393 1301 q 343 1297 364 1301 q 291 1282 322 1293 q 252 1303 252 1270 l 252 1331 q 259 1345 252 1340 q 272 1354 265 1351 q 321 1369 290 1362 q 387 1377 353 1377 q 485 1352 448 1377 q 522 1275 522 1328 l 522 1268 q 517 1238 522 1253 q 500 1205 513 1223 q 466 1162 488 1187 l 440 1133 q 421 1110 425 1114 q 416 1098 418 1105 q 413 1081 413 1091 l 413 1053 q 404 1035 413 1043 q 381 1027 395 1027 l 356 1027 q 333 1035 342 1027 q 325 1053 325 1044 l 325 1081 q 329 1116 325 1101 q 341 1145 332 1131 q 366 1176 351 1159 l 393 1205 q 418 1240 412 1227 q 425 1268 425 1253 l 425 1275 q 393 1301 421 1301 m 591 1044 l 591 1038 q 553 931 587 976 q 470 865 520 887 q 365 842 420 842 q 259 865 310 842 q 176 931 209 887 q 138 1038 143 975 l 138 1044 q 153 1061 138 1061 l 205 1061 q 226 1040 224 1061 q 272 958 232 987 q 365 928 312 928 q 458 958 418 928 q 504 1040 498 987 q 524 1061 506 1061 l 576 1061 q 591 1044 591 1061 z "},"ẵ":{"ha":690,"x_min":54,"x_max":648,"o":"m 614 53 q 593 22 614 27 q 483 -1 538 7 q 358 -9 428 -9 q 125 45 196 -9 q 54 220 54 100 l 54 232 q 87 359 54 310 q 194 433 120 409 q 389 457 267 457 l 492 457 l 492 513 q 458 633 492 600 q 343 667 425 667 q 235 658 280 667 q 131 632 190 650 q 107 633 117 627 q 98 650 98 638 l 98 704 q 118 729 98 721 q 213 759 150 743 q 343 774 275 774 q 614 513 614 774 l 614 53 m 492 98 l 492 368 l 389 368 q 283 361 323 368 q 221 338 244 354 q 188 297 197 321 q 178 233 178 272 l 178 221 q 193 143 178 172 q 248 100 208 113 q 358 86 288 86 q 412 88 386 86 q 458 92 437 90 q 492 98 479 95 m 648 1233 q 616 1123 648 1160 q 517 1087 585 1087 q 428 1116 465 1087 l 343 1184 q 310 1209 320 1204 q 286 1215 299 1215 q 253 1199 262 1215 q 243 1151 243 1183 l 243 1122 q 237 1105 243 1112 q 220 1098 230 1098 l 176 1098 q 160 1105 167 1098 q 154 1122 154 1112 l 154 1151 q 189 1263 154 1225 q 286 1302 224 1302 q 370 1269 327 1302 l 468 1192 q 494 1177 481 1182 q 517 1172 507 1172 q 548 1185 538 1172 q 558 1233 558 1199 l 558 1265 q 565 1281 558 1274 q 582 1289 572 1289 l 625 1289 q 641 1281 634 1289 q 648 1265 648 1274 l 648 1233 m 591 1044 l 591 1038 q 553 931 587 976 q 470 865 520 887 q 365 842 420 842 q 259 865 310 842 q 176 931 209 887 q 138 1038 143 975 l 138 1044 q 153 1061 138 1061 l 205 1061 q 226 1040 224 1061 q 272 958 232 987 q 365 928 312 928 q 458 958 418 928 q 504 1040 498 987 q 524 1061 506 1061 l 576 1061 q 591 1044 591 1061 z "},"ặ":{"ha":690,"x_min":54,"x_max":614,"o":"m 614 53 q 593 22 614 27 q 483 -1 538 7 q 358 -9 428 -9 q 125 45 196 -9 q 54 220 54 100 l 54 232 q 87 359 54 310 q 194 433 120 409 q 389 457 267 457 l 492 457 l 492 513 q 458 633 492 600 q 343 667 425 667 q 235 658 280 667 q 131 632 190 650 q 107 633 117 627 q 98 650 98 638 l 98 704 q 118 729 98 721 q 213 759 150 743 q 343 774 275 774 q 614 513 614 774 l 614 53 m 492 98 l 492 368 l 389 368 q 283 361 323 368 q 221 338 244 354 q 188 297 197 321 q 178 233 178 272 l 178 221 q 193 143 178 172 q 248 100 208 113 q 358 86 288 86 q 412 88 386 86 q 458 92 437 90 q 492 98 479 95 m 390 -199 q 382 -218 390 -211 q 362 -226 374 -226 l 308 -226 q 289 -218 298 -226 q 280 -199 280 -211 l 280 -87 q 289 -68 280 -77 q 308 -59 298 -59 l 362 -59 q 382 -68 374 -59 q 390 -87 390 -77 l 390 -199 m 591 1044 l 591 1038 q 553 931 587 976 q 470 865 520 887 q 365 842 420 842 q 259 865 310 842 q 176 931 209 887 q 138 1038 143 975 l 138 1044 q 153 1061 138 1061 l 205 1061 q 226 1040 224 1061 q 272 958 232 987 q 365 928 312 928 q 458 958 418 928 q 504 1040 498 987 q 524 1061 506 1061 l 576 1061 q 591 1044 591 1061 z "},"è":{"ha":728,"x_min":56,"x_max":669,"o":"m 371 97 q 461 106 417 97 q 548 129 506 115 q 616 154 591 144 q 640 155 631 161 q 648 136 648 149 l 648 79 q 629 54 648 65 q 371 -9 509 -9 q 213 21 284 -9 q 99 126 142 52 q 56 323 56 201 l 56 449 q 137 687 56 600 q 364 774 218 774 q 531 734 463 774 q 635 621 600 694 q 669 449 669 547 l 669 374 q 643 343 669 343 l 178 343 l 178 323 q 225 150 178 203 q 371 97 272 97 m 546 436 l 546 449 q 526 574 546 526 q 466 645 506 623 q 364 667 426 667 q 178 449 178 667 l 178 436 l 546 436 m 484 875 q 471 865 484 865 l 396 865 q 385 867 389 865 q 376 873 380 869 q 364 886 372 878 l 208 1061 q 202 1072 202 1067 q 217 1082 202 1082 l 309 1082 q 343 1061 326 1082 l 478 889 q 484 875 484 884 z "},"é":{"ha":728,"x_min":56,"x_max":669,"o":"m 371 97 q 461 106 417 97 q 548 129 506 115 q 616 154 591 144 q 640 155 631 161 q 648 136 648 149 l 648 79 q 629 54 648 65 q 371 -9 509 -9 q 213 21 284 -9 q 99 126 142 52 q 56 323 56 201 l 56 449 q 137 687 56 600 q 364 774 218 774 q 531 734 463 774 q 635 621 600 694 q 669 449 669 547 l 669 374 q 643 343 669 343 l 178 343 l 178 323 q 225 150 178 203 q 371 97 272 97 m 546 436 l 546 449 q 526 574 546 526 q 466 645 506 623 q 364 667 426 667 q 178 449 178 667 l 178 436 l 546 436 m 589 1072 q 583 1061 589 1067 l 426 886 q 409 869 414 873 q 394 865 404 865 l 319 865 q 307 875 307 865 q 312 889 307 884 l 448 1061 q 465 1078 459 1075 q 481 1082 470 1082 l 573 1082 q 589 1072 589 1082 z "},"ẻ":{"ha":728,"x_min":56,"x_max":669,"o":"m 371 97 q 461 106 417 97 q 548 129 506 115 q 616 154 591 144 q 640 155 631 161 q 648 136 648 149 l 648 79 q 629 54 648 65 q 371 -9 509 -9 q 213 21 284 -9 q 99 126 142 52 q 56 323 56 201 l 56 449 q 137 687 56 600 q 364 774 218 774 q 531 734 463 774 q 635 621 600 694 q 669 449 669 547 l 669 374 q 643 343 669 343 l 178 343 l 178 323 q 225 150 178 203 q 371 97 272 97 m 546 436 l 546 449 q 526 574 546 526 q 466 645 506 623 q 364 667 426 667 q 178 449 178 667 l 178 436 l 546 436 m 372 1104 q 357 1104 372 1104 q 322 1100 343 1104 q 270 1085 301 1095 q 231 1105 231 1072 l 231 1133 q 238 1148 231 1143 q 251 1156 244 1154 q 300 1172 269 1164 q 366 1179 332 1179 q 464 1155 427 1179 q 501 1078 501 1131 l 501 1071 q 496 1040 501 1055 q 479 1008 492 1025 q 445 964 467 990 l 419 935 q 400 912 404 917 q 395 901 397 908 q 392 884 392 894 l 392 855 q 383 838 392 846 q 360 829 374 829 l 335 829 q 312 838 321 829 q 304 855 304 846 l 304 884 q 308 919 304 904 q 320 947 311 933 q 345 979 330 962 l 372 1008 q 397 1043 391 1030 q 404 1071 404 1055 l 404 1078 q 372 1104 400 1104 z "},"ẽ":{"ha":728,"x_min":56,"x_max":669,"o":"m 371 97 q 461 106 417 97 q 548 129 506 115 q 616 154 591 144 q 640 155 631 161 q 648 136 648 149 l 648 79 q 629 54 648 65 q 371 -9 509 -9 q 213 21 284 -9 q 99 126 142 52 q 56 323 56 201 l 56 449 q 137 687 56 600 q 364 774 218 774 q 531 734 463 774 q 635 621 600 694 q 669 449 669 547 l 669 374 q 643 343 669 343 l 178 343 l 178 323 q 225 150 178 203 q 371 97 272 97 m 546 436 l 546 449 q 526 574 546 526 q 466 645 506 623 q 364 667 426 667 q 178 449 178 667 l 178 436 l 546 436 m 607 1015 q 576 906 607 942 q 476 869 545 869 q 387 899 425 869 l 302 966 q 269 991 279 986 q 245 997 258 997 q 212 981 222 997 q 203 933 203 966 l 203 904 q 196 887 203 894 q 179 880 189 880 l 136 880 q 120 887 126 880 q 113 904 113 895 l 113 933 q 148 1046 113 1007 q 245 1084 183 1084 q 329 1051 286 1084 l 427 974 q 454 959 441 964 q 476 954 467 954 q 508 968 498 954 q 517 1015 517 981 l 517 1047 q 525 1064 517 1057 q 541 1071 532 1071 l 585 1071 q 600 1063 593 1071 q 607 1047 607 1056 l 607 1015 z "},"ẹ":{"ha":728,"x_min":56,"x_max":669,"o":"m 371 97 q 461 106 417 97 q 548 129 506 115 q 616 154 591 144 q 640 155 631 161 q 648 136 648 149 l 648 79 q 629 54 648 65 q 371 -9 509 -9 q 213 21 284 -9 q 99 126 142 52 q 56 323 56 201 l 56 449 q 137 687 56 600 q 364 774 218 774 q 531 734 463 774 q 635 621 600 694 q 669 449 669 547 l 669 374 q 643 343 669 343 l 178 343 l 178 323 q 225 150 178 203 q 371 97 272 97 m 546 436 l 546 449 q 526 574 546 526 q 466 645 506 623 q 364 667 426 667 q 178 449 178 667 l 178 436 l 546 436 m 390 -199 q 382 -218 390 -211 q 362 -226 374 -226 l 308 -226 q 289 -218 298 -226 q 280 -199 280 -211 l 280 -87 q 289 -68 280 -77 q 308 -59 298 -59 l 362 -59 q 382 -68 374 -59 q 390 -87 390 -77 l 390 -199 z "},"ê":{"ha":728,"x_min":56,"x_max":669,"o":"m 371 97 q 461 106 417 97 q 548 129 506 115 q 616 154 591 144 q 640 155 631 161 q 648 136 648 149 l 648 79 q 629 54 648 65 q 371 -9 509 -9 q 213 21 284 -9 q 99 126 142 52 q 56 323 56 201 l 56 449 q 137 687 56 600 q 364 774 218 774 q 531 734 463 774 q 635 621 600 694 q 669 449 669 547 l 669 374 q 643 343 669 343 l 178 343 l 178 323 q 225 150 178 203 q 371 97 272 97 m 546 436 l 546 449 q 526 574 546 526 q 466 645 506 623 q 364 667 426 667 q 178 449 178 667 l 178 436 l 546 436 m 596 854 q 583 845 596 845 l 511 845 q 496 849 501 845 q 479 866 492 852 l 366 1000 l 250 866 q 233 849 239 853 q 218 845 228 845 l 146 845 q 134 854 134 845 q 139 869 134 863 l 273 1041 q 289 1058 283 1055 q 306 1061 294 1061 l 424 1061 q 458 1041 441 1061 l 591 869 q 596 854 596 863 z "},"ề":{"ha":728,"x_min":56,"x_max":669,"o":"m 371 97 q 461 106 417 97 q 548 129 506 115 q 616 154 591 144 q 640 155 631 161 q 648 136 648 149 l 648 79 q 629 54 648 65 q 371 -9 509 -9 q 213 21 284 -9 q 99 126 142 52 q 56 323 56 201 l 56 449 q 137 687 56 600 q 364 774 218 774 q 531 734 463 774 q 635 621 600 694 q 669 449 669 547 l 669 374 q 643 343 669 343 l 178 343 l 178 323 q 225 150 178 203 q 371 97 272 97 m 546 436 l 546 449 q 526 574 546 526 q 466 645 506 623 q 364 667 426 667 q 178 449 178 667 l 178 436 l 546 436 m 633 1011 q 621 1002 633 1002 l 545 1002 q 534 1004 538 1002 q 525 1010 529 1006 q 513 1023 521 1014 l 357 1198 q 351 1208 351 1203 q 366 1218 351 1218 l 458 1218 q 492 1198 475 1218 l 627 1025 q 633 1011 633 1020 m 596 854 q 583 845 596 845 l 511 845 q 496 849 501 845 q 479 866 492 852 l 366 1000 l 250 866 q 233 849 239 853 q 218 845 228 845 l 146 845 q 134 854 134 845 q 139 869 134 863 l 273 1041 q 289 1058 283 1055 q 306 1061 294 1061 l 424 1061 q 458 1041 441 1061 l 591 869 q 596 854 596 863 z "},"ế":{"ha":728,"x_min":56,"x_max":786,"o":"m 371 97 q 461 106 417 97 q 548 129 506 115 q 616 154 591 144 q 640 155 631 161 q 648 136 648 149 l 648 79 q 629 54 648 65 q 371 -9 509 -9 q 213 21 284 -9 q 99 126 142 52 q 56 323 56 201 l 56 449 q 137 687 56 600 q 364 774 218 774 q 531 734 463 774 q 635 621 600 694 q 669 449 669 547 l 669 374 q 643 343 669 343 l 178 343 l 178 323 q 225 150 178 203 q 371 97 272 97 m 546 436 l 546 449 q 526 574 546 526 q 466 645 506 623 q 364 667 426 667 q 178 449 178 667 l 178 436 l 546 436 m 786 1229 q 781 1218 786 1223 l 623 1043 q 606 1026 611 1029 q 591 1022 602 1022 l 516 1022 q 504 1031 504 1022 q 509 1046 504 1040 l 646 1218 q 662 1235 656 1232 q 679 1238 667 1238 l 770 1238 q 786 1229 786 1238 m 596 854 q 583 845 596 845 l 511 845 q 496 849 501 845 q 479 866 492 852 l 366 1000 l 250 866 q 233 849 239 853 q 218 845 228 845 l 146 845 q 134 854 134 845 q 139 869 134 863 l 273 1041 q 289 1058 283 1055 q 306 1061 294 1061 l 424 1061 q 458 1041 441 1061 l 591 869 q 596 854 596 863 z "},"ể":{"ha":728,"x_min":56,"x_max":699,"o":"m 371 97 q 461 106 417 97 q 548 129 506 115 q 616 154 591 144 q 640 155 631 161 q 648 136 648 149 l 648 79 q 629 54 648 65 q 371 -9 509 -9 q 213 21 284 -9 q 99 126 142 52 q 56 323 56 201 l 56 449 q 137 687 56 600 q 364 774 218 774 q 531 734 463 774 q 635 621 600 694 q 669 449 669 547 l 669 374 q 643 343 669 343 l 178 343 l 178 323 q 225 150 178 203 q 371 97 272 97 m 546 436 l 546 449 q 526 574 546 526 q 466 645 506 623 q 364 667 426 667 q 178 449 178 667 l 178 436 l 546 436 m 569 1288 q 555 1288 569 1288 q 519 1283 541 1288 q 467 1269 498 1279 q 429 1289 429 1256 l 429 1317 q 435 1332 429 1326 q 448 1340 441 1337 q 498 1356 466 1348 q 563 1363 530 1363 q 661 1339 624 1363 q 699 1261 699 1314 l 699 1255 q 694 1224 699 1239 q 677 1192 689 1209 q 642 1148 665 1174 l 616 1119 q 598 1096 601 1101 q 592 1085 595 1092 q 589 1067 589 1078 l 589 1039 q 581 1021 589 1029 q 557 1013 572 1013 l 532 1013 q 510 1022 518 1013 q 501 1039 501 1030 l 501 1067 q 505 1102 501 1088 q 518 1131 509 1117 q 543 1162 527 1145 l 569 1192 q 595 1226 589 1214 q 601 1255 601 1239 l 601 1261 q 569 1288 597 1288 m 596 854 q 583 845 596 845 l 511 845 q 496 849 501 845 q 479 866 492 852 l 366 1000 l 250 866 q 233 849 239 853 q 218 845 228 845 l 146 845 q 134 854 134 845 q 139 869 134 863 l 273 1041 q 289 1058 283 1055 q 306 1061 294 1061 l 424 1061 q 458 1041 441 1061 l 591 869 q 596 854 596 863 z "},"ễ":{"ha":728,"x_min":56,"x_max":669,"o":"m 371 97 q 461 106 417 97 q 548 129 506 115 q 616 154 591 144 q 640 155 631 161 q 648 136 648 149 l 648 79 q 629 54 648 65 q 371 -9 509 -9 q 213 21 284 -9 q 99 126 142 52 q 56 323 56 201 l 56 449 q 137 687 56 600 q 364 774 218 774 q 531 734 463 774 q 635 621 600 694 q 669 449 669 547 l 669 374 q 643 343 669 343 l 178 343 l 178 323 q 225 150 178 203 q 371 97 272 97 m 546 436 l 546 449 q 526 574 546 526 q 466 645 506 623 q 364 667 426 667 q 178 449 178 667 l 178 436 l 546 436 m 668 1206 q 637 1096 668 1133 q 537 1060 606 1060 q 448 1089 486 1060 l 363 1157 q 330 1182 340 1177 q 307 1187 319 1187 q 273 1172 283 1187 q 264 1124 264 1156 l 264 1095 q 257 1078 264 1084 q 240 1071 250 1071 l 197 1071 q 181 1078 187 1071 q 174 1095 174 1085 l 174 1124 q 209 1236 174 1198 q 307 1275 244 1275 q 390 1242 347 1275 l 488 1164 q 515 1150 502 1155 q 537 1145 528 1145 q 569 1158 559 1145 q 578 1206 578 1172 l 578 1238 q 586 1254 578 1247 q 602 1261 593 1261 l 646 1261 q 661 1254 654 1261 q 668 1238 668 1246 l 668 1206 m 596 854 q 583 845 596 845 l 511 845 q 496 849 501 845 q 479 866 492 852 l 366 1000 l 250 866 q 233 849 239 853 q 218 845 228 845 l 146 845 q 134 854 134 845 q 139 869 134 863 l 273 1041 q 289 1058 283 1055 q 306 1061 294 1061 l 424 1061 q 458 1041 441 1061 l 591 869 q 596 854 596 863 z "},"ệ":{"ha":728,"x_min":56,"x_max":669,"o":"m 371 97 q 461 106 417 97 q 548 129 506 115 q 616 154 591 144 q 640 155 631 161 q 648 136 648 149 l 648 79 q 629 54 648 65 q 371 -9 509 -9 q 213 21 284 -9 q 99 126 142 52 q 56 323 56 201 l 56 449 q 137 687 56 600 q 364 774 218 774 q 531 734 463 774 q 635 621 600 694 q 669 449 669 547 l 669 374 q 643 343 669 343 l 178 343 l 178 323 q 225 150 178 203 q 371 97 272 97 m 546 436 l 546 449 q 526 574 546 526 q 466 645 506 623 q 364 667 426 667 q 178 449 178 667 l 178 436 l 546 436 m 390 -199 q 382 -218 390 -211 q 362 -226 374 -226 l 308 -226 q 289 -218 298 -226 q 280 -199 280 -211 l 280 -87 q 289 -68 280 -77 q 308 -59 298 -59 l 362 -59 q 382 -68 374 -59 q 390 -87 390 -77 l 390 -199 m 596 854 q 583 845 596 845 l 511 845 q 496 849 501 845 q 479 866 492 852 l 366 1000 l 250 866 q 233 849 239 853 q 218 845 228 845 l 146 845 q 134 854 134 845 q 139 869 134 863 l 273 1041 q 289 1058 283 1055 q 306 1061 294 1061 l 424 1061 q 458 1041 441 1061 l 591 869 q 596 854 596 863 z "},"ì":{"ha":301,"x_min":-44,"x_max":237,"o":"m 211 28 q 203 8 211 16 q 183 0 195 0 l 117 0 q 98 8 106 0 q 89 28 89 16 l 89 736 q 97 755 89 747 q 117 764 105 764 l 183 764 q 203 756 196 764 q 211 736 211 749 l 211 28 m 237 875 q 225 865 237 865 l 150 865 q 138 867 143 865 q 130 873 134 869 q 118 886 125 878 l -39 1061 q -44 1072 -44 1067 q -29 1082 -44 1082 l 62 1082 q 97 1061 80 1082 l 232 889 q 237 875 237 884 z "},"í":{"ha":301,"x_min":75,"x_max":357,"o":"m 211 28 q 203 8 211 16 q 183 0 195 0 l 117 0 q 98 8 106 0 q 89 28 89 16 l 89 736 q 97 755 89 747 q 117 764 105 764 l 183 764 q 203 756 196 764 q 211 736 211 749 l 211 28 m 357 1072 q 351 1061 357 1067 l 194 886 q 177 869 182 873 q 162 865 172 865 l 87 865 q 75 875 75 865 q 80 889 75 884 l 216 1061 q 233 1078 227 1075 q 250 1082 238 1082 l 341 1082 q 357 1072 357 1082 z "},"ỉ":{"ha":301,"x_min":26,"x_max":296,"o":"m 211 28 q 203 8 211 16 q 183 0 195 0 l 117 0 q 98 8 106 0 q 89 28 89 16 l 89 736 q 97 755 89 747 q 117 764 105 764 l 183 764 q 203 756 196 764 q 211 736 211 749 l 211 28 m 167 1104 q 153 1104 167 1104 q 117 1100 138 1104 q 65 1085 96 1095 q 26 1105 26 1072 l 26 1133 q 33 1148 26 1143 q 46 1156 39 1154 q 96 1172 64 1164 q 161 1179 127 1179 q 259 1155 222 1179 q 296 1078 296 1131 l 296 1071 q 292 1040 296 1055 q 275 1008 287 1025 q 240 964 262 990 l 214 935 q 196 912 199 917 q 190 901 193 908 q 187 884 187 894 l 187 855 q 178 838 187 846 q 155 829 170 829 l 130 829 q 107 838 116 829 q 99 855 99 846 l 99 884 q 103 919 99 904 q 116 947 106 933 q 140 979 125 962 l 167 1008 q 193 1043 186 1030 q 199 1071 199 1055 l 199 1078 q 167 1104 195 1104 z "},"ĩ":{"ha":301,"x_min":-71,"x_max":423,"o":"m 211 28 q 203 8 211 16 q 183 0 195 0 l 117 0 q 98 8 106 0 q 89 28 89 16 l 89 736 q 97 755 89 747 q 117 764 105 764 l 183 764 q 203 756 196 764 q 211 736 211 749 l 211 28 m 423 1002 q 392 892 423 928 q 292 856 361 856 q 203 885 241 856 l 119 953 q 85 978 96 972 q 62 983 75 983 q 28 968 38 983 q 19 920 19 952 l 19 890 q 12 873 19 880 q -5 867 5 867 l -48 867 q -64 874 -58 867 q -71 890 -71 881 l -71 920 q -36 1032 -71 994 q 62 1071 -1 1071 q 145 1038 102 1071 l 243 960 q 270 946 257 951 q 292 941 283 941 q 324 954 314 941 q 334 1002 334 968 l 334 1034 q 341 1050 334 1043 q 357 1057 348 1057 l 401 1057 q 416 1050 410 1057 q 423 1034 423 1042 l 423 1002 z "},"ị":{"ha":301,"x_min":87,"x_max":214,"o":"m 214 914 q 205 894 214 902 q 186 886 197 886 l 115 886 q 96 895 104 886 q 87 914 87 903 l 87 1025 q 95 1044 87 1036 q 115 1053 103 1053 l 186 1053 q 206 1045 199 1053 q 214 1025 214 1038 l 214 914 m 211 28 q 203 8 211 16 q 183 0 195 0 l 117 0 q 98 8 106 0 q 89 28 89 16 l 89 736 q 97 755 89 747 q 117 764 105 764 l 183 764 q 203 756 196 764 q 211 736 211 749 l 211 28 m 206 -199 q 198 -218 206 -211 q 178 -226 190 -226 l 124 -226 q 105 -218 114 -226 q 96 -199 96 -211 l 96 -87 q 105 -68 96 -77 q 124 -59 114 -59 l 178 -59 q 198 -68 190 -59 q 206 -87 206 -77 l 206 -199 z "},"ò":{"ha":729,"x_min":56,"x_max":673,"o":"m 673 329 q 594 82 673 173 q 364 -9 514 -9 q 135 82 215 -9 q 56 329 56 173 l 56 435 q 135 683 56 591 q 364 774 215 774 q 594 683 514 774 q 673 435 673 591 l 673 329 m 551 329 l 551 435 q 531 559 551 507 q 470 639 511 611 q 364 667 428 667 q 224 606 270 667 q 178 435 178 545 l 178 329 q 364 97 178 97 q 505 157 458 97 q 551 329 551 218 m 444 875 q 432 865 444 865 l 357 865 q 345 867 350 865 q 336 873 340 869 q 325 886 332 878 l 168 1061 q 163 1072 163 1067 q 178 1082 163 1082 l 269 1082 q 304 1061 287 1082 l 439 889 q 444 875 444 884 z "},"ó":{"ha":729,"x_min":56,"x_max":673,"o":"m 673 329 q 594 82 673 173 q 364 -9 514 -9 q 135 82 215 -9 q 56 329 56 173 l 56 435 q 135 683 56 591 q 364 774 215 774 q 594 683 514 774 q 673 435 673 591 l 673 329 m 551 329 l 551 435 q 531 559 551 507 q 470 639 511 611 q 364 667 428 667 q 224 606 270 667 q 178 435 178 545 l 178 329 q 364 97 178 97 q 505 157 458 97 q 551 329 551 218 m 578 1072 q 572 1061 578 1067 l 415 886 q 398 869 403 873 q 383 865 393 865 l 308 865 q 296 875 296 865 q 301 889 296 884 l 437 1061 q 454 1078 448 1075 q 471 1082 459 1082 l 562 1082 q 578 1072 578 1082 z "},"ỏ":{"ha":729,"x_min":56,"x_max":673,"o":"m 673 329 q 594 82 673 173 q 364 -9 514 -9 q 135 82 215 -9 q 56 329 56 173 l 56 435 q 135 683 56 591 q 364 774 215 774 q 594 683 514 774 q 673 435 673 591 l 673 329 m 551 329 l 551 435 q 531 559 551 507 q 470 639 511 611 q 364 667 428 667 q 224 606 270 667 q 178 435 178 545 l 178 329 q 364 97 178 97 q 505 157 458 97 q 551 329 551 218 m 372 1104 q 357 1104 372 1104 q 322 1100 343 1104 q 270 1085 301 1095 q 231 1105 231 1072 l 231 1133 q 238 1148 231 1143 q 251 1156 244 1154 q 300 1172 269 1164 q 366 1179 332 1179 q 464 1155 427 1179 q 501 1078 501 1131 l 501 1071 q 496 1040 501 1055 q 479 1008 492 1025 q 445 964 467 990 l 419 935 q 400 912 404 917 q 395 901 397 908 q 392 884 392 894 l 392 855 q 383 838 392 846 q 360 829 374 829 l 335 829 q 312 838 321 829 q 304 855 304 846 l 304 884 q 308 919 304 904 q 320 947 311 933 q 345 979 330 962 l 372 1008 q 397 1043 391 1030 q 404 1071 404 1055 l 404 1078 q 372 1104 400 1104 z "},"õ":{"ha":729,"x_min":56,"x_max":673,"o":"m 673 329 q 594 82 673 173 q 364 -9 514 -9 q 135 82 215 -9 q 56 329 56 173 l 56 435 q 135 683 56 591 q 364 774 215 774 q 594 683 514 774 q 673 435 673 591 l 673 329 m 551 329 l 551 435 q 531 559 551 507 q 470 639 511 611 q 364 667 428 667 q 224 606 270 667 q 178 435 178 545 l 178 329 q 364 97 178 97 q 505 157 458 97 q 551 329 551 218 m 619 1015 q 588 906 619 942 q 488 869 557 869 q 399 899 437 869 l 315 966 q 281 991 292 986 q 258 997 271 997 q 224 981 234 997 q 215 933 215 966 l 215 904 q 208 887 215 894 q 191 880 201 880 l 148 880 q 132 887 138 880 q 125 904 125 895 l 125 933 q 160 1046 125 1007 q 258 1084 195 1084 q 341 1051 298 1084 l 439 974 q 466 959 453 964 q 488 954 479 954 q 520 968 510 954 q 530 1015 530 981 l 530 1047 q 537 1064 530 1057 q 553 1071 544 1071 l 597 1071 q 612 1063 606 1071 q 619 1047 619 1056 l 619 1015 z "},"ọ":{"ha":729,"x_min":56,"x_max":673,"o":"m 673 329 q 594 82 673 173 q 364 -9 514 -9 q 135 82 215 -9 q 56 329 56 173 l 56 435 q 135 683 56 591 q 364 774 215 774 q 594 683 514 774 q 673 435 673 591 l 673 329 m 551 329 l 551 435 q 531 559 551 507 q 470 639 511 611 q 364 667 428 667 q 224 606 270 667 q 178 435 178 545 l 178 329 q 364 97 178 97 q 505 157 458 97 q 551 329 551 218 m 420 -199 q 412 -218 420 -211 q 392 -226 404 -226 l 338 -226 q 319 -218 328 -226 q 310 -199 310 -211 l 310 -87 q 319 -68 310 -77 q 338 -59 328 -59 l 392 -59 q 412 -68 404 -59 q 420 -87 420 -77 l 420 -199 z "},"ô":{"ha":729,"x_min":56,"x_max":673,"o":"m 673 329 q 594 82 673 173 q 364 -9 514 -9 q 135 82 215 -9 q 56 329 56 173 l 56 435 q 135 683 56 591 q 364 774 215 774 q 594 683 514 774 q 673 435 673 591 l 673 329 m 551 329 l 551 435 q 531 559 551 507 q 470 639 511 611 q 364 667 428 667 q 224 606 270 667 q 178 435 178 545 l 178 329 q 364 97 178 97 q 505 157 458 97 q 551 329 551 218 m 597 875 q 585 865 597 865 l 513 865 q 498 869 503 865 q 481 886 493 873 l 367 1021 l 252 886 q 235 869 240 873 q 220 865 229 865 l 147 865 q 135 875 135 865 q 140 889 135 884 l 274 1061 q 290 1078 285 1075 q 307 1082 296 1082 l 425 1082 q 460 1061 443 1082 l 592 889 q 597 875 597 884 z "},"ồ":{"ha":729,"x_min":56,"x_max":673,"o":"m 673 329 q 594 82 673 173 q 364 -9 514 -9 q 135 82 215 -9 q 56 329 56 173 l 56 435 q 135 683 56 591 q 364 774 215 774 q 594 683 514 774 q 673 435 673 591 l 673 329 m 551 329 l 551 435 q 531 559 551 507 q 470 639 511 611 q 364 667 428 667 q 224 606 270 667 q 178 435 178 545 l 178 329 q 364 97 178 97 q 505 157 458 97 q 551 329 551 218 m 635 1031 q 623 1022 635 1022 l 547 1022 q 536 1024 541 1022 q 527 1030 531 1026 q 515 1043 523 1034 l 359 1218 q 353 1229 353 1223 q 368 1238 353 1238 l 460 1238 q 494 1218 477 1238 l 629 1046 q 635 1031 635 1040 m 597 875 q 585 865 597 865 l 513 865 q 498 869 503 865 q 481 886 493 873 l 367 1021 l 252 886 q 235 869 240 873 q 220 865 229 865 l 147 865 q 135 875 135 865 q 140 889 135 884 l 274 1061 q 290 1078 285 1075 q 307 1082 296 1082 l 425 1082 q 460 1061 443 1082 l 592 889 q 597 875 597 884 z "},"ố":{"ha":729,"x_min":56,"x_max":795,"o":"m 673 329 q 594 82 673 173 q 364 -9 514 -9 q 135 82 215 -9 q 56 329 56 173 l 56 435 q 135 683 56 591 q 364 774 215 774 q 594 683 514 774 q 673 435 673 591 l 673 329 m 551 329 l 551 435 q 531 559 551 507 q 470 639 511 611 q 364 667 428 667 q 224 606 270 667 q 178 435 178 545 l 178 329 q 364 97 178 97 q 505 157 458 97 q 551 329 551 218 m 795 1229 q 790 1218 795 1223 l 633 1043 q 616 1026 621 1029 q 601 1022 611 1022 l 526 1022 q 513 1031 513 1022 q 519 1046 513 1040 l 655 1218 q 671 1235 666 1232 q 688 1238 677 1238 l 780 1238 q 795 1229 795 1238 m 597 875 q 585 865 597 865 l 513 865 q 498 869 503 865 q 481 886 493 873 l 367 1021 l 252 886 q 235 869 240 873 q 220 865 229 865 l 147 865 q 135 875 135 865 q 140 889 135 884 l 274 1061 q 290 1078 285 1075 q 307 1082 296 1082 l 425 1082 q 460 1061 443 1082 l 592 889 q 597 875 597 884 z "},"ổ":{"ha":729,"x_min":56,"x_max":713,"o":"m 673 329 q 594 82 673 173 q 364 -9 514 -9 q 135 82 215 -9 q 56 329 56 173 l 56 435 q 135 683 56 591 q 364 774 215 774 q 594 683 514 774 q 673 435 673 591 l 673 329 m 551 329 l 551 435 q 531 559 551 507 q 470 639 511 611 q 364 667 428 667 q 224 606 270 667 q 178 435 178 545 l 178 329 q 364 97 178 97 q 505 157 458 97 q 551 329 551 218 m 583 1288 q 569 1288 583 1288 q 534 1283 555 1288 q 481 1269 513 1279 q 443 1289 443 1256 l 443 1317 q 449 1332 443 1326 q 463 1340 456 1337 q 512 1356 480 1348 q 577 1363 544 1363 q 675 1339 638 1363 q 713 1261 713 1314 l 713 1255 q 708 1224 713 1239 q 691 1192 703 1209 q 656 1148 679 1174 l 631 1119 q 612 1096 615 1101 q 606 1085 609 1092 q 604 1067 604 1078 l 604 1039 q 595 1021 604 1029 q 572 1013 586 1013 l 547 1013 q 524 1022 532 1013 q 515 1039 515 1030 l 515 1067 q 519 1102 515 1088 q 532 1131 523 1117 q 557 1162 541 1145 l 583 1192 q 609 1226 603 1214 q 615 1255 615 1239 l 615 1261 q 583 1288 612 1288 m 597 875 q 585 865 597 865 l 513 865 q 498 869 503 865 q 481 886 493 873 l 367 1021 l 252 886 q 235 869 240 873 q 220 865 229 865 l 147 865 q 135 875 135 865 q 140 889 135 884 l 274 1061 q 290 1078 285 1075 q 307 1082 296 1082 l 425 1082 q 460 1061 443 1082 l 592 889 q 597 875 597 884 z "},"ỗ":{"ha":729,"x_min":56,"x_max":673,"o":"m 673 329 q 594 82 673 173 q 364 -9 514 -9 q 135 82 215 -9 q 56 329 56 173 l 56 435 q 135 683 56 591 q 364 774 215 774 q 594 683 514 774 q 673 435 673 591 l 673 329 m 551 329 l 551 435 q 531 559 551 507 q 470 639 511 611 q 364 667 428 667 q 224 606 270 667 q 178 435 178 545 l 178 329 q 364 97 178 97 q 505 157 458 97 q 551 329 551 218 m 667 1233 q 635 1123 667 1160 q 536 1087 604 1087 q 447 1116 484 1087 l 362 1184 q 329 1209 339 1204 q 305 1215 318 1215 q 272 1199 281 1215 q 262 1151 262 1183 l 262 1122 q 256 1105 262 1112 q 239 1098 249 1098 l 195 1098 q 179 1105 186 1098 q 173 1122 173 1112 l 173 1151 q 208 1263 173 1225 q 305 1302 243 1302 q 389 1269 346 1302 l 487 1192 q 513 1177 500 1182 q 536 1172 526 1172 q 567 1185 557 1172 q 577 1233 577 1199 l 577 1265 q 584 1281 577 1274 q 601 1289 591 1289 l 644 1289 q 660 1281 653 1289 q 667 1265 667 1274 l 667 1233 m 597 875 q 585 865 597 865 l 513 865 q 498 869 503 865 q 481 886 493 873 l 367 1021 l 252 886 q 235 869 240 873 q 220 865 229 865 l 147 865 q 135 875 135 865 q 140 889 135 884 l 274 1061 q 290 1078 285 1075 q 307 1082 296 1082 l 425 1082 q 460 1061 443 1082 l 592 889 q 597 875 597 884 z "},"ộ":{"ha":729,"x_min":56,"x_max":673,"o":"m 673 329 q 594 82 673 173 q 364 -9 514 -9 q 135 82 215 -9 q 56 329 56 173 l 56 435 q 135 683 56 591 q 364 774 215 774 q 594 683 514 774 q 673 435 673 591 l 673 329 m 551 329 l 551 435 q 531 559 551 507 q 470 639 511 611 q 364 667 428 667 q 224 606 270 667 q 178 435 178 545 l 178 329 q 364 97 178 97 q 505 157 458 97 q 551 329 551 218 m 420 -199 q 412 -218 420 -211 q 392 -226 404 -226 l 338 -226 q 319 -218 328 -226 q 310 -199 310 -211 l 310 -87 q 319 -68 310 -77 q 338 -59 328 -59 l 392 -59 q 412 -68 404 -59 q 420 -87 420 -77 l 420 -199 m 597 875 q 585 865 597 865 l 513 865 q 498 869 503 865 q 481 886 493 873 l 367 1021 l 252 886 q 235 869 240 873 q 220 865 229 865 l 147 865 q 135 875 135 865 q 140 889 135 884 l 274 1061 q 290 1078 285 1075 q 307 1082 296 1082 l 425 1082 q 460 1061 443 1082 l 592 889 q 597 875 597 884 z "},"ù":{"ha":737,"x_min":77,"x_max":661,"o":"m 77 281 l 77 736 q 84 755 77 747 q 104 764 92 764 l 171 764 q 191 755 182 764 q 199 736 199 747 l 199 281 q 236 136 199 178 q 359 94 274 94 q 446 102 391 94 q 539 119 500 109 l 539 736 q 547 755 539 747 q 567 764 555 764 l 635 764 q 654 755 646 764 q 661 736 661 747 l 661 66 q 636 33 661 41 q 349 -9 469 -9 q 186 24 246 -9 q 101 122 125 58 q 77 281 77 185 m 449 875 q 437 865 449 865 l 361 865 q 350 867 355 865 q 341 873 345 869 q 330 886 337 878 l 173 1061 q 168 1072 168 1067 q 182 1082 168 1082 l 274 1082 q 309 1061 292 1082 l 444 889 q 449 875 449 884 z "},"ú":{"ha":737,"x_min":77,"x_max":661,"o":"m 77 281 l 77 736 q 84 755 77 747 q 104 764 92 764 l 171 764 q 191 755 182 764 q 199 736 199 747 l 199 281 q 236 136 199 178 q 359 94 274 94 q 446 102 391 94 q 539 119 500 109 l 539 736 q 547 755 539 747 q 567 764 555 764 l 635 764 q 654 755 646 764 q 661 736 661 747 l 661 66 q 636 33 661 41 q 349 -9 469 -9 q 186 24 246 -9 q 101 122 125 58 q 77 281 77 185 m 585 1072 q 579 1061 585 1067 l 422 886 q 405 869 410 873 q 390 865 400 865 l 315 865 q 302 875 302 865 q 308 889 302 884 l 444 1061 q 460 1078 455 1075 q 477 1082 466 1082 l 569 1082 q 585 1072 585 1082 z "},"ủ":{"ha":737,"x_min":77,"x_max":661,"o":"m 77 281 l 77 736 q 84 755 77 747 q 104 764 92 764 l 171 764 q 191 755 182 764 q 199 736 199 747 l 199 281 q 236 136 199 178 q 359 94 274 94 q 446 102 391 94 q 539 119 500 109 l 539 736 q 547 755 539 747 q 567 764 555 764 l 635 764 q 654 755 646 764 q 661 736 661 747 l 661 66 q 636 33 661 41 q 349 -9 469 -9 q 186 24 246 -9 q 101 122 125 58 q 77 281 77 185 m 385 1104 q 371 1104 385 1104 q 336 1100 357 1104 q 283 1085 315 1095 q 245 1105 245 1072 l 245 1133 q 251 1148 245 1143 q 264 1156 258 1154 q 314 1172 282 1164 q 379 1179 346 1179 q 477 1155 440 1179 q 515 1078 515 1131 l 515 1071 q 510 1040 515 1055 q 493 1008 505 1025 q 458 964 481 990 l 433 935 q 414 912 417 917 q 408 901 411 908 q 406 884 406 894 l 406 855 q 397 838 406 846 q 374 829 388 829 l 349 829 q 326 838 334 829 q 317 855 317 846 l 317 884 q 321 919 317 904 q 334 947 325 933 q 359 979 343 962 l 385 1008 q 411 1043 405 1030 q 417 1071 417 1055 l 417 1078 q 385 1104 414 1104 z "},"ũ":{"ha":737,"x_min":77,"x_max":661,"o":"m 77 281 l 77 736 q 84 755 77 747 q 104 764 92 764 l 171 764 q 191 755 182 764 q 199 736 199 747 l 199 281 q 236 136 199 178 q 359 94 274 94 q 446 102 391 94 q 539 119 500 109 l 539 736 q 547 755 539 747 q 567 764 555 764 l 635 764 q 654 755 646 764 q 661 736 661 747 l 661 66 q 636 33 661 41 q 349 -9 469 -9 q 186 24 246 -9 q 101 122 125 58 q 77 281 77 185 m 619 1015 q 588 906 619 942 q 488 869 557 869 q 399 899 437 869 l 315 966 q 281 991 292 986 q 258 997 271 997 q 224 981 234 997 q 215 933 215 966 l 215 904 q 208 887 215 894 q 191 880 201 880 l 148 880 q 132 887 138 880 q 125 904 125 895 l 125 933 q 160 1046 125 1007 q 258 1084 195 1084 q 341 1051 298 1084 l 439 974 q 466 959 453 964 q 488 954 479 954 q 520 968 510 954 q 530 1015 530 981 l 530 1047 q 537 1064 530 1057 q 553 1071 544 1071 l 597 1071 q 612 1063 606 1071 q 619 1047 619 1056 l 619 1015 z "},"ụ":{"ha":737,"x_min":77,"x_max":661,"o":"m 77 281 l 77 736 q 84 755 77 747 q 104 764 92 764 l 171 764 q 191 755 182 764 q 199 736 199 747 l 199 281 q 236 136 199 178 q 359 94 274 94 q 446 102 391 94 q 539 119 500 109 l 539 736 q 547 755 539 747 q 567 764 555 764 l 635 764 q 654 755 646 764 q 661 736 661 747 l 661 66 q 636 33 661 41 q 349 -9 469 -9 q 186 24 246 -9 q 101 122 125 58 q 77 281 77 185 m 420 -199 q 412 -218 420 -211 q 392 -226 404 -226 l 338 -226 q 319 -218 328 -226 q 310 -199 310 -211 l 310 -87 q 319 -68 310 -77 q 338 -59 328 -59 l 392 -59 q 412 -68 404 -59 q 420 -87 420 -77 l 420 -199 z "},"ư":{"ha":737,"x_min":77,"x_max":806,"o":"m 77 281 l 77 736 q 84 755 77 747 q 104 764 92 764 l 171 764 q 191 755 182 764 q 199 736 199 747 l 199 281 q 236 136 199 178 q 359 94 274 94 q 446 102 391 94 q 539 119 500 109 l 539 736 q 547 755 539 747 q 567 764 555 764 l 635 764 q 654 755 646 764 q 661 736 661 747 l 661 66 q 636 33 661 41 q 349 -9 469 -9 q 186 24 246 -9 q 101 122 125 58 q 77 281 77 185 m 784 749 q 615 492 806 516 l 607 587 q 686 675 683 618 l 686 747 q 709 763 685 762 l 765 763 q 784 749 781 763 z "},"ừ":{"ha":737,"x_min":77,"x_max":803,"o":"m 449 875 q 437 865 449 865 l 361 865 q 350 867 355 865 q 341 873 345 869 q 330 886 337 878 l 173 1061 q 168 1072 168 1067 q 182 1082 168 1082 l 274 1082 q 309 1061 292 1082 l 444 889 q 449 875 449 884 m 661 502 l 661 66 q 636 33 661 41 q 349 -9 469 -9 q 186 24 246 -9 q 101 122 125 58 q 77 281 77 185 l 77 736 q 84 755 77 747 q 104 764 92 764 l 171 764 q 191 755 182 764 q 199 736 199 747 l 199 281 q 236 136 199 178 q 359 94 274 94 q 446 102 391 94 q 539 119 500 109 l 539 736 q 547 755 539 747 q 567 764 555 764 l 635 764 q 654 755 646 764 q 661 736 661 747 l 661 621 q 686 675 684 644 l 686 747 q 709 763 685 762 l 765 763 q 784 749 781 763 q 661 502 803 547 z "},"ứ":{"ha":737,"x_min":77,"x_max":803,"o":"m 585 1072 q 579 1061 585 1067 l 422 886 q 405 869 410 873 q 390 865 400 865 l 315 865 q 302 875 302 865 q 308 889 302 884 l 444 1061 q 460 1078 455 1075 q 477 1082 466 1082 l 569 1082 q 585 1072 585 1082 m 661 502 l 661 66 q 636 33 661 41 q 349 -9 469 -9 q 186 24 246 -9 q 101 122 125 58 q 77 281 77 185 l 77 736 q 84 755 77 747 q 104 764 92 764 l 171 764 q 191 755 182 764 q 199 736 199 747 l 199 281 q 236 136 199 178 q 359 94 274 94 q 446 102 391 94 q 539 119 500 109 l 539 736 q 547 755 539 747 q 567 764 555 764 l 635 764 q 654 755 646 764 q 661 736 661 747 l 661 621 q 686 675 684 644 l 686 747 q 709 763 685 762 l 765 763 q 784 749 781 763 q 661 502 803 547 z "},"ử":{"ha":737,"x_min":77,"x_max":803,"o":"m 385 1104 q 371 1104 385 1104 q 336 1100 357 1104 q 283 1085 315 1095 q 245 1105 245 1072 l 245 1133 q 251 1148 245 1143 q 264 1156 258 1154 q 314 1172 282 1164 q 379 1179 346 1179 q 477 1155 440 1179 q 515 1078 515 1131 l 515 1071 q 510 1040 515 1055 q 493 1008 505 1025 q 458 964 481 990 l 433 935 q 414 912 417 917 q 408 901 411 908 q 406 884 406 894 l 406 855 q 397 838 406 846 q 374 829 388 829 l 349 829 q 326 838 334 829 q 317 855 317 846 l 317 884 q 321 919 317 904 q 334 947 325 933 q 359 979 343 962 l 385 1008 q 411 1043 405 1030 q 417 1071 417 1055 l 417 1078 q 385 1104 414 1104 m 661 502 l 661 66 q 636 33 661 41 q 349 -9 469 -9 q 186 24 246 -9 q 101 122 125 58 q 77 281 77 185 l 77 736 q 84 755 77 747 q 104 764 92 764 l 171 764 q 191 755 182 764 q 199 736 199 747 l 199 281 q 236 136 199 178 q 359 94 274 94 q 446 102 391 94 q 539 119 500 109 l 539 736 q 547 755 539 747 q 567 764 555 764 l 635 764 q 654 755 646 764 q 661 736 661 747 l 661 621 q 686 675 684 644 l 686 747 q 709 763 685 762 l 765 763 q 784 749 781 763 q 661 502 803 547 z "},"ữ":{"ha":737,"x_min":77,"x_max":803,"o":"m 619 1015 q 588 906 619 942 q 488 869 557 869 q 399 899 437 869 l 315 966 q 281 991 292 986 q 258 997 271 997 q 224 981 234 997 q 215 933 215 966 l 215 904 q 208 887 215 894 q 191 880 201 880 l 148 880 q 132 887 138 880 q 125 904 125 895 l 125 933 q 160 1046 125 1007 q 258 1084 195 1084 q 341 1051 298 1084 l 439 974 q 466 959 453 964 q 488 954 479 954 q 520 968 510 954 q 530 1015 530 981 l 530 1047 q 537 1064 530 1057 q 553 1071 544 1071 l 597 1071 q 612 1063 606 1071 q 619 1047 619 1056 l 619 1015 m 661 502 l 661 66 q 636 33 661 41 q 349 -9 469 -9 q 186 24 246 -9 q 101 122 125 58 q 77 281 77 185 l 77 736 q 84 755 77 747 q 104 764 92 764 l 171 764 q 191 755 182 764 q 199 736 199 747 l 199 281 q 236 136 199 178 q 359 94 274 94 q 446 102 391 94 q 539 119 500 109 l 539 736 q 547 755 539 747 q 567 764 555 764 l 635 764 q 654 755 646 764 q 661 736 661 747 l 661 621 q 686 675 684 644 l 686 747 q 709 763 685 762 l 765 763 q 784 749 781 763 q 661 502 803 547 z "},"ự":{"ha":737,"x_min":77,"x_max":806,"o":"m 77 281 l 77 736 q 84 755 77 747 q 104 764 92 764 l 171 764 q 191 755 182 764 q 199 736 199 747 l 199 281 q 236 136 199 178 q 359 94 274 94 q 446 102 391 94 q 539 119 500 109 l 539 736 q 547 755 539 747 q 567 764 555 764 l 635 764 q 654 755 646 764 q 661 736 661 747 l 661 66 q 636 33 661 41 q 349 -9 469 -9 q 186 24 246 -9 q 101 122 125 58 q 77 281 77 185 m 420 -199 q 412 -218 420 -211 q 392 -226 404 -226 l 338 -226 q 319 -218 328 -226 q 310 -199 310 -211 l 310 -87 q 319 -68 310 -77 q 338 -59 328 -59 l 392 -59 q 412 -68 404 -59 q 420 -87 420 -77 l 420 -199 m 784 749 q 615 492 806 516 l 607 587 q 686 675 683 618 l 686 747 q 709 763 685 762 l 765 763 q 784 749 781 763 z "},"ơ":{"ha":729,"x_min":56,"x_max":772,"o":"m 673 329 q 594 82 673 173 q 364 -9 514 -9 q 135 82 215 -9 q 56 329 56 173 l 56 435 q 135 683 56 591 q 364 774 215 774 q 594 683 514 774 q 673 435 673 591 l 673 329 m 551 329 l 551 435 q 531 559 551 507 q 470 639 511 611 q 364 667 428 667 q 224 606 270 667 q 178 435 178 545 l 178 329 q 364 97 178 97 q 505 157 458 97 q 551 329 551 218 m 751 749 q 582 492 772 516 l 574 587 q 652 675 650 618 l 652 747 q 675 763 652 762 l 732 763 q 751 749 747 763 z "},"ờ":{"ha":729,"x_min":56,"x_max":767,"o":"m 551 329 l 551 435 q 531 559 551 507 q 470 639 511 611 q 364 667 428 667 q 224 606 270 667 q 178 435 178 545 l 178 329 q 364 97 178 97 q 505 157 458 97 q 551 329 551 218 m 444 875 q 432 865 444 865 l 357 865 q 345 867 350 865 q 336 873 340 869 q 325 886 332 878 l 168 1061 q 163 1072 163 1067 q 178 1082 163 1082 l 269 1082 q 304 1061 287 1082 l 439 889 q 444 875 444 884 m 667 519 q 673 435 673 479 l 673 329 q 594 82 673 173 q 364 -9 514 -9 q 135 82 215 -9 q 56 329 56 173 l 56 435 q 135 683 56 591 q 364 774 215 774 q 594 683 514 774 q 633 625 616 656 q 652 675 651 647 l 652 747 q 675 763 652 762 l 732 763 q 751 749 747 763 q 667 519 767 577 z "},"ớ":{"ha":729,"x_min":56,"x_max":767,"o":"m 551 329 l 551 435 q 531 559 551 507 q 470 639 511 611 q 364 667 428 667 q 224 606 270 667 q 178 435 178 545 l 178 329 q 364 97 178 97 q 505 157 458 97 q 551 329 551 218 m 578 1072 q 572 1061 578 1067 l 415 886 q 398 869 403 873 q 383 865 393 865 l 308 865 q 296 875 296 865 q 301 889 296 884 l 437 1061 q 454 1078 448 1075 q 471 1082 459 1082 l 562 1082 q 578 1072 578 1082 m 667 519 q 673 435 673 479 l 673 329 q 594 82 673 173 q 364 -9 514 -9 q 135 82 215 -9 q 56 329 56 173 l 56 435 q 135 683 56 591 q 364 774 215 774 q 594 683 514 774 q 633 625 616 656 q 652 675 651 647 l 652 747 q 675 763 652 762 l 732 763 q 751 749 747 763 q 667 519 767 577 z "},"ở":{"ha":729,"x_min":56,"x_max":767,"o":"m 551 329 l 551 435 q 531 559 551 507 q 470 639 511 611 q 364 667 428 667 q 224 606 270 667 q 178 435 178 545 l 178 329 q 364 97 178 97 q 505 157 458 97 q 551 329 551 218 m 372 1104 q 357 1104 372 1104 q 322 1100 343 1104 q 270 1085 301 1095 q 231 1105 231 1072 l 231 1133 q 238 1148 231 1143 q 251 1156 244 1154 q 300 1172 269 1164 q 366 1179 332 1179 q 464 1155 427 1179 q 501 1078 501 1131 l 501 1071 q 496 1040 501 1055 q 479 1008 492 1025 q 445 964 467 990 l 419 935 q 400 912 404 917 q 395 901 397 908 q 392 884 392 894 l 392 855 q 383 838 392 846 q 360 829 374 829 l 335 829 q 312 838 321 829 q 304 855 304 846 l 304 884 q 308 919 304 904 q 320 947 311 933 q 345 979 330 962 l 372 1008 q 397 1043 391 1030 q 404 1071 404 1055 l 404 1078 q 372 1104 400 1104 m 667 519 q 673 435 673 479 l 673 329 q 594 82 673 173 q 364 -9 514 -9 q 135 82 215 -9 q 56 329 56 173 l 56 435 q 135 683 56 591 q 364 774 215 774 q 594 683 514 774 q 633 625 616 656 q 652 675 651 647 l 652 747 q 675 763 652 762 l 732 763 q 751 749 747 763 q 667 519 767 577 z "},"ỡ":{"ha":729,"x_min":56,"x_max":767,"o":"m 551 329 l 551 435 q 531 559 551 507 q 470 639 511 611 q 364 667 428 667 q 224 606 270 667 q 178 435 178 545 l 178 329 q 364 97 178 97 q 505 157 458 97 q 551 329 551 218 m 619 1015 q 588 906 619 942 q 488 869 557 869 q 399 899 437 869 l 315 966 q 281 991 292 986 q 258 997 271 997 q 224 981 234 997 q 215 933 215 966 l 215 904 q 208 887 215 894 q 191 880 201 880 l 148 880 q 132 887 138 880 q 125 904 125 895 l 125 933 q 160 1046 125 1007 q 258 1084 195 1084 q 341 1051 298 1084 l 439 974 q 466 959 453 964 q 488 954 479 954 q 520 968 510 954 q 530 1015 530 981 l 530 1047 q 537 1064 530 1057 q 553 1071 544 1071 l 597 1071 q 612 1063 606 1071 q 619 1047 619 1056 l 619 1015 m 667 519 q 673 435 673 479 l 673 329 q 594 82 673 173 q 364 -9 514 -9 q 135 82 215 -9 q 56 329 56 173 l 56 435 q 135 683 56 591 q 364 774 215 774 q 594 683 514 774 q 633 625 616 656 q 652 675 651 647 l 652 747 q 675 763 652 762 l 732 763 q 751 749 747 763 q 667 519 767 577 z "},"ợ":{"ha":729,"x_min":56,"x_max":767,"o":"m 551 329 l 551 435 q 531 559 551 507 q 470 639 511 611 q 364 667 428 667 q 224 606 270 667 q 178 435 178 545 l 178 329 q 364 97 178 97 q 505 157 458 97 q 551 329 551 218 m 420 -199 q 412 -218 420 -211 q 392 -226 404 -226 l 338 -226 q 319 -218 328 -226 q 310 -199 310 -211 l 310 -87 q 319 -68 310 -77 q 338 -59 328 -59 l 392 -59 q 412 -68 404 -59 q 420 -87 420 -77 l 420 -199 m 667 519 q 673 435 673 479 l 673 329 q 594 82 673 173 q 364 -9 514 -9 q 135 82 215 -9 q 56 329 56 173 l 56 435 q 135 683 56 591 q 364 774 215 774 q 594 683 514 774 q 633 625 616 656 q 652 675 651 647 l 652 747 q 675 763 652 762 l 732 763 q 751 749 747 763 q 667 519 767 577 z "},"ỳ":{"ha":722,"x_min":45,"x_max":677,"o":"m 677 741 q 676 730 677 733 l 447 -69 q 396 -192 425 -149 q 320 -255 368 -235 q 193 -275 273 -275 q 77 -262 132 -275 q 47 -240 47 -256 l 47 -189 q 74 -167 47 -167 l 78 -167 q 201 -175 170 -175 q 293 -151 263 -175 q 339 -57 322 -127 l 353 0 l 334 0 q 273 18 296 0 q 231 96 249 35 l 46 730 q 45 741 45 733 q 69 764 45 764 l 146 764 q 161 757 154 764 q 170 742 168 750 l 334 139 q 359 109 341 109 l 382 109 l 551 743 q 561 758 553 752 q 578 764 568 764 l 656 764 q 677 741 677 764 m 449 875 q 437 865 449 865 l 361 865 q 350 867 355 865 q 341 873 345 869 q 330 886 337 878 l 173 1061 q 168 1072 168 1067 q 182 1082 168 1082 l 274 1082 q 309 1061 292 1082 l 444 889 q 449 875 449 884 z "},"ý":{"ha":722,"x_min":45,"x_max":677,"o":"m 677 741 q 676 730 677 733 l 447 -69 q 396 -192 425 -149 q 320 -255 368 -235 q 193 -275 273 -275 q 77 -262 132 -275 q 47 -240 47 -256 l 47 -189 q 74 -167 47 -167 l 78 -167 q 201 -175 170 -175 q 293 -151 263 -175 q 339 -57 322 -127 l 353 0 l 334 0 q 273 18 296 0 q 231 96 249 35 l 46 730 q 45 741 45 733 q 69 764 45 764 l 146 764 q 161 757 154 764 q 170 742 168 750 l 334 139 q 359 109 341 109 l 382 109 l 551 743 q 561 758 553 752 q 578 764 568 764 l 656 764 q 677 741 677 764 m 585 1072 q 579 1061 585 1067 l 422 886 q 405 869 410 873 q 390 865 400 865 l 315 865 q 302 875 302 865 q 308 889 302 884 l 444 1061 q 460 1078 455 1075 q 477 1082 466 1082 l 569 1082 q 585 1072 585 1082 z "},"ỷ":{"ha":722,"x_min":45,"x_max":677,"o":"m 677 741 q 676 730 677 733 l 447 -69 q 396 -192 425 -149 q 320 -255 368 -235 q 193 -275 273 -275 q 77 -262 132 -275 q 47 -240 47 -256 l 47 -189 q 74 -167 47 -167 l 78 -167 q 201 -175 170 -175 q 293 -151 263 -175 q 339 -57 322 -127 l 353 0 l 334 0 q 273 18 296 0 q 231 96 249 35 l 46 730 q 45 741 45 733 q 69 764 45 764 l 146 764 q 161 757 154 764 q 170 742 168 750 l 334 139 q 359 109 341 109 l 382 109 l 551 743 q 561 758 553 752 q 578 764 568 764 l 656 764 q 677 741 677 764 m 385 1104 q 371 1104 385 1104 q 336 1100 357 1104 q 283 1085 315 1095 q 245 1105 245 1072 l 245 1133 q 251 1148 245 1143 q 264 1156 258 1154 q 314 1172 282 1164 q 379 1179 346 1179 q 477 1155 440 1179 q 515 1078 515 1131 l 515 1071 q 510 1040 515 1055 q 493 1008 505 1025 q 458 964 481 990 l 433 935 q 414 912 417 917 q 408 901 411 908 q 406 884 406 894 l 406 855 q 397 838 406 846 q 374 829 388 829 l 349 829 q 326 838 334 829 q 317 855 317 846 l 317 884 q 321 919 317 904 q 334 947 325 933 q 359 979 343 962 l 385 1008 q 411 1043 405 1030 q 417 1071 417 1055 l 417 1078 q 385 1104 414 1104 z "},"ỹ":{"ha":722,"x_min":45,"x_max":677,"o":"m 677 741 q 676 730 677 733 l 447 -69 q 396 -192 425 -149 q 320 -255 368 -235 q 193 -275 273 -275 q 77 -262 132 -275 q 47 -240 47 -256 l 47 -189 q 74 -167 47 -167 l 78 -167 q 201 -175 170 -175 q 293 -151 263 -175 q 339 -57 322 -127 l 353 0 l 334 0 q 273 18 296 0 q 231 96 249 35 l 46 730 q 45 741 45 733 q 69 764 45 764 l 146 764 q 161 757 154 764 q 170 742 168 750 l 334 139 q 359 109 341 109 l 382 109 l 551 743 q 561 758 553 752 q 578 764 568 764 l 656 764 q 677 741 677 764 m 619 1015 q 588 906 619 942 q 488 869 557 869 q 399 899 437 869 l 315 966 q 281 991 292 986 q 258 997 271 997 q 224 981 234 997 q 215 933 215 966 l 215 904 q 208 887 215 894 q 191 880 201 880 l 148 880 q 132 887 138 880 q 125 904 125 895 l 125 933 q 160 1046 125 1007 q 258 1084 195 1084 q 341 1051 298 1084 l 439 974 q 466 959 453 964 q 488 954 479 954 q 520 968 510 954 q 530 1015 530 981 l 530 1047 q 537 1064 530 1057 q 553 1071 544 1071 l 597 1071 q 612 1063 606 1071 q 619 1047 619 1056 l 619 1015 z "},"ỵ":{"ha":722,"x_min":45,"x_max":677,"o":"m 677 741 q 676 730 677 733 l 447 -69 q 396 -192 425 -149 q 320 -255 368 -235 q 193 -275 273 -275 q 77 -262 132 -275 q 47 -240 47 -256 l 47 -189 q 74 -167 47 -167 l 78 -167 q 201 -175 170 -175 q 293 -151 263 -175 q 339 -57 322 -127 l 353 0 l 334 0 q 273 18 296 0 q 231 96 249 35 l 46 730 q 45 741 45 733 q 69 764 45 764 l 146 764 q 161 757 154 764 q 170 742 168 750 l 334 139 q 359 109 341 109 l 382 109 l 551 743 q 561 758 553 752 q 578 764 568 764 l 656 764 q 677 741 677 764 m 596 -199 q 588 -218 596 -211 q 568 -226 580 -226 l 514 -226 q 495 -218 504 -226 q 486 -199 486 -211 l 486 -87 q 495 -68 486 -77 q 514 -59 504 -59 l 568 -59 q 588 -68 580 -59 q 596 -87 596 -77 l 596 -199 z "},"÷":{"ha":1157,"x_min":0,"x_max":0,"o":""},"Č":{"ha":864,"x_min":0,"x_max":0,"o":""},"č":{"ha":625,"x_min":0,"x_max":0,"o":""},"Đ":{"ha":869,"x_min":22,"x_max":806,"o":"m 806 422 q 694 98 806 205 q 385 -9 583 -9 q 276 -7 332 -9 q 191 -2 220 -5 q 132 4 161 0 q 103 39 103 8 l 103 482 l 50 482 q 31 490 39 482 q 22 510 22 498 l 22 562 q 30 582 22 574 q 50 590 38 590 l 103 590 l 103 993 q 132 1028 103 1023 q 191 1035 161 1032 q 276 1039 220 1037 q 385 1042 332 1042 q 610 996 517 1042 q 755 852 704 949 q 806 610 806 755 l 806 422 m 679 422 l 679 610 q 642 801 679 729 q 539 903 605 873 q 385 933 473 933 q 231 929 300 933 l 231 590 l 374 590 q 393 582 385 590 q 401 562 401 574 l 401 510 q 393 490 401 498 q 374 482 384 482 l 231 482 l 231 102 q 385 98 275 98 q 601 172 523 98 q 679 422 679 246 z "},"đ":{"ha":737,"x_min":56,"x_max":720,"o":"m 643 46 q 638 25 643 33 q 614 14 633 17 q 485 -4 549 1 q 358 -9 422 -9 q 224 15 281 -9 q 130 83 167 39 q 74 192 92 128 q 56 334 56 255 l 56 433 q 74 579 56 515 q 131 686 93 642 q 225 751 168 729 q 358 774 282 774 q 394 773 374 774 q 435 771 414 772 q 478 766 456 769 q 521 760 500 764 l 521 861 l 298 861 q 279 869 287 861 q 271 889 271 878 l 271 936 q 279 956 271 947 q 298 964 287 964 l 521 964 l 521 1018 q 528 1037 521 1029 q 547 1044 536 1044 l 618 1044 q 636 1037 629 1044 q 643 1018 643 1029 l 643 964 l 692 964 q 711 956 703 964 q 720 936 720 947 l 720 889 q 711 869 720 878 q 692 861 703 861 l 643 861 l 643 46 m 521 657 q 482 662 503 660 q 439 665 461 664 q 396 666 417 666 q 358 667 375 667 q 273 651 307 667 q 217 606 238 635 q 187 532 196 576 q 178 433 178 489 l 178 334 q 186 233 178 277 q 216 158 195 189 q 272 113 237 128 q 358 97 307 97 q 397 98 376 97 q 439 100 418 98 q 482 103 461 101 q 521 106 503 104 l 521 657 z "},"‘":{"ha":245,"x_min":33,"x_max":222,"o":"m 222 1031 q 221 1018 222 1022 l 170 755 q 142 729 164 729 l 49 729 q 33 745 33 729 q 35 755 33 751 l 119 1018 q 146 1044 127 1044 l 210 1044 q 222 1031 222 1044 z "},"’":{"ha":245,"x_min":24,"x_max":212,"o":"m 212 1029 q 211 1018 212 1022 l 126 755 q 100 729 119 729 l 36 729 q 24 743 24 729 q 25 755 24 751 l 77 1018 q 104 1044 82 1044 l 197 1044 q 212 1029 212 1044 z "},"“":{"ha":456,"x_min":24,"x_max":432,"o":"m 432 1031 q 431 1018 432 1022 l 379 755 q 351 729 374 729 l 258 729 q 243 745 243 729 q 244 755 243 751 l 329 1018 q 355 1044 337 1044 l 419 1044 q 432 1031 432 1044 m 212 1031 q 211 1018 212 1022 l 160 755 q 132 729 154 729 l 39 729 q 24 745 24 729 q 25 755 24 751 l 110 1018 q 136 1044 117 1044 l 200 1044 q 212 1031 212 1044 z "},"”":{"ha":456,"x_min":24,"x_max":432,"o":"m 432 1029 q 431 1018 432 1022 l 346 755 q 319 729 338 729 l 256 729 q 243 743 243 729 q 244 755 243 751 l 296 1018 q 323 1044 301 1044 l 416 1044 q 432 1029 432 1044 m 212 1029 q 211 1018 212 1022 l 126 755 q 100 729 119 729 l 36 729 q 24 743 24 729 q 25 755 24 751 l 77 1018 q 104 1044 82 1044 l 197 1044 q 212 1029 212 1044 z "},"…":{"ha":814,"x_min":56,"x_max":758,"o":"m 758 26 q 750 7 758 15 q 732 0 743 0 l 654 0 q 635 7 643 0 q 627 26 627 15 l 627 157 q 635 175 627 168 q 654 183 643 183 l 732 183 q 751 176 743 183 q 758 157 758 168 l 758 26 m 473 26 q 465 7 473 15 q 446 0 457 0 l 368 0 q 350 8 357 0 q 342 26 342 16 l 342 157 q 350 175 342 167 q 368 183 357 183 l 446 183 q 466 175 458 183 q 473 157 473 168 l 473 26 m 187 26 q 180 7 187 15 q 161 0 172 0 l 83 0 q 64 7 72 0 q 56 26 56 15 l 56 157 q 64 175 56 168 q 83 183 72 183 l 161 183 q 180 175 173 183 q 187 157 187 168 l 187 26 z "}}}
